<svg id="Grupo_1072278" data-name="Grupo 1072278" xmlns="http://www.w3.org/2000/svg" xmlns:xlink="http://www.w3.org/1999/xlink" width="820" height="438.973" viewBox="0 0 820 438.973">
  <defs>
    <clipPath id="clip-path">
      <rect id="Rectángulo_377714" data-name="Rectángulo 377714" width="820" height="438.973" fill="none"/>
    </clipPath>
    <clipPath id="clip-path-2">
      <rect id="Rectángulo_377715" data-name="Rectángulo 377715" width="54.747" height="54.745" fill="none"/>
    </clipPath>
    <clipPath id="clip-path-4">
      <rect id="Rectángulo_377718" data-name="Rectángulo 377718" width="54.745" height="54.745" fill="none"/>
    </clipPath>
    <clipPath id="clip-path-8">
      <path id="Trazado_838928" data-name="Trazado 838928" d="M0,0H130.08V53.327H0Z" fill="none"/>
    </clipPath>
    <clipPath id="clip-path-9">
      <path id="Trazado_838917" data-name="Trazado 838917" d="M0,0H55.443V24.807H0Z" fill="none"/>
    </clipPath>
    <clipPath id="clip-path-10">
      <rect id="Rectángulo_377725" data-name="Rectángulo 377725" width="130.839" height="24.807" fill="none"/>
    </clipPath>
    <clipPath id="clip-path-11">
      <rect id="Rectángulo_377726" data-name="Rectángulo 377726" width="81.994" height="24.807" fill="none"/>
    </clipPath>
  </defs>
  <g id="Grupo_1072251" data-name="Grupo 1072251">
    <g id="Grupo_1072250" data-name="Grupo 1072250" clip-path="url(#clip-path)">
      <path id="Trazado_838353" data-name="Trazado 838353" d="M516.758,53.472a107.035,107.035,0,0,1-214.063,0h-29.82a136.855,136.855,0,0,0,273.7,0Z" transform="translate(273.424 53.58)" fill="#cdf5e2"/>
    </g>
  </g>
  <g id="Grupo_1072253" data-name="Grupo 1072253" transform="translate(655.771 257.154)">
    <g id="Grupo_1072252" data-name="Grupo 1072252" clip-path="url(#clip-path-2)">
      <path id="Trazado_838354" data-name="Trazado 838354" d="M382.3,155.822a27.372,27.372,0,1,1-27.371-27.374A27.373,27.373,0,0,1,382.3,155.822" transform="translate(-327.556 -128.448)" fill="#cdf5e2"/>
    </g>
  </g>
  <g id="Grupo_1072255" data-name="Grupo 1072255">
    <g id="Grupo_1072254" data-name="Grupo 1072254" clip-path="url(#clip-path)">
      <path id="Trazado_838355" data-name="Trazado 838355" d="M368.607,151.256A18.246,18.246,0,1,1,350.36,133a18.246,18.246,0,0,1,18.246,18.252Z" transform="translate(332.782 133.272)" fill="#1fd27a"/>
      <rect id="Rectángulo_377716" data-name="Rectángulo 377716" width="10.493" height="89.202" transform="translate(677.897 173.44)" fill="#cdf5e2"/>
      <path id="Trazado_838356" data-name="Trazado 838356" d="M501.686,107.045A107.044,107.044,0,1,1,394.645,0,107.042,107.042,0,0,1,501.686,107.045" transform="translate(288.178 0.001)" fill="#fff"/>
      <path id="Trazado_838357" data-name="Trazado 838357" d="M492.673,103.98A100.982,100.982,0,1,1,391.689,3,100.982,100.982,0,0,1,492.673,103.98Z" transform="translate(291.293 3.003)" fill="#1fd27a"/>
      <path id="Trazado_838358" data-name="Trazado 838358" d="M243.883,53.472a107.035,107.035,0,0,1-214.063,0H0a136.853,136.853,0,0,0,273.7,0Z" transform="translate(0 53.58)" fill="#cdf5e2"/>
    </g>
  </g>
  <g id="Grupo_1072257" data-name="Grupo 1072257" transform="translate(109.472 257.154)">
    <g id="Grupo_1072256" data-name="Grupo 1072256" clip-path="url(#clip-path-4)">
      <path id="Trazado_838359" data-name="Trazado 838359" d="M109.426,155.822a27.373,27.373,0,1,1-27.372-27.374h0a27.375,27.375,0,0,1,27.371,27.374" transform="translate(-54.681 -128.448)" fill="#cdf5e2"/>
    </g>
  </g>
  <g id="Grupo_1072259" data-name="Grupo 1072259">
    <g id="Grupo_1072258" data-name="Grupo 1072258" clip-path="url(#clip-path)">
      <path id="Trazado_838360" data-name="Trazado 838360" d="M95.939,151.256A18.246,18.246,0,1,1,77.692,133a18.246,18.246,0,0,1,18.246,18.252" transform="translate(59.566 133.272)" fill="#1fd27a"/>
      <rect id="Rectángulo_377719" data-name="Rectángulo 377719" width="10.493" height="89.202" transform="translate(131.598 173.44)" fill="#cdf5e2"/>
      <path id="Trazado_838361" data-name="Trazado 838361" d="M228.811,107.045A107.044,107.044,0,1,1,121.77,0,107.042,107.042,0,0,1,228.811,107.045" transform="translate(14.754 0.001)" fill="#fff"/>
      <path id="Trazado_838362" data-name="Trazado 838362" d="M219.948,103.98A100.983,100.983,0,1,1,118.964,3,100.983,100.983,0,0,1,219.948,103.98" transform="translate(18.017 3.003)" fill="#1fd27a"/>
      <path id="Trazado_838363" data-name="Trazado 838363" d="M380.165,53.472a107.035,107.035,0,0,1-214.063,0h-29.82a136.854,136.854,0,0,0,273.7,0Z" transform="translate(136.556 53.58)" fill="#dbe5f3"/>
    </g>
  </g>
  <g id="Grupo_1072261" data-name="Grupo 1072261" transform="translate(382.31 257.154)">
    <g id="Grupo_1072260" data-name="Grupo 1072260" clip-path="url(#clip-path-2)">
      <path id="Trazado_838364" data-name="Trazado 838364" d="M245.708,155.822a27.373,27.373,0,1,1-27.371-27.374,27.373,27.373,0,0,1,27.371,27.374" transform="translate(-190.963 -128.448)" fill="#dbe5f3"/>
    </g>
  </g>
  <g id="Grupo_1072275" data-name="Grupo 1072275">
    <g id="Grupo_1072274" data-name="Grupo 1072274" clip-path="url(#clip-path)">
      <path id="Trazado_838365" data-name="Trazado 838365" d="M232.092,151.256A18.246,18.246,0,1,1,213.845,133a18.246,18.246,0,0,1,18.246,18.252Z" transform="translate(195.992 133.272)" fill="#0a5e6b"/>
      <rect id="Rectángulo_377722" data-name="Rectángulo 377722" width="10.493" height="91.59" transform="translate(404.436 173.44)" fill="#dbe5f3"/>
      <path id="Trazado_838366" data-name="Trazado 838366" d="M365.093,107.045A107.043,107.043,0,1,1,258.052,0,107.042,107.042,0,0,1,365.093,107.045" transform="translate(151.312 0.001)" fill="#fff"/>
      <path id="Trazado_838367" data-name="Trazado 838367" d="M355.812,103.98A100.984,100.984,0,1,1,254.828,3,100.983,100.983,0,0,1,355.812,103.98Z" transform="translate(154.154 3.003)" fill="#0a5e6b"/>
      <path id="Trazado_838368" data-name="Trazado 838368" d="M27.683,153.173H233.021c11.461,0,20.753,6.079,20.753,13.578v92.182c0,7.5-9.291,13.578-20.753,13.578H27.683c-11.462,0-20.753-6.079-20.753-13.578V166.751c0-7.5,9.291-13.578,20.753-13.578" transform="translate(6.944 153.481)" fill="#cdf5e2"/>
      <path id="Trazado_838369" data-name="Trazado 838369" d="M300.172,153.173H505.51c11.461,0,20.753,6.011,20.753,13.424v91.148c0,7.415-9.291,13.426-20.753,13.426H300.172c-11.462,0-20.753-6.011-20.753-13.426V166.6c0-7.413,9.291-13.424,20.753-13.424" transform="translate(279.981 153.481)" fill="#cdf5e2"/>
      <path id="Trazado_838370" data-name="Trazado 838370" d="M159.324,153.2H387.084c12.449,0,22.539,6.037,22.539,13.487v92.272c0,7.449-10.09,13.487-22.539,13.487H159.324c-12.449,0-22.539-6.038-22.539-13.487V166.683c0-7.449,10.09-13.487,22.539-13.487" transform="translate(137.061 153.505)" fill="#dbe5f3"/>
      <g id="Grupo_1072264" data-name="Grupo 1072264" transform="translate(67.791 346.811)" style="isolation: isolate">
        <g id="Grupo_1072263" data-name="Grupo 1072263">
          <g id="Enmascarar_grupo_96" data-name="Enmascarar grupo 96" clip-path="url(#clip-path-8)">
            <path id="Trazado_838926" data-name="Trazado 838926" d="M5.492-4.6H2.82V0H1.313V-11.375H5.078a4.457,4.457,0,0,1,2.957.875A3.148,3.148,0,0,1,9.07-7.953,3.062,3.062,0,0,1,8.5-6.1a3.428,3.428,0,0,1-1.6,1.18L9.57-.094V0H7.961ZM2.82-5.828h2.3A2.6,2.6,0,0,0,6.9-6.407a1.959,1.959,0,0,0,.66-1.55,2.062,2.062,0,0,0-.629-1.62,2.663,2.663,0,0,0-1.816-.571H2.82ZM14.453.156a3.693,3.693,0,0,1-2.8-1.129,4.19,4.19,0,0,1-1.078-3.02v-.266a5.073,5.073,0,0,1,.48-2.246A3.748,3.748,0,0,1,12.4-8.051a3.378,3.378,0,0,1,1.871-.559,3.166,3.166,0,0,1,2.563,1.086,4.7,4.7,0,0,1,.914,3.109v.6H12.023a3,3,0,0,0,.73,2.02,2.3,2.3,0,0,0,1.777.77,2.517,2.517,0,0,0,1.3-.312,3.259,3.259,0,0,0,.93-.828l.883.688A3.55,3.55,0,0,1,14.453.156Zm-.18-7.578a1.928,1.928,0,0,0-1.469.637A3.1,3.1,0,0,0,12.07-5H16.3v-.109a2.753,2.753,0,0,0-.594-1.707A1.815,1.815,0,0,0,14.273-7.422Zm10.07,5.18a1.064,1.064,0,0,0-.441-.91,4.249,4.249,0,0,0-1.539-.559,7.277,7.277,0,0,1-1.742-.562,2.479,2.479,0,0,1-.953-.781,1.869,1.869,0,0,1-.309-1.078,2.193,2.193,0,0,1,.879-1.758,3.432,3.432,0,0,1,2.246-.719,3.532,3.532,0,0,1,2.332.742,2.357,2.357,0,0,1,.895,1.9H24.258a1.3,1.3,0,0,0-.5-1.023,1.888,1.888,0,0,0-1.27-.43,1.976,1.976,0,0,0-1.234.344,1.082,1.082,0,0,0-.445.9.877.877,0,0,0,.414.789,5.1,5.1,0,0,0,1.5.508,7.8,7.8,0,0,1,1.754.578,2.558,2.558,0,0,1,1,.809,1.988,1.988,0,0,1,.324,1.152,2.163,2.163,0,0,1-.906,1.816,3.8,3.8,0,0,1-2.352.684,4.257,4.257,0,0,1-1.8-.359,2.922,2.922,0,0,1-1.223-1A2.42,2.42,0,0,1,19.07-2.6h1.445A1.5,1.5,0,0,0,21.1-1.449a2.258,2.258,0,0,0,1.434.426,2.331,2.331,0,0,0,1.316-.332A1.02,1.02,0,0,0,24.344-2.242ZM27.289-4.3a4.993,4.993,0,0,1,.488-2.234A3.643,3.643,0,0,1,29.137-8.07a3.7,3.7,0,0,1,1.988-.539,3.565,3.565,0,0,1,2.793,1.2,4.6,4.6,0,0,1,1.066,3.18v.1a5.036,5.036,0,0,1-.473,2.215A3.589,3.589,0,0,1,33.16-.391a3.743,3.743,0,0,1-2.02.547,3.556,3.556,0,0,1-2.785-1.2A4.575,4.575,0,0,1,27.289-4.2Zm1.453.172a3.616,3.616,0,0,0,.652,2.258,2.088,2.088,0,0,0,1.746.852,2.075,2.075,0,0,0,1.75-.863A3.955,3.955,0,0,0,33.539-4.3a3.61,3.61,0,0,0-.66-2.254,2.1,2.1,0,0,0-1.754-.863A2.075,2.075,0,0,0,29.4-6.57,3.925,3.925,0,0,0,28.742-4.133ZM38.367,0H36.922V-12h1.445ZM45.9-.836a3.07,3.07,0,0,1-2.477.992,2.628,2.628,0,0,1-2.059-.785,3.4,3.4,0,0,1-.715-2.324v-5.5h1.445v5.461q0,1.922,1.563,1.922a2.163,2.163,0,0,0,2.2-1.234V-8.453H47.3V0H45.93Zm6.992-.187a2.082,2.082,0,0,0,1.352-.469,1.649,1.649,0,0,0,.641-1.172H56.25a2.621,2.621,0,0,1-.5,1.383A3.293,3.293,0,0,1,54.52-.234a3.55,3.55,0,0,1-1.629.391A3.482,3.482,0,0,1,50.145-1a4.59,4.59,0,0,1-1.02-3.152v-.242a5.089,5.089,0,0,1,.453-2.2,3.451,3.451,0,0,1,1.3-1.492,3.7,3.7,0,0,1,2-.531,3.39,3.39,0,0,1,2.363.852,3.043,3.043,0,0,1,1,2.211H54.883a1.992,1.992,0,0,0-.621-1.348,1.932,1.932,0,0,0-1.379-.527,2.023,2.023,0,0,0-1.707.793,3.724,3.724,0,0,0-.605,2.293v.273a3.65,3.65,0,0,0,.6,2.25A2.033,2.033,0,0,0,52.891-1.023ZM59.445,0H58V-8.453h1.445ZM57.883-10.7a.863.863,0,0,1,.215-.594.807.807,0,0,1,.637-.242.819.819,0,0,1,.641.242.854.854,0,0,1,.219.594.826.826,0,0,1-.219.586.834.834,0,0,1-.641.234.821.821,0,0,1-.637-.234A.834.834,0,0,1,57.883-10.7ZM61.375-4.3a4.993,4.993,0,0,1,.488-2.234A3.643,3.643,0,0,1,63.223-8.07a3.7,3.7,0,0,1,1.988-.539A3.565,3.565,0,0,1,68-7.414a4.6,4.6,0,0,1,1.066,3.18v.1A5.036,5.036,0,0,1,68.6-1.918,3.589,3.589,0,0,1,67.246-.391a3.743,3.743,0,0,1-2.02.547,3.556,3.556,0,0,1-2.785-1.2A4.575,4.575,0,0,1,61.375-4.2Zm1.453.172a3.616,3.616,0,0,0,.652,2.258,2.088,2.088,0,0,0,1.746.852,2.075,2.075,0,0,0,1.75-.863A3.955,3.955,0,0,0,67.625-4.3a3.61,3.61,0,0,0-.66-2.254,2.1,2.1,0,0,0-1.754-.863,2.075,2.075,0,0,0-1.727.852A3.925,3.925,0,0,0,62.828-4.133ZM65.867-12h1.75L65.523-9.7l-1.164,0ZM72.25-8.453,72.3-7.391a3.08,3.08,0,0,1,2.531-1.219q2.68,0,2.7,3.023V0H76.086V-5.594a1.946,1.946,0,0,0-.418-1.352,1.675,1.675,0,0,0-1.277-.437,2.086,2.086,0,0,0-1.234.375,2.546,2.546,0,0,0-.828.984V0H70.883V-8.453ZM83.289-4.3a4.993,4.993,0,0,1,.488-2.234A3.643,3.643,0,0,1,85.137-8.07a3.7,3.7,0,0,1,1.988-.539,3.565,3.565,0,0,1,2.793,1.2,4.6,4.6,0,0,1,1.066,3.18v.1a5.036,5.036,0,0,1-.473,2.215A3.589,3.589,0,0,1,89.16-.391a3.743,3.743,0,0,1-2.02.547,3.556,3.556,0,0,1-2.785-1.2A4.575,4.575,0,0,1,83.289-4.2Zm1.453.172a3.616,3.616,0,0,0,.652,2.258,2.088,2.088,0,0,0,1.746.852,2.075,2.075,0,0,0,1.75-.863A3.955,3.955,0,0,0,89.539-4.3a3.61,3.61,0,0,0-.66-2.254,2.1,2.1,0,0,0-1.754-.863A2.075,2.075,0,0,0,85.4-6.57,3.925,3.925,0,0,0,84.742-4.133Z" transform="translate(4.176 14.671)" fill="#12263f"/>
            <path id="Trazado_838927" data-name="Trazado 838927" d="M8.234-4.133a5.062,5.062,0,0,1-.883,3.109A2.829,2.829,0,0,1,4.961.156,3.1,3.1,0,0,1,2.539-.82V3.25H1.094v-11.7h1.32l.07.938A2.977,2.977,0,0,1,4.938-8.609a2.882,2.882,0,0,1,2.41,1.148,5.117,5.117,0,0,1,.887,3.2ZM6.789-4.3A3.735,3.735,0,0,0,6.18-6.555a1.963,1.963,0,0,0-1.672-.828A2.125,2.125,0,0,0,2.539-6.219V-2.18A2.129,2.129,0,0,0,4.523-1.023a1.954,1.954,0,0,0,1.652-.824A4.077,4.077,0,0,0,6.789-4.3Zm7.367-2.859a4.331,4.331,0,0,0-.711-.055A1.9,1.9,0,0,0,11.516-6V0H10.07V-8.453h1.406l.023.977a2.251,2.251,0,0,1,2.016-1.133,1.477,1.477,0,0,1,.641.109ZM18.844.156a3.693,3.693,0,0,1-2.8-1.129,4.19,4.19,0,0,1-1.078-3.02v-.266a5.073,5.073,0,0,1,.48-2.246,3.748,3.748,0,0,1,1.344-1.547,3.378,3.378,0,0,1,1.871-.559,3.166,3.166,0,0,1,2.563,1.086,4.7,4.7,0,0,1,.914,3.109v.6H16.414a3,3,0,0,0,.73,2.02,2.3,2.3,0,0,0,1.777.77,2.517,2.517,0,0,0,1.3-.312,3.259,3.259,0,0,0,.93-.828l.883.688A3.55,3.55,0,0,1,18.844.156Zm-.18-7.578a1.928,1.928,0,0,0-1.469.637A3.1,3.1,0,0,0,16.461-5H20.7v-.109A2.753,2.753,0,0,0,20.1-6.816,1.815,1.815,0,0,0,18.664-7.422Zm6.508-1.031.039.938a3.122,3.122,0,0,1,2.508-1.094A2.417,2.417,0,0,1,30.133-7.25a3.2,3.2,0,0,1,1.1-.984,3.242,3.242,0,0,1,1.6-.375q2.781,0,2.828,2.945V0H34.211V-5.578A1.941,1.941,0,0,0,33.8-6.934a1.823,1.823,0,0,0-1.391-.449,1.916,1.916,0,0,0-1.336.48,1.949,1.949,0,0,0-.617,1.293V0H29V-5.539a1.613,1.613,0,0,0-1.8-1.844A1.934,1.934,0,0,0,25.25-6.172V0H23.8V-8.453ZM39.406,0H37.961V-8.453h1.445ZM37.844-10.7a.863.863,0,0,1,.215-.594.807.807,0,0,1,.637-.242.819.819,0,0,1,.641.242.854.854,0,0,1,.219.594.826.826,0,0,1-.219.586.834.834,0,0,1-.641.234.821.821,0,0,1-.637-.234A.834.834,0,0,1,37.844-10.7Zm8.8,8.453a1.064,1.064,0,0,0-.441-.91,4.249,4.249,0,0,0-1.539-.559,7.277,7.277,0,0,1-1.742-.562,2.479,2.479,0,0,1-.953-.781,1.869,1.869,0,0,1-.309-1.078,2.193,2.193,0,0,1,.879-1.758,3.432,3.432,0,0,1,2.246-.719,3.532,3.532,0,0,1,2.332.742,2.357,2.357,0,0,1,.895,1.9H46.555a1.3,1.3,0,0,0-.5-1.023,1.888,1.888,0,0,0-1.27-.43,1.976,1.976,0,0,0-1.234.344,1.082,1.082,0,0,0-.445.9.877.877,0,0,0,.414.789,5.1,5.1,0,0,0,1.5.508,7.8,7.8,0,0,1,1.754.578,2.558,2.558,0,0,1,1,.809,1.988,1.988,0,0,1,.324,1.152A2.163,2.163,0,0,1,47.18-.527a3.8,3.8,0,0,1-2.352.684,4.257,4.257,0,0,1-1.8-.359,2.922,2.922,0,0,1-1.223-1A2.42,2.42,0,0,1,41.367-2.6h1.445a1.5,1.5,0,0,0,.582,1.152,2.258,2.258,0,0,0,1.434.426,2.331,2.331,0,0,0,1.316-.332A1.02,1.02,0,0,0,46.641-2.242ZM55.188,0a3.036,3.036,0,0,1-.2-.891A3.225,3.225,0,0,1,52.578.156a2.984,2.984,0,0,1-2.051-.707,2.287,2.287,0,0,1-.8-1.793,2.39,2.39,0,0,1,1-2.051,4.733,4.733,0,0,1,2.824-.73h1.406v-.664A1.623,1.623,0,0,0,54.508-7a1.821,1.821,0,0,0-1.336-.449,2.107,2.107,0,0,0-1.3.391,1.151,1.151,0,0,0-.523.945H49.9a2,2,0,0,1,.449-1.223,3.066,3.066,0,0,1,1.219-.934,4.1,4.1,0,0,1,1.691-.344,3.342,3.342,0,0,1,2.289.73,2.635,2.635,0,0,1,.859,2.012v3.891a4.757,4.757,0,0,0,.3,1.852V0Zm-2.4-1.1a2.54,2.54,0,0,0,1.289-.352,2.127,2.127,0,0,0,.883-.914V-4.1H53.828q-2.656,0-2.656,1.555a1.316,1.316,0,0,0,.453,1.063A1.742,1.742,0,0,0,52.789-1.1ZM64.2,0H62.758V-8.453H64.2ZM62.641-10.7a.863.863,0,0,1,.215-.594.807.807,0,0,1,.637-.242.819.819,0,0,1,.641.242.854.854,0,0,1,.219.594.826.826,0,0,1-.219.586.834.834,0,0,1-.641.234.821.821,0,0,1-.637-.234A.834.834,0,0,1,62.641-10.7Zm5.242,2.242.047,1.063a3.08,3.08,0,0,1,2.531-1.219q2.68,0,2.7,3.023V0H71.719V-5.594A1.946,1.946,0,0,0,71.3-6.945a1.675,1.675,0,0,0-1.277-.437,2.086,2.086,0,0,0-1.234.375,2.546,2.546,0,0,0-.828.984V0H66.516V-8.453ZM76.914,0H75.469V-8.453h1.445ZM75.352-10.7a.863.863,0,0,1,.215-.594.807.807,0,0,1,.637-.242.819.819,0,0,1,.641.242.854.854,0,0,1,.219.594.826.826,0,0,1-.219.586.834.834,0,0,1-.641.234.821.821,0,0,1-.637-.234A.834.834,0,0,1,75.352-10.7Zm7.266,9.672a2.082,2.082,0,0,0,1.352-.469,1.649,1.649,0,0,0,.641-1.172h1.367a2.621,2.621,0,0,1-.5,1.383,3.293,3.293,0,0,1-1.23,1.047,3.55,3.55,0,0,1-1.629.391A3.482,3.482,0,0,1,79.871-1a4.59,4.59,0,0,1-1.02-3.152v-.242a5.089,5.089,0,0,1,.453-2.2,3.451,3.451,0,0,1,1.3-1.492,3.7,3.7,0,0,1,2-.531,3.39,3.39,0,0,1,2.363.852,3.043,3.043,0,0,1,1,2.211H84.609a1.992,1.992,0,0,0-.621-1.348,1.932,1.932,0,0,0-1.379-.527,2.023,2.023,0,0,0-1.707.793A3.724,3.724,0,0,0,80.3-4.336v.273a3.65,3.65,0,0,0,.6,2.25A2.033,2.033,0,0,0,82.617-1.023ZM89.172,0H87.727V-8.453h1.445ZM87.609-10.7a.863.863,0,0,1,.215-.594.807.807,0,0,1,.637-.242.819.819,0,0,1,.641.242.854.854,0,0,1,.219.594.826.826,0,0,1-.219.586.834.834,0,0,1-.641.234.821.821,0,0,1-.637-.234A.834.834,0,0,1,87.609-10.7ZM96.7,0a3.036,3.036,0,0,1-.2-.891A3.225,3.225,0,0,1,94.094.156a2.984,2.984,0,0,1-2.051-.707,2.288,2.288,0,0,1-.8-1.793,2.39,2.39,0,0,1,1-2.051,4.733,4.733,0,0,1,2.824-.73h1.406v-.664A1.623,1.623,0,0,0,96.023-7a1.821,1.821,0,0,0-1.336-.449,2.108,2.108,0,0,0-1.3.391,1.151,1.151,0,0,0-.523.945H91.414a2,2,0,0,1,.449-1.223,3.066,3.066,0,0,1,1.219-.934,4.1,4.1,0,0,1,1.691-.344,3.342,3.342,0,0,1,2.289.73,2.635,2.635,0,0,1,.859,2.012v3.891a4.757,4.757,0,0,0,.3,1.852V0ZM94.3-1.1a2.54,2.54,0,0,0,1.289-.352,2.127,2.127,0,0,0,.883-.914V-4.1H95.344q-2.656,0-2.656,1.555a1.316,1.316,0,0,0,.453,1.063A1.742,1.742,0,0,0,94.3-1.1ZM101.758,0h-1.445V-12h1.445Z" transform="translate(-0.001 44.699)" fill="#12263f"/>
          </g>
        </g>
      </g>
      <g id="Grupo_1072267" data-name="Grupo 1072267" transform="translate(106.144 160.788)" style="isolation: isolate">
        <g id="Grupo_1072266" data-name="Grupo 1072266" transform="translate(3.856 4)">
          <g id="Enmascarar_grupo_95" data-name="Enmascarar grupo 95" clip-path="url(#clip-path-9)">
            <path id="Trazado_838918" data-name="Trazado 838918" d="M10.775-10.661H6.855V0H4.219V-10.661H.352V-12.8H10.775ZM14.932.176a4.668,4.668,0,0,1-3.406-1.283,4.561,4.561,0,0,1-1.314-3.419v-.246a5.745,5.745,0,0,1,.554-2.562,4.064,4.064,0,0,1,1.569-1.74,4.4,4.4,0,0,1,2.316-.611,3.947,3.947,0,0,1,3.072,1.23,5,5,0,0,1,1.121,3.489v1.037H12.788a2.36,2.36,0,0,0,.743,1.494,2.245,2.245,0,0,0,1.569.563,2.742,2.742,0,0,0,2.294-1.063l1.248,1.4A3.813,3.813,0,0,1,17.094-.277,5.075,5.075,0,0,1,14.932.176Zm-.29-7.813a1.587,1.587,0,0,0-1.226.512,2.651,2.651,0,0,0-.6,1.466h3.533v-.2a1.891,1.891,0,0,0-.457-1.311A1.638,1.638,0,0,0,14.642-7.638ZM22.666-9.51l.079,1.063a3.342,3.342,0,0,1,2.733-1.239A2.536,2.536,0,0,1,28-8.235a3.265,3.265,0,0,1,2.856-1.45,2.836,2.836,0,0,1,2.3.9,4.141,4.141,0,0,1,.756,2.711V0H31.368V-6.064a1.811,1.811,0,0,0-.316-1.182,1.4,1.4,0,0,0-1.116-.374,1.585,1.585,0,0,0-1.582,1.09L28.362,0h-2.54V-6.056a1.789,1.789,0,0,0-.325-1.2,1.416,1.416,0,0,0-1.107-.369,1.646,1.646,0,0,0-1.564.9V0h-2.54V-9.51ZM41.378,0a2.821,2.821,0,0,1-.255-.853,3.073,3.073,0,0,1-2.4,1.028,3.376,3.376,0,0,1-2.316-.809,2.6,2.6,0,0,1-.918-2.039,2.687,2.687,0,0,1,1.121-2.32,5.529,5.529,0,0,1,3.239-.817h1.169v-.545a1.567,1.567,0,0,0-.338-1.055,1.331,1.331,0,0,0-1.068-.4,1.513,1.513,0,0,0-1.006.308,1.045,1.045,0,0,0-.365.844H35.7a2.551,2.551,0,0,1,.51-1.529,3.37,3.37,0,0,1,1.441-1.1,5.253,5.253,0,0,1,2.092-.4,4.15,4.15,0,0,1,2.791.883,3.09,3.09,0,0,1,1.033,2.483V-2.2a4.546,4.546,0,0,0,.378,2.048V0Zm-2.1-1.767a2.188,2.188,0,0,0,1.037-.25,1.645,1.645,0,0,0,.7-.672V-4.324h-.949q-1.907,0-2.03,1.318l-.009.149a1.017,1.017,0,0,0,.334.782A1.3,1.3,0,0,0,39.278-1.767Z" transform="translate(0 17.818)" fill="#fff"/>
          </g>
        </g>
      </g>
      <g id="Grupo_1072269" data-name="Grupo 1072269" transform="translate(344.696 158.786)">
        <g id="Grupo_1072268" data-name="Grupo 1072268" clip-path="url(#clip-path-10)">
          <path id="Trazado_838919" data-name="Trazado 838919" d="M-49.945-4.509V0h-2.637V-12.8h4.992a5.776,5.776,0,0,1,2.536.527,3.886,3.886,0,0,1,1.683,1.5,4.178,4.178,0,0,1,.589,2.21,3.674,3.674,0,0,1-1.288,2.966,5.363,5.363,0,0,1-3.564,1.085Zm0-2.136h2.355a2.316,2.316,0,0,0,1.6-.492,1.79,1.79,0,0,0,.549-1.406A2.111,2.111,0,0,0-46-10.063a2.068,2.068,0,0,0-1.529-.6h-2.417ZM-35.9,0a2.821,2.821,0,0,1-.255-.853,3.073,3.073,0,0,1-2.4,1.028,3.376,3.376,0,0,1-2.316-.809,2.6,2.6,0,0,1-.918-2.039,2.687,2.687,0,0,1,1.121-2.32,5.529,5.529,0,0,1,3.239-.817h1.169v-.545A1.567,1.567,0,0,0-36.6-7.409a1.331,1.331,0,0,0-1.068-.4,1.513,1.513,0,0,0-1.006.308,1.045,1.045,0,0,0-.365.844h-2.54a2.551,2.551,0,0,1,.51-1.529,3.37,3.37,0,0,1,1.441-1.1,5.253,5.253,0,0,1,2.092-.4,4.15,4.15,0,0,1,2.791.883,3.09,3.09,0,0,1,1.033,2.483V-2.2a4.546,4.546,0,0,0,.378,2.048V0ZM-38-1.767a2.188,2.188,0,0,0,1.037-.25,1.645,1.645,0,0,0,.7-.672V-4.324h-.949q-1.907,0-2.03,1.318l-.009.149a1.017,1.017,0,0,0,.334.782A1.3,1.3,0,0,0-38-1.767Zm11.494-5.361a6.9,6.9,0,0,0-.914-.07,1.86,1.86,0,0,0-1.89.976V0h-2.54V-9.51h2.4l.07,1.134a2.354,2.354,0,0,1,2.118-1.31,2.662,2.662,0,0,1,.791.114Zm5.044-4.72V-9.51h1.626v1.863h-1.626V-2.9a1.133,1.133,0,0,0,.2.756,1.015,1.015,0,0,0,.773.229,4.051,4.051,0,0,0,.747-.062V-.053a5.229,5.229,0,0,1-1.538.229,2.425,2.425,0,0,1-2.725-2.7V-7.646H-25.4V-9.51h1.389v-2.338ZM-15.817,0h-2.549V-9.51h2.549Zm-2.7-11.971a1.251,1.251,0,0,1,.382-.94,1.436,1.436,0,0,1,1.042-.369,1.44,1.44,0,0,1,1.037.369,1.244,1.244,0,0,1,.387.94,1.247,1.247,0,0,1-.391.949,1.443,1.443,0,0,1-1.033.369,1.443,1.443,0,0,1-1.033-.369A1.247,1.247,0,0,1-18.515-11.971Zm8.655,10.1a1.666,1.666,0,0,0,1.143-.387A1.355,1.355,0,0,0-8.26-3.287h2.382a3.258,3.258,0,0,1-.527,1.771A3.48,3.48,0,0,1-7.825-.268,4.442,4.442,0,0,1-9.816.176a4.129,4.129,0,0,1-3.217-1.3A5.13,5.13,0,0,1-14.211-4.7v-.167a5.071,5.071,0,0,1,1.169-3.507,4.08,4.08,0,0,1,3.208-1.31A4,4,0,0,1-6.973-8.67a3.594,3.594,0,0,1,1.094,2.7H-8.26a1.745,1.745,0,0,0-.457-1.206,1.524,1.524,0,0,0-1.16-.464,1.53,1.53,0,0,0-1.34.647,3.749,3.749,0,0,0-.453,2.1v.264a3.8,3.8,0,0,0,.448,2.113A1.549,1.549,0,0,0-9.86-1.872ZM-1.82,0H-4.369V-9.51H-1.82Zm-2.7-11.971a1.251,1.251,0,0,1,.382-.94,1.436,1.436,0,0,1,1.042-.369,1.44,1.44,0,0,1,1.037.369,1.244,1.244,0,0,1,.387.94,1.247,1.247,0,0,1-.391.949,1.443,1.443,0,0,1-1.033.369,1.443,1.443,0,0,1-1.033-.369A1.247,1.247,0,0,1-4.518-11.971Zm13.261,7.3a5.7,5.7,0,0,1-1,3.52A3.2,3.2,0,0,1,5.051.176a2.963,2.963,0,0,1-2.329-1V3.656H.182V-9.51H2.538l.088.932A2.985,2.985,0,0,1,5.034-9.686a3.22,3.22,0,0,1,2.733,1.3A5.858,5.858,0,0,1,8.743-4.8ZM6.2-4.852A3.743,3.743,0,0,0,5.732-6.9,1.532,1.532,0,0,0,4.366-7.62a1.663,1.663,0,0,0-1.644.914v3.894a1.692,1.692,0,0,0,1.661.94Q6.2-1.872,6.2-4.852ZM15.755,0A2.821,2.821,0,0,1,15.5-.853,3.073,3.073,0,0,1,13.1.176a3.376,3.376,0,0,1-2.316-.809,2.6,2.6,0,0,1-.918-2.039,2.687,2.687,0,0,1,1.121-2.32,5.529,5.529,0,0,1,3.239-.817h1.169v-.545a1.567,1.567,0,0,0-.338-1.055,1.331,1.331,0,0,0-1.068-.4,1.513,1.513,0,0,0-1.006.308,1.045,1.045,0,0,0-.365.844h-2.54a2.551,2.551,0,0,1,.51-1.529,3.37,3.37,0,0,1,1.441-1.1,5.253,5.253,0,0,1,2.092-.4A4.15,4.15,0,0,1,16.91-8.8a3.09,3.09,0,0,1,1.033,2.483V-2.2a4.546,4.546,0,0,0,.378,2.048V0Zm-2.1-1.767a2.188,2.188,0,0,0,1.037-.25,1.645,1.645,0,0,0,.7-.672V-4.324h-.949q-1.907,0-2.03,1.318l-.009.149a1.017,1.017,0,0,0,.334.782A1.3,1.3,0,0,0,13.654-1.767ZM22.142-9.51l.079,1.1a3.32,3.32,0,0,1,2.733-1.274A2.759,2.759,0,0,1,27.2-8.8a4.142,4.142,0,0,1,.756,2.654V0H25.42V-6.082a1.648,1.648,0,0,0-.352-1.173A1.574,1.574,0,0,0,23.9-7.62a1.747,1.747,0,0,0-1.608.914V0h-2.54V-9.51Zm10.694-2.338V-9.51h1.626v1.863H32.836V-2.9a1.133,1.133,0,0,0,.2.756,1.015,1.015,0,0,0,.773.229,4.051,4.051,0,0,0,.747-.062V-.053a5.229,5.229,0,0,1-1.538.229,2.425,2.425,0,0,1-2.725-2.7V-7.646H28.908V-9.51H30.3v-2.338ZM40.182.176a4.668,4.668,0,0,1-3.406-1.283,4.561,4.561,0,0,1-1.314-3.419v-.246a5.745,5.745,0,0,1,.554-2.562,4.064,4.064,0,0,1,1.569-1.74A4.4,4.4,0,0,1,39.9-9.686a3.947,3.947,0,0,1,3.072,1.23,5,5,0,0,1,1.121,3.489v1.037H38.038a2.36,2.36,0,0,0,.743,1.494,2.245,2.245,0,0,0,1.569.563,2.742,2.742,0,0,0,2.294-1.063l1.248,1.4A3.813,3.813,0,0,1,42.344-.277,5.075,5.075,0,0,1,40.182.176Zm-.29-7.813a1.587,1.587,0,0,0-1.226.512,2.651,2.651,0,0,0-.6,1.466H41.6v-.2a1.891,1.891,0,0,0-.457-1.311A1.638,1.638,0,0,0,39.892-7.638Zm10.7,5.01a.818.818,0,0,0-.461-.734,5.241,5.241,0,0,0-1.481-.479Q45.26-4.553,45.26-6.724a2.613,2.613,0,0,1,1.05-2.114,4.237,4.237,0,0,1,2.747-.848,4.56,4.56,0,0,1,2.9.853,2.687,2.687,0,0,1,1.085,2.215H50.5a1.229,1.229,0,0,0-.352-.9,1.488,1.488,0,0,0-1.1-.356,1.52,1.52,0,0,0-.993.29.916.916,0,0,0-.352.738.783.783,0,0,0,.4.681,4.114,4.114,0,0,0,1.349.448,11.019,11.019,0,0,1,1.6.426,2.628,2.628,0,0,1,2.013,2.558,2.481,2.481,0,0,1-1.116,2.1,4.815,4.815,0,0,1-2.883.8A5.029,5.029,0,0,1,46.943-.25a3.561,3.561,0,0,1-1.455-1.169,2.716,2.716,0,0,1-.527-1.6H47.37a1.326,1.326,0,0,0,.5,1.037,1.987,1.987,0,0,0,1.248.36,1.839,1.839,0,0,0,1.1-.277A.861.861,0,0,0,50.6-2.628Z" transform="translate(61 18.403)" fill="#fff"/>
        </g>
      </g>
      <g id="Grupo_1072273" data-name="Grupo 1072273" transform="translate(645.29 164.792)" style="isolation: isolate">
        <g id="Grupo_1072272" data-name="Grupo 1072272">
          <g id="Grupo_1072271" data-name="Grupo 1072271" clip-path="url(#clip-path-11)">
            <path id="Trazado_838920" data-name="Trazado 838920" d="M7.859-4.648h-4.5V0H1.016V-11.375H8.422v1.9H3.359v2.938h4.5ZM8.877-4.3a5.013,5.013,0,0,1,.484-2.242A3.546,3.546,0,0,1,10.756-8.07a4.069,4.069,0,0,1,2.113-.539,3.849,3.849,0,0,1,2.793,1.047,4.2,4.2,0,0,1,1.207,2.844l.016.578A4.418,4.418,0,0,1,15.8-1.02,3.775,3.775,0,0,1,12.885.156,3.793,3.793,0,0,1,9.967-1.016,4.5,4.5,0,0,1,8.877-4.2Zm2.258.16A3.16,3.16,0,0,0,11.588-2.3a1.5,1.5,0,0,0,1.3.638,1.5,1.5,0,0,0,1.281-.63,3.457,3.457,0,0,0,.461-2.015,3.128,3.128,0,0,0-.461-1.831,1.5,1.5,0,0,0-1.3-.649,1.474,1.474,0,0,0-1.281.646A3.516,3.516,0,0,0,11.135-4.144ZM22.946-6.336a6.134,6.134,0,0,0-.812-.062,1.654,1.654,0,0,0-1.68.867V0H18.2V-8.453h2.133l.063,1.008a2.092,2.092,0,0,1,1.883-1.164,2.366,2.366,0,0,1,.7.1Zm3.139-2.117.07.945a2.971,2.971,0,0,1,2.43-1.1A2.255,2.255,0,0,1,30.827-7.32a2.9,2.9,0,0,1,2.539-1.289,2.521,2.521,0,0,1,2.047.8,3.681,3.681,0,0,1,.672,2.41V0H33.819V-5.391a1.61,1.61,0,0,0-.281-1.051,1.246,1.246,0,0,0-.992-.332,1.409,1.409,0,0,0-1.406.969L31.147,0H28.889V-5.383A1.59,1.59,0,0,0,28.6-6.445a1.259,1.259,0,0,0-.984-.328,1.463,1.463,0,0,0-1.391.8V0H23.968V-8.453ZM42.654,0a2.507,2.507,0,0,1-.227-.758,2.732,2.732,0,0,1-2.133.914,3,3,0,0,1-2.059-.719,2.312,2.312,0,0,1-.816-1.812,2.389,2.389,0,0,1,1-2.062,4.915,4.915,0,0,1,2.879-.727h1.039v-.484a1.393,1.393,0,0,0-.3-.937,1.183,1.183,0,0,0-.949-.352,1.345,1.345,0,0,0-.895.273.929.929,0,0,0-.324.75H37.607a2.268,2.268,0,0,1,.453-1.359,3,3,0,0,1,1.281-.98A4.669,4.669,0,0,1,41.2-8.609a3.689,3.689,0,0,1,2.48.785A2.747,2.747,0,0,1,44.6-5.617v3.664a4.041,4.041,0,0,0,.336,1.82V0ZM40.786-1.57a1.945,1.945,0,0,0,.922-.223,1.462,1.462,0,0,0,.625-.6V-3.844H41.49q-1.7,0-1.8,1.172l-.008.133a.9.9,0,0,0,.3.7A1.153,1.153,0,0,0,40.786-1.57Zm8.17-8.961v2.078H50.4V-6.8H48.956v4.219a1.007,1.007,0,0,0,.18.672.9.9,0,0,0,.688.2,3.6,3.6,0,0,0,.664-.055V-.047a4.648,4.648,0,0,1-1.367.2,2.156,2.156,0,0,1-2.422-2.4V-6.8H45.464V-8.453H46.7v-2.078ZM50.77-4.3a5.013,5.013,0,0,1,.484-2.242A3.546,3.546,0,0,1,52.648-8.07a4.069,4.069,0,0,1,2.113-.539,3.849,3.849,0,0,1,2.793,1.047,4.2,4.2,0,0,1,1.207,2.844l.016.578A4.418,4.418,0,0,1,57.691-1.02,3.775,3.775,0,0,1,54.777.156a3.793,3.793,0,0,1-2.918-1.172A4.5,4.5,0,0,1,50.77-4.2Zm2.258.16A3.16,3.16,0,0,0,53.48-2.3a1.5,1.5,0,0,0,1.3.638,1.5,1.5,0,0,0,1.281-.63,3.457,3.457,0,0,0,.461-2.015,3.128,3.128,0,0,0-.461-1.831,1.5,1.5,0,0,0-1.3-.649,1.474,1.474,0,0,0-1.281.646A3.516,3.516,0,0,0,53.027-4.144Z" transform="translate(10.71 17.818)" fill="#fff"/>
          </g>
        </g>
      </g>
    </g>
  </g>
  <path id="Trazado_838922" data-name="Trazado 838922" d="M7.6-2.977H2.836L1.766,0H.219L4.563-11.375H5.875L10.227,0H8.688ZM3.289-4.2H7.156L5.219-9.523ZM12.016,0V-7.336H10.68V-8.453h1.336v-.719a2.937,2.937,0,0,1,.809-2.2,3.136,3.136,0,0,1,2.285-.789,6.881,6.881,0,0,1,2.211.477l-.242,1.219a5.008,5.008,0,0,0-1.859-.391,1.819,1.819,0,0,0-1.34.418,1.723,1.723,0,0,0-.41,1.254v.734H15.2v1.117H13.469V0Zm6.023,0H16.586V-8.453h1.453Zm6.438-7.156a4.331,4.331,0,0,0-.711-.055A1.9,1.9,0,0,0,21.836-6V0H20.391V-8.453H21.8l.023.977a2.251,2.251,0,0,1,2.016-1.133,1.477,1.477,0,0,1,.641.109Zm2.688-1.3.039.938a3.122,3.122,0,0,1,2.508-1.094A2.417,2.417,0,0,1,32.125-7.25a3.2,3.2,0,0,1,1.1-.984,3.242,3.242,0,0,1,1.6-.375q2.781,0,2.828,2.945V0H36.2V-5.578a1.941,1.941,0,0,0-.414-1.355A1.823,1.823,0,0,0,34.4-7.383a1.917,1.917,0,0,0-1.336.48,1.949,1.949,0,0,0-.617,1.293V0H30.992V-5.539a1.613,1.613,0,0,0-1.8-1.844,1.934,1.934,0,0,0-1.945,1.211V0H25.8V-8.453ZM45.047,0a3.036,3.036,0,0,1-.2-.891A3.225,3.225,0,0,1,42.438.156a2.984,2.984,0,0,1-2.051-.707,2.287,2.287,0,0,1-.8-1.793,2.39,2.39,0,0,1,1-2.051,4.733,4.733,0,0,1,2.824-.73H44.82v-.664A1.623,1.623,0,0,0,44.367-7a1.821,1.821,0,0,0-1.336-.449,2.107,2.107,0,0,0-1.3.391,1.151,1.151,0,0,0-.523.945H39.758a2,2,0,0,1,.449-1.223,3.066,3.066,0,0,1,1.219-.934,4.1,4.1,0,0,1,1.691-.344,3.342,3.342,0,0,1,2.289.73,2.635,2.635,0,0,1,.859,2.012v3.891a4.757,4.757,0,0,0,.3,1.852V0Zm-2.4-1.1a2.54,2.54,0,0,0,1.289-.352,2.127,2.127,0,0,0,.883-.914V-4.1H43.688q-2.656,0-2.656,1.555a1.316,1.316,0,0,0,.453,1.063A1.742,1.742,0,0,0,42.648-1.1Zm7.844-9.4v2.047H52.07v1.117H50.492v5.249a1.173,1.173,0,0,0,.211.763.888.888,0,0,0,.719.254,3.5,3.5,0,0,0,.688-.094V0A4.215,4.215,0,0,1,51,.156,1.8,1.8,0,0,1,49.539-.43a2.517,2.517,0,0,1-.492-1.664V-7.336H47.508V-8.453h1.539V-10.5ZM55.328,0H53.883V-8.453h1.445ZM53.766-10.7a.863.863,0,0,1,.215-.594.807.807,0,0,1,.637-.242.819.819,0,0,1,.641.242.854.854,0,0,1,.219.594.826.826,0,0,1-.219.586.834.834,0,0,1-.641.234.821.821,0,0,1-.637-.234A.834.834,0,0,1,53.766-10.7ZM60.43-1.961l2.094-6.492H64L60.969,0h-1.1L56.8-8.453h1.477ZM64.891-4.3a4.993,4.993,0,0,1,.488-2.234A3.643,3.643,0,0,1,66.738-8.07a3.7,3.7,0,0,1,1.988-.539,3.565,3.565,0,0,1,2.793,1.2,4.6,4.6,0,0,1,1.066,3.18v.1a5.036,5.036,0,0,1-.473,2.215A3.589,3.589,0,0,1,70.762-.391a3.743,3.743,0,0,1-2.02.547,3.556,3.556,0,0,1-2.785-1.2A4.575,4.575,0,0,1,64.891-4.2Zm1.453.172A3.616,3.616,0,0,0,67-1.875a2.088,2.088,0,0,0,1.746.852,2.075,2.075,0,0,0,1.75-.863A3.955,3.955,0,0,0,71.141-4.3a3.61,3.61,0,0,0-.66-2.254,2.1,2.1,0,0,0-1.754-.863A2.075,2.075,0,0,0,67-6.57,3.925,3.925,0,0,0,66.344-4.133Z" transform="translate(360.571 337.774)" fill="#12263f"/>
  <path id="Trazado_838923" data-name="Trazado 838923" d="M10.063,0H8.555L2.828-8.766V0H1.32V-11.375H2.828L8.57-2.57v-8.8h1.492Zm5.945.156a3.693,3.693,0,0,1-2.8-1.129,4.19,4.19,0,0,1-1.078-3.02v-.266a5.073,5.073,0,0,1,.48-2.246,3.748,3.748,0,0,1,1.344-1.547,3.378,3.378,0,0,1,1.871-.559,3.166,3.166,0,0,1,2.563,1.086A4.7,4.7,0,0,1,19.3-4.414v.6H13.578a3,3,0,0,0,.73,2.02,2.3,2.3,0,0,0,1.777.77,2.517,2.517,0,0,0,1.3-.312,3.259,3.259,0,0,0,.93-.828l.883.688A3.55,3.55,0,0,1,16.008.156Zm-.18-7.578a1.928,1.928,0,0,0-1.469.637A3.1,3.1,0,0,0,13.625-5h4.234v-.109a2.753,2.753,0,0,0-.594-1.707A1.815,1.815,0,0,0,15.828-7.422Zm4.8,3.125a4.968,4.968,0,0,1,.914-3.145,2.923,2.923,0,0,1,2.422-1.168,2.908,2.908,0,0,1,2.414,1.094l.07-.937h1.32V-.2A3.439,3.439,0,0,1,26.8,2.383a3.589,3.589,0,0,1-2.613.945A4.348,4.348,0,0,1,22.4,2.938a3.08,3.08,0,0,1-1.336-1.07L21.813,1a2.826,2.826,0,0,0,2.273,1.148,2.214,2.214,0,0,0,1.645-.594,2.269,2.269,0,0,0,.59-1.672V-.844a2.971,2.971,0,0,1-2.367,1,2.887,2.887,0,0,1-2.4-1.2A5.224,5.224,0,0,1,20.633-4.3Zm1.453.164a3.79,3.79,0,0,0,.586,2.246,1.9,1.9,0,0,0,1.641.816A2.117,2.117,0,0,0,26.32-2.312V-6.172a2.142,2.142,0,0,0-1.992-1.211,1.921,1.921,0,0,0-1.648.82A4.128,4.128,0,0,0,22.086-4.133ZM35.172,0a3.036,3.036,0,0,1-.2-.891A3.225,3.225,0,0,1,32.563.156a2.984,2.984,0,0,1-2.051-.707,2.287,2.287,0,0,1-.8-1.793,2.39,2.39,0,0,1,1-2.051,4.733,4.733,0,0,1,2.824-.73h1.406v-.664A1.623,1.623,0,0,0,34.492-7a1.821,1.821,0,0,0-1.336-.449,2.107,2.107,0,0,0-1.3.391,1.151,1.151,0,0,0-.523.945H29.883a2,2,0,0,1,.449-1.223,3.066,3.066,0,0,1,1.219-.934,4.1,4.1,0,0,1,1.691-.344,3.342,3.342,0,0,1,2.289.73,2.635,2.635,0,0,1,.859,2.012v3.891a4.757,4.757,0,0,0,.3,1.852V0Zm-2.4-1.1a2.54,2.54,0,0,0,1.289-.352,2.127,2.127,0,0,0,.883-.914V-4.1H33.813q-2.656,0-2.656,1.555a1.316,1.316,0,0,0,.453,1.063A1.742,1.742,0,0,0,32.773-1.1Zm7.844-9.4v2.047H42.2v1.117H40.617v5.249a1.173,1.173,0,0,0,.211.763.888.888,0,0,0,.719.254,3.5,3.5,0,0,0,.688-.094V0a4.215,4.215,0,0,1-1.109.155A1.8,1.8,0,0,1,39.664-.43a2.517,2.517,0,0,1-.492-1.664V-7.336H37.633V-8.453h1.539V-10.5ZM45.453,0H44.008V-8.453h1.445ZM43.891-10.7a.863.863,0,0,1,.215-.594.807.807,0,0,1,.637-.242.819.819,0,0,1,.641.242.854.854,0,0,1,.219.594.826.826,0,0,1-.219.586.834.834,0,0,1-.641.234.821.821,0,0,1-.637-.234A.834.834,0,0,1,43.891-10.7Zm6.664,8.734,2.094-6.492h1.477L51.094,0h-1.1L46.93-8.453h1.477ZM55.016-4.3A4.993,4.993,0,0,1,55.5-6.539,3.643,3.643,0,0,1,56.863-8.07a3.7,3.7,0,0,1,1.988-.539,3.565,3.565,0,0,1,2.793,1.2,4.6,4.6,0,0,1,1.066,3.18v.1a5.036,5.036,0,0,1-.473,2.215A3.589,3.589,0,0,1,60.887-.391a3.743,3.743,0,0,1-2.02.547,3.556,3.556,0,0,1-2.785-1.2A4.575,4.575,0,0,1,55.016-4.2Zm1.453.172a3.616,3.616,0,0,0,.652,2.258,2.088,2.088,0,0,0,1.746.852,2.075,2.075,0,0,0,1.75-.863A3.955,3.955,0,0,0,61.266-4.3a3.61,3.61,0,0,0-.66-2.254,2.1,2.1,0,0,0-1.754-.863,2.075,2.075,0,0,0-1.727.852A3.925,3.925,0,0,0,56.469-4.133Z" transform="translate(367.003 371.814)" fill="#12263f"/>
  <path id="Trazado_838924" data-name="Trazado 838924" d="M2.93,0H1.43V-11.375h1.5ZM6.8-8.453l.039.938A3.122,3.122,0,0,1,9.352-8.609,2.417,2.417,0,0,1,11.766-7.25a3.2,3.2,0,0,1,1.1-.984,3.242,3.242,0,0,1,1.6-.375q2.781,0,2.828,2.945V0H15.844V-5.578a1.941,1.941,0,0,0-.414-1.355,1.823,1.823,0,0,0-1.391-.449A1.916,1.916,0,0,0,12.7-6.9a1.949,1.949,0,0,0-.617,1.293V0H10.633V-5.539a1.613,1.613,0,0,0-1.8-1.844A1.934,1.934,0,0,0,6.883-6.172V0H5.438V-8.453Zm19.8,4.32a5.062,5.062,0,0,1-.883,3.109A2.829,2.829,0,0,1,23.336.156,3.1,3.1,0,0,1,20.914-.82V3.25H19.469v-11.7h1.32l.07.938a2.977,2.977,0,0,1,2.453-1.094,2.882,2.882,0,0,1,2.41,1.148,5.117,5.117,0,0,1,.887,3.2ZM25.164-4.3a3.735,3.735,0,0,0-.609-2.258,1.963,1.963,0,0,0-1.672-.828,2.125,2.125,0,0,0-1.969,1.164V-2.18A2.129,2.129,0,0,0,22.9-1.023a1.954,1.954,0,0,0,1.652-.824A4.077,4.077,0,0,0,25.164-4.3Zm8.5,4.3a3.036,3.036,0,0,1-.2-.891A3.225,3.225,0,0,1,31.055.156,2.984,2.984,0,0,1,29-.551a2.287,2.287,0,0,1-.8-1.793,2.39,2.39,0,0,1,1-2.051,4.733,4.733,0,0,1,2.824-.73h1.406v-.664A1.623,1.623,0,0,0,32.984-7a1.821,1.821,0,0,0-1.336-.449,2.108,2.108,0,0,0-1.3.391,1.151,1.151,0,0,0-.523.945H28.375a2,2,0,0,1,.449-1.223,3.066,3.066,0,0,1,1.219-.934,4.1,4.1,0,0,1,1.691-.344,3.342,3.342,0,0,1,2.289.73,2.635,2.635,0,0,1,.859,2.012v3.891a4.757,4.757,0,0,0,.3,1.852V0Zm-2.4-1.1a2.54,2.54,0,0,0,1.289-.352,2.127,2.127,0,0,0,.883-.914V-4.1H32.3q-2.656,0-2.656,1.555A1.316,1.316,0,0,0,30.1-1.484,1.742,1.742,0,0,0,31.266-1.1Zm9.969-6.055a4.331,4.331,0,0,0-.711-.055A1.9,1.9,0,0,0,38.594-6V0H37.148V-8.453h1.406l.023.977a2.251,2.251,0,0,1,2.016-1.133,1.477,1.477,0,0,1,.641.109ZM45.8-1.023a2.082,2.082,0,0,0,1.352-.469A1.649,1.649,0,0,0,47.8-2.664h1.367a2.621,2.621,0,0,1-.5,1.383,3.293,3.293,0,0,1-1.23,1.047A3.55,3.55,0,0,1,45.8.156,3.482,3.482,0,0,1,43.059-1a4.59,4.59,0,0,1-1.02-3.152v-.242a5.089,5.089,0,0,1,.453-2.2,3.451,3.451,0,0,1,1.3-1.492,3.7,3.7,0,0,1,2-.531,3.39,3.39,0,0,1,2.363.852,3.043,3.043,0,0,1,1,2.211H47.8a1.992,1.992,0,0,0-.621-1.348A1.932,1.932,0,0,0,45.8-7.422a2.023,2.023,0,0,0-1.707.793,3.724,3.724,0,0,0-.605,2.293v.273a3.65,3.65,0,0,0,.6,2.25A2.033,2.033,0,0,0,45.8-1.023ZM52.359,0H50.914V-8.453h1.445ZM50.8-10.7a.863.863,0,0,1,.215-.594.807.807,0,0,1,.637-.242.819.819,0,0,1,.641.242.854.854,0,0,1,.219.594.826.826,0,0,1-.219.586.834.834,0,0,1-.641.234.821.821,0,0,1-.637-.234A.834.834,0,0,1,50.8-10.7ZM59.891,0a3.036,3.036,0,0,1-.2-.891A3.225,3.225,0,0,1,57.281.156,2.984,2.984,0,0,1,55.23-.551a2.287,2.287,0,0,1-.8-1.793,2.39,2.39,0,0,1,1-2.051,4.733,4.733,0,0,1,2.824-.73h1.406v-.664A1.623,1.623,0,0,0,59.211-7a1.821,1.821,0,0,0-1.336-.449,2.107,2.107,0,0,0-1.3.391,1.151,1.151,0,0,0-.523.945H54.6a2,2,0,0,1,.449-1.223,3.066,3.066,0,0,1,1.219-.934,4.1,4.1,0,0,1,1.691-.344,3.342,3.342,0,0,1,2.289.73,2.635,2.635,0,0,1,.859,2.012v3.891a4.757,4.757,0,0,0,.3,1.852V0Zm-2.4-1.1a2.54,2.54,0,0,0,1.289-.352,2.127,2.127,0,0,0,.883-.914V-4.1H58.531q-2.656,0-2.656,1.555a1.316,1.316,0,0,0,.453,1.063A1.742,1.742,0,0,0,57.492-1.1ZM64.945,0H63.5V-12h1.445Z" transform="translate(365.224 405.854)" fill="#12263f"/>
  <path id="Trazado_838921" data-name="Trazado 838921" d="M9.18-10.148H5.523V0H4.031V-10.148H.383v-1.227h8.8ZM12.211,0H10.766V-8.453h1.445ZM10.648-10.7a.863.863,0,0,1,.215-.594.807.807,0,0,1,.637-.242.819.819,0,0,1,.641.242.854.854,0,0,1,.219.594.826.826,0,0,1-.219.586.834.834,0,0,1-.641.234.821.821,0,0,1-.637-.234A.834.834,0,0,1,10.648-10.7ZM18.031.156a3.693,3.693,0,0,1-2.8-1.129,4.19,4.19,0,0,1-1.078-3.02v-.266a5.073,5.073,0,0,1,.48-2.246A3.748,3.748,0,0,1,15.98-8.051a3.378,3.378,0,0,1,1.871-.559,3.166,3.166,0,0,1,2.563,1.086,4.7,4.7,0,0,1,.914,3.109v.6H15.6a3,3,0,0,0,.73,2.02,2.3,2.3,0,0,0,1.777.77,2.517,2.517,0,0,0,1.3-.312,3.259,3.259,0,0,0,.93-.828l.883.688A3.55,3.55,0,0,1,18.031.156Zm-.18-7.578a1.928,1.928,0,0,0-1.469.637A3.1,3.1,0,0,0,15.648-5h4.234v-.109a2.753,2.753,0,0,0-.594-1.707A1.815,1.815,0,0,0,17.852-7.422Zm6.508-1.031.039.938a3.122,3.122,0,0,1,2.508-1.094A2.417,2.417,0,0,1,29.32-7.25a3.2,3.2,0,0,1,1.1-.984,3.242,3.242,0,0,1,1.6-.375q2.781,0,2.828,2.945V0H33.4V-5.578a1.941,1.941,0,0,0-.414-1.355,1.823,1.823,0,0,0-1.391-.449,1.916,1.916,0,0,0-1.336.48,1.949,1.949,0,0,0-.617,1.293V0H28.188V-5.539a1.613,1.613,0,0,0-1.8-1.844,1.934,1.934,0,0,0-1.945,1.211V0H22.992V-8.453Zm19.8,4.32a5.062,5.062,0,0,1-.883,3.109A2.829,2.829,0,0,1,40.891.156,3.1,3.1,0,0,1,38.469-.82V3.25H37.023v-11.7h1.32l.07.938a2.977,2.977,0,0,1,2.453-1.094,2.882,2.882,0,0,1,2.41,1.148,5.117,5.117,0,0,1,.887,3.2ZM42.719-4.3a3.735,3.735,0,0,0-.609-2.258,1.963,1.963,0,0,0-1.672-.828,2.125,2.125,0,0,0-1.969,1.164V-2.18a2.129,2.129,0,0,0,1.984,1.156,1.954,1.954,0,0,0,1.652-.824A4.077,4.077,0,0,0,42.719-4.3Zm2.9-.008a4.993,4.993,0,0,1,.488-2.234A3.643,3.643,0,0,1,47.465-8.07a3.7,3.7,0,0,1,1.988-.539,3.565,3.565,0,0,1,2.793,1.2,4.6,4.6,0,0,1,1.066,3.18v.1a5.036,5.036,0,0,1-.473,2.215A3.589,3.589,0,0,1,51.488-.391a3.743,3.743,0,0,1-2.02.547,3.556,3.556,0,0,1-2.785-1.2A4.575,4.575,0,0,1,45.617-4.2Zm1.453.172a3.616,3.616,0,0,0,.652,2.258,2.088,2.088,0,0,0,1.746.852,2.075,2.075,0,0,0,1.75-.863A3.955,3.955,0,0,0,51.867-4.3a3.61,3.61,0,0,0-.66-2.254,2.1,2.1,0,0,0-1.754-.863,2.075,2.075,0,0,0-1.727.852A3.925,3.925,0,0,0,47.07-4.133Z" transform="translate(646.64 360.442)" fill="#12263f"/>
  <path id="Trazado_838925" data-name="Trazado 838925" d="M10.07-5.32A7.037,7.037,0,0,1,9.508-2.4,4.261,4.261,0,0,1,7.914-.5,4.385,4.385,0,0,1,5.508.156,4.347,4.347,0,0,1,3.125-.5,4.363,4.363,0,0,1,1.512-2.387a6.752,6.752,0,0,1-.59-2.832v-.82a6.953,6.953,0,0,1,.57-2.9,4.347,4.347,0,0,1,1.613-1.926,4.329,4.329,0,0,1,2.387-.668,4.41,4.41,0,0,1,2.41.66A4.253,4.253,0,0,1,9.508-8.957a7.071,7.071,0,0,1,.563,2.918ZM8.578-6.055A5.1,5.1,0,0,0,7.766-9.16a2.68,2.68,0,0,0-2.273-1.082A2.651,2.651,0,0,0,3.254-9.16a5,5,0,0,0-.84,3v.836a5.107,5.107,0,0,0,.824,3.082,2.662,2.662,0,0,0,2.27,1.121,2.652,2.652,0,0,0,2.25-1.059,5.079,5.079,0,0,0,.82-3.035Zm7.6-1.1a4.331,4.331,0,0,0-.711-.055A1.9,1.9,0,0,0,13.539-6V0H12.094V-8.453H13.5l.023.977a2.251,2.251,0,0,1,2.016-1.133,1.477,1.477,0,0,1,.641.109ZM17.008-4.3a4.952,4.952,0,0,1,.922-3.129,2.915,2.915,0,0,1,2.414-1.184A2.932,2.932,0,0,1,22.7-7.594V-12h1.445V0H22.813l-.07-.906A2.943,2.943,0,0,1,20.328.156a2.887,2.887,0,0,1-2.395-1.2,5.008,5.008,0,0,1-.926-3.141Zm1.445.164a3.749,3.749,0,0,0,.594,2.25,1.92,1.92,0,0,0,1.641.813A2.108,2.108,0,0,0,22.7-2.3V-6.187a2.125,2.125,0,0,0-1.992-1.2,1.929,1.929,0,0,0-1.656.82A4.128,4.128,0,0,0,18.453-4.133ZM29.891.156a3.693,3.693,0,0,1-2.8-1.129,4.19,4.19,0,0,1-1.078-3.02v-.266A5.073,5.073,0,0,1,26.5-6.5,3.748,3.748,0,0,1,27.84-8.051a3.378,3.378,0,0,1,1.871-.559,3.166,3.166,0,0,1,2.563,1.086,4.7,4.7,0,0,1,.914,3.109v.6H27.461a3,3,0,0,0,.73,2.02,2.3,2.3,0,0,0,1.777.77,2.517,2.517,0,0,0,1.3-.312,3.259,3.259,0,0,0,.93-.828l.883.688A3.55,3.55,0,0,1,29.891.156Zm-.18-7.578a1.928,1.928,0,0,0-1.469.637A3.1,3.1,0,0,0,27.508-5h4.234v-.109a2.753,2.753,0,0,0-.594-1.707A1.815,1.815,0,0,0,29.711-7.422Zm6.516-1.031.047,1.063A3.08,3.08,0,0,1,38.8-8.609q2.68,0,2.7,3.023V0H40.063V-5.594a1.946,1.946,0,0,0-.418-1.352,1.675,1.675,0,0,0-1.277-.437,2.086,2.086,0,0,0-1.234.375,2.546,2.546,0,0,0-.828.984V0H34.859V-8.453Z" transform="translate(651.022 394.468)" fill="#12263f"/>
  <g id="Grupo_1072277" data-name="Grupo 1072277">
    <g id="Grupo_1072276" data-name="Grupo 1072276" clip-path="url(#clip-path)">
      <path id="Trazado_838371" data-name="Trazado 838371" d="M236.184,17.761c11.828,0,23.658-.094,35.486.026,11.323.116,19.522,5.431,24.607,15.506a25.3,25.3,0,0,1,2.537,11.456c.044,12.907.082,25.814-.006,38.719a26.8,26.8,0,0,1-19.073,25.644,20.3,20.3,0,0,1-6.446,1.031c-1.836-.04-1.962.146-2.246,1.938-.464,2.911-.9,5.826-1.351,8.741-.42,2.739-.817,5.482-1.259,8.216a5.393,5.393,0,0,1-7.323,4.214,5.5,5.5,0,0,1-2.931-2.687q-2.8-4.784-5.628-9.556c-1.878-3.183-3.814-6.334-5.61-9.564a2.56,2.56,0,0,0-2.651-1.331q-18.862.036-37.724.016c-3.205,0-6.41.026-9.616-.054a18.589,18.589,0,0,1-6.288-1.473c-8.809-3.439-14.495-9.728-16.815-18.9a28.511,28.511,0,0,1-.819-6.757c-.076-12.545-.044-25.091-.03-37.636a27.451,27.451,0,0,1,2.216-11.263,26.625,26.625,0,0,1,16.23-14.931,27.407,27.407,0,0,1,9.049-1.347q17.847-.015,35.692-.006m-.432,4.763v-.01q-18.081,0-36.16,0a20.75,20.75,0,0,0-11.862,3.6c-6.711,4.559-9.91,10.983-9.9,19.059q.012,19.018.008,38.038a21.833,21.833,0,0,0,15.906,21.46,24.9,24.9,0,0,0,7.367.835q22.108-.015,44.218-.022a4.892,4.892,0,0,1,3.313.935,10.308,10.308,0,0,1,2.178,2.44c3.117,5.173,6.156,10.394,9.223,15.6.791,1.339,1.57,2.687,2.4,4a.979.979,0,0,0,.8.408,1.028,1.028,0,0,0,.553-.727c.292-1.706.521-3.423.783-5.135.629-4.074,1.291-8.142,1.89-12.22a5.834,5.834,0,0,1,5.89-5.309,26.855,26.855,0,0,0,5.019-.633A21.879,21.879,0,0,0,294.028,83.21c-.044-12.7.006-25.4-.014-38.1a24.47,24.47,0,0,0-.771-6.418,21.875,21.875,0,0,0-21.263-16.16q-18.114-.015-36.228,0" transform="translate(173.326 17.761)" fill="#fff"/>
      <path id="Trazado_838372" data-name="Trazado 838372" d="M206.1,61.721H186.228c-2.386,0-3.582-1.113-3.449-3.484a20.18,20.18,0,0,1,8.549-15.86,19.625,19.625,0,0,1,13.159-3.9,20.446,20.446,0,0,1,15.4,8.178,1.085,1.085,0,0,0,1.367.494c2.292-.811,4.677-.633,7.037-.573a11.409,11.409,0,0,1,2.565.563,1.276,1.276,0,0,0,1.542-.527c4.208-5.355,9.768-8.242,16.557-8.134,8.006.128,14.082,3.876,18.038,10.867a19.133,19.133,0,0,1,2.458,9.041,2.95,2.95,0,0,1-3.269,3.329q-9.583,0-19.163,0h-.921c.13.817.26,1.558.366,2.3.112.779.242,1.56.3,2.344a3.093,3.093,0,0,1-3.245,3.476q-17.4,0-34.805,0a3.055,3.055,0,0,1-3.227-3.347c.084-1.277.336-2.545.513-3.816.04-.286.068-.575.114-.959m4.4,3.245h6.352q12.081,0,24.16.012c.649,0,.817-.152.7-.8a14.733,14.733,0,0,0-2.36-5.842c-4.008-5.792-9.856-7.966-16.651-6.647-5.636,1.1-9.455,4.609-11.51,9.984a7.233,7.233,0,0,0-.693,3.293m5.257-15.81c-3.315-4.623-10.432-7.484-17.782-5.009a14.9,14.9,0,0,0-8.27,6.825,13.814,13.814,0,0,0-1.982,5.872h.847q9.577.009,19.153.028a.8.8,0,0,0,.791-.466,17.379,17.379,0,0,1,3.88-4.651c1.1-.895,2.24-1.734,3.363-2.6m48.613,7.652c.649-4.226-4.9-11.075-10.412-12.767-7.323-2.252-14.242.525-17.568,5.2a20.829,20.829,0,0,1,7.4,7.261,1.061,1.061,0,0,0,.789.34q9.643.027,19.283.012a5.126,5.126,0,0,0,.51-.05" transform="translate(183.137 38.514)" fill="#fff"/>
      <path id="Trazado_838373" data-name="Trazado 838373" d="M188.379,36.974a9.395,9.395,0,1,1,9.508,9.456,9.556,9.556,0,0,1-9.508-9.456m13.99.086a4.459,4.459,0,0,0-4.346-4.633,4.628,4.628,0,1,0-.214,9.247,4.514,4.514,0,0,0,4.561-4.615" transform="translate(188.758 27.655)" fill="#fff"/>
      <path id="Trazado_838374" data-name="Trazado 838374" d="M220.463,27.606a9.4,9.4,0,1,1-9.4,9.323,9.426,9.426,0,0,1,9.4-9.323m-4.553,9.347a4.486,4.486,0,0,0,4.569,4.721,4.649,4.649,0,0,0,4.645-4.733,4.523,4.523,0,0,0-4.388-4.5c-2.955-.014-4.825,1.736-4.825,4.509" transform="translate(211.489 27.66)" fill="#fff"/>
      <path id="Trazado_838375" data-name="Trazado 838375" d="M209.145,31.655a9.36,9.36,0,1,1-9.423,9.273,9.332,9.332,0,0,1,9.423-9.273m.02,4.755a4.613,4.613,0,0,0-4.679,4.4,4.7,4.7,0,0,0,4.767,4.843,4.779,4.779,0,0,0,4.527-4.759c-.014-2.006-2.116-4.753-4.615-4.481" transform="translate(200.122 31.718)" fill="#fff"/>
      <path id="Trazado_838376" data-name="Trazado 838376" d="M104.607,116.771c-.092-1.251-.2-2.424-.262-3.6a10.592,10.592,0,0,1,1.457-6.07c1.093-1.87,2.164-3.752,3.243-5.63.136-.238.27-.476.468-.831h-1.952c-2.026,0-4.054.014-6.08-.01a4.4,4.4,0,0,1-1.5-.224,1.625,1.625,0,0,1-1.043-1.914,1.724,1.724,0,0,1,1.536-1.311,3.987,3.987,0,0,1,.577-.054c3.313.012,6.629.032,9.942.032a.84.84,0,0,0,.631-.238c.727-1.205,1.411-2.434,2.1-3.66.014-.024,0-.068-.01-.184h-.593q-11.475,0-22.949-.016a1.811,1.811,0,0,1-1.049-.358,1.47,1.47,0,0,1-.681-1.688A1.838,1.838,0,0,1,90.182,89.7c.6-.026,1.2-.008,1.8-.008q11.658,0,23.319.008a.8.8,0,0,0,.827-.474c.565-1.055,1.185-2.08,1.78-3.119.06-.1.1-.214.2-.418h-.617c-3.277,0-6.557,0-9.836-.008a3.654,3.654,0,0,1-1.039-.15,1.661,1.661,0,0,1-1.185-1.786,1.608,1.608,0,0,1,1.54-1.471,7.443,7.443,0,0,1,.791-.036q5.922.006,11.844.022a.725.725,0,0,0,.717-.41q3.468-5.988,6.959-11.96c1.1-1.888,2.184-3.782,3.293-5.662a3.585,3.585,0,0,0,.513-1.9q-.045-13.619-.054-27.237a9.481,9.481,0,0,1,.032-1.371,1.622,1.622,0,0,1,1.738-1.487,1.7,1.7,0,0,1,1.638,1.564,8.807,8.807,0,0,1,.04,1q-.018,11.186-.04,22.372a3.4,3.4,0,0,0,.048.368,1.808,1.808,0,0,1,2.334.024c2.374,1.415,4.785,2.771,7.179,4.152a3.824,3.824,0,0,1,.577.37,1.581,1.581,0,0,1,.527,2.278c-1.816,3.079-3.58,6.188-5.363,9.285-1.62,2.8-3.233,5.614-4.867,8.412a3.3,3.3,0,0,0-.446,1.8c.048,3.313.05,6.629.052,9.942.006,6.665.014,13.329-.016,19.992a8.6,8.6,0,0,1-.366,2.651,5.448,5.448,0,0,1-5.353,3.72c-.1,0-.21,0-.316,0H51.431a6.347,6.347,0,0,1-3.4-.8,5.61,5.61,0,0,1-2.789-4.879c-.094-3.524-.034-7.051-.02-10.577a1.98,1.98,0,0,1,1.219-1.938,1.623,1.623,0,0,1,2.274,1.373c.026.332.018.669.016,1q-.012,5.027-.03,10.05a2.166,2.166,0,0,0,2.388,2.388l52.825-.008h.691M128.34,74.849c-.1.078-.134.094-.15.122q-2.159,3.754-4.312,7.51-7.49,12.994-15,25.978a8.292,8.292,0,0,0-1.145,5.209c.082.745.17,1.49.264,2.314.761-.332,1.447-.631,2.134-.929a8,8,0,0,0,3.844-3.481c1.385-2.432,2.8-4.849,4.2-7.273.8-1.387,1.576-2.791,2.408-4.158a1.6,1.6,0,0,1,2.258-.683,1.663,1.663,0,0,1,.623,2.37c-.12.236-.256.462-.388.691-1.742,3.019-3.512,6.024-5.221,9.061a16.924,16.924,0,0,1-3.84,5.055c-.012.01.008.06.018.114.132.008.268.02.406.02q7.189.006,14.38.006a2.034,2.034,0,0,0,.669-.106c1.151-.408,1.57-1.107,1.57-2.509q0-11.688.01-23.373V88.976a3.333,3.333,0,0,0-.623.8c-.877,1.508-1.742,3.021-2.627,4.523a4.247,4.247,0,0,1-.695.921,1.667,1.667,0,0,1-2.438-2.21q3.952-6.865,7.918-13.724c.278-.482.551-.969.853-1.5l-5.117-2.937m10.489-6.442c.108-.148.22-.278.306-.424.675-1.171,1.333-2.352,2.026-3.514.2-.33.138-.474-.182-.649-1-.547-1.988-1.121-2.979-1.688-.589-.336-1.175-.677-1.782-1.027-.849,1.469-1.668,2.893-2.509,4.35l5.119,2.951m-1.654,2.941c-1.708-.993-3.4-1.978-5.139-2.993-.631,1.1-1.223,2.13-1.816,3.163-.184.324-.046.517.246.681.889.5,1.772,1.009,2.655,1.52.679.392,1.353.793,2.03,1.189.671-1.181,1.319-2.32,2.024-3.56" transform="translate(45.282 32.288)" fill="#fff"/>
      <path id="Trazado_838377" data-name="Trazado 838377" d="M48.718,66.656v38.03c0,1.868,0,3.738-.016,5.606a1.672,1.672,0,0,1-1.658,1.9,1.92,1.92,0,0,1-1.84-1.93c0-.106,0-.212,0-.318q0-43.4.01-86.8a5.636,5.636,0,0,1,4.549-5.816,9.694,9.694,0,0,1,1.736-.15q38.5-.009,76.991,0a5.524,5.524,0,0,1,5.81,4.45,7.926,7.926,0,0,1,.156,1.628q.012,8.727,0,17.454a1.736,1.736,0,0,1-.531,1.433,1.615,1.615,0,0,1-1.7.43,1.6,1.6,0,0,1-1.151-1.5c-.038-1.461-.04-2.925-.038-4.388,0-4.3.018-8.6.02-12.9a12.607,12.607,0,0,0-.074-1.317,2.065,2.065,0,0,0-2.088-1.9c-.142,0-.282,0-.424,0H51.213c-1.744,0-2.555.859-2.551,2.617q.033,15.655.048,31.311.006,6.081,0,12.164Z" transform="translate(45.294 17.21)" fill="#fff"/>
      <path id="Trazado_838378" data-name="Trazado 838378" d="M49.81,68.7c0-2.645.042-5.287-.012-7.93a5.263,5.263,0,0,1,5.534-5.435c3.736.018,7.472-.006,11.205,0,1.814.006,3.636-.06,5.437.1a5.089,5.089,0,0,1,4.6,5.135c.038,5.355.012,10.713.012,16.07a5.255,5.255,0,0,1-5.391,5.427c-4.687.014-9.371,0-14.058,0-.741,0-1.479.006-2.22,0a5.108,5.108,0,0,1-5.089-4.917c-.05-1.407-.038-2.819-.044-4.228s0-2.819,0-4.228Zm3.5-.028h-.044c0,2.749.016,5.5-.008,8.248-.008,1.069.42,1.638,1.494,1.684.983.044,1.972.008,2.957.008q6.769,0,13.534-.006c1.217,0,1.838-.6,1.84-1.754q.012-8.063.006-16.126c0-1.439-.523-1.928-1.952-1.928q-7.691,0-15.383,0c-.316,0-.635-.006-.951.01a1.489,1.489,0,0,0-1.491,1.56v8.3" transform="translate(49.878 55.444)" fill="#fff"/>
      <path id="Trazado_838379" data-name="Trazado 838379" d="M49.8,37.966c0-2.733-.054-5.465.016-8.194a5.081,5.081,0,0,1,5.349-5.137c5.355-.006,10.713.008,16.068-.006a5.268,5.268,0,0,1,5.339,5.377q.042,8.036,0,16.072A5.167,5.167,0,0,1,71.822,51.3c-1.1.09-2.216.068-3.325.07q-6.607.006-13.213-.006a5.235,5.235,0,0,1-4.833-2.677,5.475,5.475,0,0,1-.673-2.843q.006-3.937,0-7.876Zm3.5-.118h0c0,2.873-.014,5.748.02,8.621a1.747,1.747,0,0,0,.422.963,1.632,1.632,0,0,0,1.4.476q8.036,0,16.074,0c1.341,0,1.838-.5,1.874-1.846,0-.176.006-.354.006-.531q-.006-5.949-.012-11.9c0-1.357.022-2.715,0-4.072A1.427,1.427,0,0,0,71.71,28.1a8.959,8.959,0,0,0-.9-.038q-7.219.018-14.437.038c-.615,0-1.235-.026-1.848.024A1.285,1.285,0,0,0,53.3,29.492v8.356" transform="translate(49.878 24.679)" fill="#fff"/>
      <path id="Trazado_838380" data-name="Trazado 838380" d="M63.213,40.013c2.661,0,5.325.072,7.982-.018a5.32,5.32,0,0,1,5.391,5.421c-.03,5.305-.01,10.611-.01,15.916a5.161,5.161,0,0,1-5.141,5.327q-8.351.069-16.7,0a4.937,4.937,0,0,1-4.909-4.9q-.072-8.405.006-16.813a4.922,4.922,0,0,1,4.981-4.921c2.8-.048,5.6-.01,8.4-.01ZM53.3,53.272H53.25q0,4.282,0,8.565a1.461,1.461,0,0,0,1.061,1.347,3.61,3.61,0,0,0,1.041.1c5.233.006,10.467,0,15.7.01,1.459,0,2.066-.567,2.062-2.022q-.018-6.159-.032-12.318c0-1.3.046-2.607.01-3.91A1.548,1.548,0,0,0,71.323,43.4H57.317c-.829,0-1.658-.01-2.485,0a1.508,1.508,0,0,0-1.53,1.568q0,4.15,0,8.3" transform="translate(49.885 40.072)" fill="#fff"/>
      <path id="Trazado_838381" data-name="Trazado 838381" d="M82.195,30.216c4.318,0,8.635-.008,12.953.01a3.476,3.476,0,0,1,1.423.262,1.648,1.648,0,0,1,.851,1.732,2.114,2.114,0,0,1-1.788,1.506c-.122.012-.248.008-.37.008q-13.165,0-26.328-.014a2.951,2.951,0,0,1-1.291-.37,1.738,1.738,0,0,1-.861-1.688,2.027,2.027,0,0,1,1.562-1.409,7.882,7.882,0,0,1,.9-.03q6.478,0,12.953,0Z" transform="translate(66.893 30.275)" fill="#fff"/>
      <path id="Trazado_838382" data-name="Trazado 838382" d="M82.2,45.558q6.288,0,12.579,0a8.6,8.6,0,0,1,1.157.08,1.766,1.766,0,0,1,1.524,1.632,1.717,1.717,0,0,1-1.492,1.654,7.054,7.054,0,0,1-1.105.09q-12.79,0-25.58-.014a4.974,4.974,0,0,1-1.251-.158,1.73,1.73,0,0,1-1.269-1.564A1.809,1.809,0,0,1,68.2,45.67a7.4,7.4,0,0,1,1.263-.1q6.366-.009,12.737,0Z" transform="translate(66.893 45.649)" fill="#fff"/>
      <path id="Trazado_838383" data-name="Trazado 838383" d="M85.292,41.863H92.9c.158,0,.316,0,.474.006a1.571,1.571,0,0,1,1.748,1.73,1.856,1.856,0,0,1-1.838,1.736c-.969.012-1.938,0-2.907,0q-6.58,0-13.159,0a1.829,1.829,0,0,1-1.888-2.184,1.7,1.7,0,0,1,1.872-1.289q4.042,0,8.086,0Z" transform="translate(75.438 41.945)" fill="#fff"/>
      <path id="Trazado_838384" data-name="Trazado 838384" d="M85.2,29.9c-2.661,0-5.319,0-7.98,0a1.712,1.712,0,0,1-1.866-2.15,1.89,1.89,0,0,1,1.874-1.269q5.153,0,10.306,0c1.92,0,3.84-.006,5.76,0a1.766,1.766,0,0,1,1.79,2.234A1.5,1.5,0,0,1,93.549,29.9c-1.427.012-2.855,0-4.28,0H85.2Z" transform="translate(75.434 26.527)" fill="#fff"/>
      <path id="Trazado_838385" data-name="Trazado 838385" d="M78.237,33.935c1.357,0,2.713-.014,4.07.006a2.078,2.078,0,0,1,1.62.5,1.654,1.654,0,0,1,.462,1.65A1.6,1.6,0,0,1,83,37.293a7.9,7.9,0,0,1-1.211.09c-2.43.01-4.861.018-7.291,0a5.074,5.074,0,0,1-1.3-.18,1.514,1.514,0,0,1-1.161-1.762,1.556,1.556,0,0,1,1.345-1.413,6.149,6.149,0,0,1,1-.086c1.285-.01,2.573,0,3.858,0Z" transform="translate(72.178 33.999)" fill="#fff"/>
      <path id="Trazado_838386" data-name="Trazado 838386" d="M73,41.864c1.373,0,2.747-.008,4.118,0a1.741,1.741,0,0,1,1.91,1.674,1.893,1.893,0,0,1-1.968,1.8c-2.763.008-5.528.024-8.29-.018a2.5,2.5,0,0,1-1.3-.478,1.419,1.419,0,0,1-.663-1.556,1.706,1.706,0,0,1,1.441-1.369c.663-.07,1.335-.042,2-.046.917-.006,1.832,0,2.747,0Z" transform="translate(66.893 41.945)" fill="#fff"/>
      <path id="Trazado_838387" data-name="Trazado 838387" d="M72.818,60.635c-1.3,0-2.607.014-3.908,0A1.938,1.938,0,0,1,66.93,59.6a1.587,1.587,0,0,1,.817-2.144,4.784,4.784,0,0,1,1.5-.252q3.724-.039,7.447-.006a4.45,4.45,0,0,1,1.291.222A1.562,1.562,0,0,1,79,58.943a1.521,1.521,0,0,1-1.035,1.493,4.876,4.876,0,0,1-1.3.194c-1.285.024-2.571.008-3.856.008Z" transform="translate(66.916 57.302)" fill="#fff"/>
      <path id="Trazado_838388" data-name="Trazado 838388" d="M78.289,52.705c-1.5,0-2.995.014-4.493,0a1.643,1.643,0,0,1-1.76-1.8,1.705,1.705,0,0,1,1.678-1.58c.755-.036,1.514-.024,2.272-.026,2.008-.006,4.016-.014,6.026-.006a4.619,4.619,0,0,1,1.2.13,1.621,1.621,0,0,1,1.217,1.846,1.676,1.676,0,0,1-1.7,1.435c-1.479.01-2.961,0-4.44,0" transform="translate(72.181 49.387)" fill="#fff"/>
      <path id="Trazado_838389" data-name="Trazado 838389" d="M72.938,29.9c-1.407,0-2.815,0-4.224,0a1.93,1.93,0,0,1-1.954-1.66,1.9,1.9,0,0,1,1.964-1.754c2.34-.012,4.681,0,7.021,0,.511,0,1.021-.014,1.532.006a1.825,1.825,0,0,1,1.674,1.3,1.57,1.57,0,0,1-.7,1.828,1.958,1.958,0,0,1-.987.27c-1.441.03-2.885.012-4.328.014" transform="translate(66.894 26.526)" fill="#fff"/>
      <path id="Trazado_838390" data-name="Trazado 838390" d="M69.672,68.156c-.4-.018-.809-.016-1.209-.058a1.7,1.7,0,0,1-.016-3.4,18.288,18.288,0,0,1,2.523,0,1.887,1.887,0,0,1,1.6,1.7,1.938,1.938,0,0,1-1.686,1.7c-.4.036-.807.006-1.211.006v.058" transform="translate(66.893 64.782)" fill="#fff"/>
      <path id="Trazado_838391" data-name="Trazado 838391" d="M69.6,33.921c.48.034.919.062,1.357.094a1.515,1.515,0,0,1,1.305.847,1.549,1.549,0,0,1-.9,2.35,6.418,6.418,0,0,1-3.441-.024,1.7,1.7,0,0,1-1.151-1.606,1.782,1.782,0,0,1,1.4-1.532c.484-.08.979-.092,1.433-.13" transform="translate(66.893 33.989)" fill="#fff"/>
      <path id="Trazado_838392" data-name="Trazado 838392" d="M69.572,52.7a5.6,5.6,0,0,1-1.053-.014,2.47,2.47,0,0,1-1.047-.4,1.466,1.466,0,0,1-.655-1.6,1.738,1.738,0,0,1,1.588-1.343,17.627,17.627,0,0,1,2.476-.006,1.731,1.731,0,0,1,1.58,1.271,1.385,1.385,0,0,1-.466,1.564,2.828,2.828,0,0,1-1.265.521,5.437,5.437,0,0,1-1.157.016" transform="translate(66.895 49.389)" fill="#fff"/>
      <path id="Trazado_838393" data-name="Trazado 838393" d="M65.822,61.311a2.471,2.471,0,0,1-.815,1.576q-2.6,2.625-5.221,5.239a2.091,2.091,0,0,1-1.734.855,1.994,1.994,0,0,1-1.019-.48q-1.5-1.411-2.923-2.907a1.665,1.665,0,0,1,.555-2.847,1.011,1.011,0,0,1,1.143.038c.6.48,1.183.989,1.744,1.52.633.6.621.615,1.213.016,1.291-1.3,2.575-2.607,3.872-3.9.933-.931,1.946-.963,2.7-.062a4.7,4.7,0,0,1,.484.955" transform="translate(53.634 59.82)" fill="#fff"/>
      <path id="Trazado_838394" data-name="Trazado 838394" d="M58.057,34.293c.3-.274.448-.4.585-.531q2.117-2.108,4.232-4.218a1.542,1.542,0,0,1,1.87-.4,1.6,1.6,0,0,1,.977,1.756,1.557,1.557,0,0,1-.382.839c-1.952,2.008-3.914,4.01-5.906,5.978a1.542,1.542,0,0,1-2.322.142c-1.1-.985-2.154-2.03-3.151-3.119a1.608,1.608,0,0,1,.128-2.33,1.687,1.687,0,0,1,2.2-.108c.484.434.933.911,1.377,1.387a3.939,3.939,0,0,1,.388.609" transform="translate(53.625 29.035)" fill="#fff"/>
      <path id="Trazado_838395" data-name="Trazado 838395" d="M65.855,46.056a4.459,4.459,0,0,1-.567,1.077q-2.97,3.039-6,6.022a1.537,1.537,0,0,1-2.192.028q-1.607-1.529-3.147-3.125A1.614,1.614,0,0,1,54,47.814a1.666,1.666,0,0,1,2.294-.082c.533.486,1.051.991,1.554,1.508.246.252.39.222.633-.024q2.123-2.171,4.284-4.3a1.694,1.694,0,0,1,2.529-.012,5.046,5.046,0,0,1,.561,1.155" transform="translate(53.629 44.43)" fill="#fff"/>
      <path id="Trazado_838396" data-name="Trazado 838396" d="M382.216,109.623c-4.292,6.523-10.206,10.4-17.938,11.3a22.812,22.812,0,0,1-17.514-5.2,23.652,23.652,0,0,1-3.283-33.87,23.006,23.006,0,0,1,19.249-8.525c7.748.288,13.866,3.862,18.665,9.946V82.48c-.01-4.15-.034-8.3-.024-12.451a5.213,5.213,0,0,1,2.577-4.717,5.355,5.355,0,0,1,2.839-.811c2.547,0,5.091-.044,7.638-.014.5.006.549-.174.549-.559q-.006-4.9,0-9.808,0-12.216,0-24.433c0-.41,0-.823.024-1.233a1.841,1.841,0,0,1,1.678-1.746,1.731,1.731,0,0,1,2,1.323,4.4,4.4,0,0,1,.132,1.157q.006,17.418-.014,34.831c0,.454.2.448.529.448,7.207,0,14.412.02,21.62.016a5.894,5.894,0,0,1,4.064,1.387,5.534,5.534,0,0,1,1.828,4.174c.014.372.006.745.006,1.115q0,17.535,0,35.065a5.325,5.325,0,0,1-2.8,5.119,5.1,5.1,0,0,1-2.11.641c-2.326.08-4.659.05-6.987.024a1.989,1.989,0,0,1-1.778-1.4,1.782,1.782,0,0,1,.721-1.962,2.747,2.747,0,0,1,1.319-.38c2.054-.038,4.11-.016,6.168-.016a1.613,1.613,0,0,0,1.7-1.724q0-3.994,0-7.988,0-13.979,0-27.958a3.288,3.288,0,0,0-.106-.983,1.6,1.6,0,0,0-1.516-1.253c-.41-.02-.823-.03-1.233-.03q-16.628,0-33.251,0c-1.251,0-1.842.535-1.862,1.8-.022,1.407.044,2.817.046,4.226,0,4.5-.03,9.007-.006,13.51a5.347,5.347,0,0,1-1.4,3.736c-2.278,2.609-4.49,5.277-6.729,7.922a3.744,3.744,0,0,0-.216.336c.316,0,.541,0,.767,0,1.311-.008,2.625-.06,3.936-.016a3.548,3.548,0,0,1,3.518,3.279c.1,1.067.046,2.15.094,3.225a2.839,2.839,0,0,0,.224,1.069,1.45,1.45,0,0,0,1.445.871c6.364-.026,12.729-.018,19.093-.02a2.056,2.056,0,0,1,2.124,1.826,2.015,2.015,0,0,1-2.024,1.956c-2.192.04-4.386.03-6.579-.01-.545-.01-.641.15-.637.655.02,3.5.134,7.013-.024,10.511a9.289,9.289,0,0,1-8.655,8.933c-.607.034-1.211.094-1.816.094q-27.436.009-54.871,0a9.582,9.582,0,0,1-8.458-4.306,8.533,8.533,0,0,1-1.508-4.859q0-16.063,0-32.126a1.734,1.734,0,0,1,1.764-1.856,1.875,1.875,0,0,1,1.988,1.74,6.333,6.333,0,0,1,.01.647c0,10.414.024,20.831-.012,31.245A5.623,5.623,0,0,0,333,128.458q27.673.006,55.342-.014a10.664,10.664,0,0,0,2.885-.36,5.409,5.409,0,0,0,3.772-5.125c0-3.465-.022-6.929-.018-10.394,0-.422-.124-.509-.541-.5q-3.79.024-7.578-.018a5.489,5.489,0,0,1-4.643-2.418m-1.389-5.95c-1.708,0-3.309.038-4.907-.01a3.319,3.319,0,0,1-3.1-2.064,3.163,3.163,0,0,1,.509-3.461c.356-.444.721-.879,1.087-1.313,1.94-2.306,3.888-4.607,5.816-6.923a.708.708,0,0,0,.148-.6,32.216,32.216,0,0,0-2.122-3.71,19.487,19.487,0,0,0-14.443-8.384,18.918,18.918,0,0,0-8.623.931c-7.89,3.019-12.462,8.691-13.445,17.137a19,19,0,0,0,2.7,12.2c.715,1.2,1.612,2.284,2.426,3.421l.188-.088c.058-.2.122-.4.176-.6a7.44,7.44,0,0,1,4.773-5.325,37.946,37.946,0,0,1,3.772-1.081c.386-.1.569-.264.543-.683-.032-.486.026-.981-.02-1.465a1.05,1.05,0,0,0-.316-.623A11.459,11.459,0,0,1,352.88,96.9a11.257,11.257,0,0,1-.793-3.942,15.981,15.981,0,0,1,.348-5.538A9.385,9.385,0,0,1,359.9,80.57a9.206,9.206,0,0,1,9.263,3.255,8.291,8.291,0,0,1,2.246,5.708c-.034,1.644-.014,3.287-.038,4.933a3.442,3.442,0,0,1-.158.919,9.655,9.655,0,0,1-2.9,4.877,2.864,2.864,0,0,0-1.123,2.883.28.28,0,0,1,0,.058c-.05.346.14.492.444.571.777.2,1.546.426,2.324.609a8.013,8.013,0,0,1,6.368,5.814c.056.192.148.372.262.657a19.287,19.287,0,0,0,4.232-7.179m-19,13.6a19.74,19.74,0,0,0,9.9-2.555c.763-.406,1.2-.875,1.033-1.782a5.357,5.357,0,0,1,0-.879,3.8,3.8,0,0,0-2.729-3.75,16.188,16.188,0,0,1-1.554-.509.87.87,0,0,0-1.123.256,7.269,7.269,0,0,1-6.865,2.446,7.175,7.175,0,0,1-4.256-2.412.882.882,0,0,0-1.175-.278,5.523,5.523,0,0,1-1.211.428,3.4,3.4,0,0,0-2.789,2.464,17.955,17.955,0,0,0-.358,2.537,1.149,1.149,0,0,0,.7,1.223,19.948,19.948,0,0,0,10.428,2.809m5.79-25.792h-.056a18.52,18.52,0,0,0-.022-2.751,5.793,5.793,0,0,0-4.959-4.573c-3.1-.216-5.6,1.315-6.452,3.962a3.019,3.019,0,0,0-.212.849,32.512,32.512,0,0,0,.04,5.093c.434,2.9,2.414,4.581,5.1,5.492a2.08,2.08,0,0,0,1.035.1c2.563-.535,5.648-3.011,5.53-6.406-.02-.587,0-1.175,0-1.762m-7.509,11.862a3.59,3.59,0,0,1-.545,2.482c-.048.06.112.386.25.482a4.226,4.226,0,0,0,3.932.038c.288-.18.264-.35.15-.631a7.038,7.038,0,0,1-.384-1.275,9.845,9.845,0,0,1-.12-1.1Z" transform="translate(324.088 26.748)" fill="#fff"/>
      <path id="Trazado_838397" data-name="Trazado 838397" d="M341.05,23.786h8.426a5.258,5.258,0,0,1,5.319,5.085c.07,2.132.046,4.266.05,6.4.006,3.107,0,6.212,0,9.355,6.575-9.385,15.289-13.76,26.773-11.035a22.757,22.757,0,0,1,14.409,10.639,23.618,23.618,0,0,1-5.383,31.015,22.7,22.7,0,0,1-19.758,4.829A24.11,24.11,0,0,1,354.5,67.882c-.092.086-.162.124-.194.184A5.311,5.311,0,0,1,349.27,71.1c-2.7.01-5.4,0-8.188,0v.683q0,11.333,0,22.671a2.112,2.112,0,0,1-.783,1.868,1.865,1.865,0,0,1-2.977-1.351,5.744,5.744,0,0,1-.008-.587V71.136c-.274-.012-.5-.032-.729-.032q-10.574,0-21.149,0a5.479,5.479,0,0,1-5.852-5.942q0-15.889,0-31.776c0-1.662-.038-3.333.122-4.983a5.245,5.245,0,0,1,5.221-4.619q2.261,0,4.523,0a1.874,1.874,0,0,1,1.854,1.814,1.782,1.782,0,0,1-1.566,1.946c-1.167.082-2.344.028-3.52.034-.431,0-.863-.022-1.291.006a1.511,1.511,0,0,0-1.586,1.7V65c0,.234,0,.47,0,.7a1.378,1.378,0,0,0,1.417,1.518c.8.038,1.6,0,2.406,0q15.8,0,31.608,0a7.637,7.637,0,0,0,1.285-.1,1.035,1.035,0,0,0,.879-1.081c.008-.959,0-1.918,0-2.877a3.809,3.809,0,0,1,4.11-4.146c1.425-.012,2.851,0,4.394,0-.362-.446-.655-.823-.961-1.185-1.986-2.346-3.952-4.709-5.966-7.029a6.064,6.064,0,0,1-1.6-4.262c.064-5.834.024-11.668.024-17.5a1.241,1.241,0,0,0-1.241-1.391,11.756,11.756,0,0,0-1.405-.068q-9.664.009-19.327.026c-1.383,0-2.046-.382-2.37-1.377a1.921,1.921,0,0,1,1.748-2.44c2.743-.008,5.483,0,8.226,0h.691c.044-.575.074-1.133.134-1.688a9.278,9.278,0,0,1,7.544-7.944,17.254,17.254,0,0,1,2.687-.226q27.466-.021,54.931-.01a9.681,9.681,0,0,1,8.152,3.768,8.773,8.773,0,0,1,1.9,5.209c.082,3.051.06,6.106.066,9.159a2.091,2.091,0,0,1-.869,1.89,1.855,1.855,0,0,1-2.925-1.457c-.056-1.524-.028-3.053-.028-4.579,0-1.508-.014-3.017.03-4.523A5.61,5.61,0,0,0,403.3,17.7c-2.857-.076-5.718-.016-8.579-.016q-23.94,0-47.88,0a5.622,5.622,0,0,0-5.692,4.615,11.787,11.787,0,0,0-.1,1.489m49.442,46.707a2.009,2.009,0,0,1,.18-.376A20.218,20.218,0,0,0,392.678,45.9a20,20,0,0,0-21.43-8.841,19.331,19.331,0,0,0-10.723,6.326,19.958,19.958,0,0,0-3.76,6.242.726.726,0,0,0,.15.6c1.267,1.518,2.559,3.015,3.832,4.525.771.913,1.586,1.794,2.272,2.765a3.293,3.293,0,0,1-2.24,5.157c-1.067.1-2.146.086-3.221.116-.34.01-.683,0-1.029,0,.156,1.748,2.757,6.208,4.4,7.606.072-.238.15-.456.206-.679a7.333,7.333,0,0,1,4.5-5.207,16.789,16.789,0,0,1,2.631-.787c1.93-.452,1.924-.432,1.94-2.326a1.259,1.259,0,0,0-.422-.951,17.789,17.789,0,0,1-2.37-2.807c-1.934-3.191-1.884-6.751-1.179-10.2a9.006,9.006,0,0,1,7.612-7.371,9.227,9.227,0,0,1,9.638,3.82,8.147,8.147,0,0,1,1.8,5.159c-.036,1.644-.018,3.287-.034,4.931a2.547,2.547,0,0,1-.1.635,9.876,9.876,0,0,1-2.911,5.127,3.021,3.021,0,0,0-1.207,2.837c.044.374.126.561.484.663,1.183.336,2.368.673,3.54,1.051a7.318,7.318,0,0,1,4.7,4.27c.234.557.426,1.129.725,1.928m-8.927-3.329a7.046,7.046,0,0,1-3.878,2.673,7.414,7.414,0,0,1-7.752-2.37.675.675,0,0,0-.541-.192,20.208,20.208,0,0,0-2.084.581A3.457,3.457,0,0,0,364.83,70.5a16.291,16.291,0,0,0-.228,2.615.849.849,0,0,0,.362.631,20.009,20.009,0,0,0,20.184.709c1.53-.763,1.52-.785,1.492-2.46,0-.1,0-.2,0-.294a3.8,3.8,0,0,0-3.051-3.98c-.653-.194-1.311-.362-2.02-.559M381.5,51.022h-.036a14.844,14.844,0,0,0-.026-2.637,5.619,5.619,0,0,0-4.332-4.569,5.922,5.922,0,0,0-7.211,4.32,12.487,12.487,0,0,0-.134,2.39,17.6,17.6,0,0,0,.076,3.1c.481,2.813,2.364,4.47,4.921,5.389a3.267,3.267,0,0,0,2.1-.1,8.985,8.985,0,0,0,2.394-1.443,5.744,5.744,0,0,0,2.254-4.753c-.01-.569,0-1.135,0-1.7m-7.524,11.844a3.589,3.589,0,0,1-.527,2.5c-.05.07.106.414.232.464a7.268,7.268,0,0,0,1.67.511,3.867,3.867,0,0,0,2.466-.613c-.23-1.043-.434-1.96-.635-2.863Z" transform="translate(310.209 13.946)" fill="#fff"/>
      <path id="Trazado_838398" data-name="Trazado 838398" d="M370.116,55.046q-5.312,0-10.627,0a1.954,1.954,0,0,1-2.1-1.844,1.867,1.867,0,0,1,1.91-1.962c.428-.032.861-.032,1.291-.032q9.862-.009,19.728-.016a2.369,2.369,0,0,1,1.942.631c.448.5.885,1.059.544,1.784a2.042,2.042,0,0,1-1.882,1.439q-3.787,0-7.574,0h-3.229" transform="translate(358.104 51.295)" fill="#fff"/>
      <path id="Trazado_838399" data-name="Trazado 838399" d="M370.159,56.5q4.844,0,9.69,0c.372,0,.745.02,1.115.046a2.281,2.281,0,0,1,1.98,1.8,2.269,2.269,0,0,1-1.756,1.952,8.2,8.2,0,0,1-1.4.11q-9.631.009-19.263,0a10.6,10.6,0,0,1-1.4-.1,1.98,1.98,0,0,1-1.738-1.914,1.89,1.89,0,0,1,1.854-1.844c2.31-.052,4.621-.044,6.929-.056,1.331-.006,2.663,0,3.994,0Z" transform="translate(358.101 56.605)" fill="#fff"/>
      <path id="Trazado_838400" data-name="Trazado 838400" d="M327.263,29.711q4.934,0,9.87,0a6.9,6.9,0,0,1,1.167.088,1.721,1.721,0,0,1,1.6,1.662,1.692,1.692,0,0,1-1.481,1.93,4.48,4.48,0,0,1-1.045.124q-9.988,0-19.974-.016a6.176,6.176,0,0,1-1.509-.176,1.9,1.9,0,0,1-1.369-1.718,2,2,0,0,1,1.534-1.784,6.886,6.886,0,0,1,1.283-.11q4.964-.012,9.928,0" transform="translate(315.15 29.769)" fill="#fff"/>
      <path id="Trazado_838401" data-name="Trazado 838401" d="M327.2,24.458c3.445,0,6.891-.012,10.338.012a3.225,3.225,0,0,1,1.457.3,1.807,1.807,0,0,1,.829,2.078,2.12,2.12,0,0,1-1.836,1.425c-.1,0-.194,0-.292,0q-10.457,0-20.911.006a2.2,2.2,0,0,1-2.04-1.139,1.842,1.842,0,0,1,1.355-2.625c.779-.066,1.566-.052,2.348-.054q4.375-.009,8.751,0Z" transform="translate(315.177 24.504)" fill="#fff"/>
      <path id="Trazado_838402" data-name="Trazado 838402" d="M345.264,21.586q-2.934,0-5.868,0a2.242,2.242,0,0,1-1.748-.665c-1.011-1.075-.585-2.122.4-2.819a2.329,2.329,0,0,1,1.267-.35c4.01-.028,8.02-.026,12.028-.016a1.964,1.964,0,0,1,2.028,2.615A1.726,1.726,0,0,1,352,21.5a10.6,10.6,0,0,1-1.636.1c-1.7.012-3.4,0-5.1,0Z" transform="translate(337.747 17.765)" fill="#fff"/>
      <path id="Trazado_838403" data-name="Trazado 838403" d="M370.107,61.8q2.465,0,4.929,0a2.169,2.169,0,0,1,2.13,1.734c.162.825-.8,1.922-1.812,2.03a14.859,14.859,0,0,1-1.524.054q-3.844.012-7.688.01c-.429,0-.861-.018-1.287-.062a1.841,1.841,0,0,1-1.74-2.032A1.87,1.87,0,0,1,365,61.81c1.7-.022,3.4-.006,5.105-.006Z" transform="translate(363.844 61.923)" fill="#fff"/>
      <path id="Trazado_838404" data-name="Trazado 838404" d="M321.586,38.769q-2.556,0-5.109,0a1.86,1.86,0,0,1-1.582-.861,1.719,1.719,0,0,1,.761-2.673,3.246,3.246,0,0,1,1.193-.24c3.171-.018,6.344-.012,9.516,0a2.154,2.154,0,0,1,1.772.759,1.82,1.82,0,0,1-1.267,3c-1.76.018-3.521.006-5.283.006Z" transform="translate(315.168 35.052)" fill="#fff"/>
      <path id="Trazado_838405" data-name="Trazado 838405" d="M350.972,19.687a1.935,1.935,0,0,1-1.9,1.852,2.116,2.116,0,0,1-1.92-1.812,2.18,2.18,0,0,1,1.908-1.984,2.09,2.09,0,0,1,1.914,1.944" transform="translate(347.848 17.779)" fill="#fff"/>
      <path id="Trazado_838406" data-name="Trazado 838406" d="M38.622,181.531a5.354,5.354,0,1,0-5.355,5.355,5.355,5.355,0,0,0,5.355-5.355" transform="translate(27.969 176.53)" fill="#39a900"/>
      <path id="Trazado_838407" data-name="Trazado 838407" d="M182.5,169.1a5.354,5.354,0,1,0-5.355,5.355A5.355,5.355,0,0,0,182.5,169.1" transform="translate(172.14 164.069)" fill="#39a900"/>
      <path id="Trazado_838408" data-name="Trazado 838408" d="M182.5,187.206a5.354,5.354,0,1,0-5.355,5.355,5.355,5.355,0,0,0,5.355-5.355" transform="translate(172.14 182.217)" fill="#39a900"/>
      <path id="Trazado_838409" data-name="Trazado 838409" d="M182.5,203.762a5.354,5.354,0,1,0-5.355,5.355,5.355,5.355,0,0,0,5.355-5.355" transform="translate(172.14 198.806)" fill="#39a900"/>
      <path id="Trazado_838410" data-name="Trazado 838410" d="M324.288,180.65a5.354,5.354,0,1,0-5.355,5.355,5.355,5.355,0,0,0,5.355-5.355" transform="translate(314.21 175.648)" fill="#39a900"/>
      <path id="Trazado_838411" data-name="Trazado 838411" d="M324.288,196.65a5.354,5.354,0,1,0-5.355,5.355,5.355,5.355,0,0,0,5.355-5.355" transform="translate(314.21 191.68)" fill="#39a900"/>
    </g>
  </g>
</svg>
