<svg xmlns="http://www.w3.org/2000/svg" xmlns:xlink="http://www.w3.org/1999/xlink" width="112" height="111" viewBox="0 0 112 111">
  <defs>
    <clipPath id="clip-path">
      <rect id="Rect치ngulo_377712" data-name="Rect치ngulo 377712" width="112" height="111" transform="translate(-0.2 -12.543)" fill="none"/>
    </clipPath>
    <clipPath id="clip-path-2">
      <rect id="Rect치ngulo_377711" data-name="Rect치ngulo 377711" width="111.478" height="91.09" transform="translate(0)" fill="#0a5e6b"/>
    </clipPath>
  </defs>
  <g id="Grupo_1072248" data-name="Grupo 1072248" transform="translate(0.2 12.543)">
    <g id="Enmascarar_grupo_84" data-name="Enmascarar grupo 84" clip-path="url(#clip-path)">
      <g id="Grupo_1072247" data-name="Grupo 1072247" transform="translate(-0.2 -3.08)" clip-path="url(#clip-path-2)">
        <path id="Trazado_609676" data-name="Trazado 609676" d="M55.516,17.044q13.309,0,26.619.012c.361,0,.415-.135.414-.434q-.013-5.776-.012-11.551A4.635,4.635,0,0,1,84.4,1.191,4.084,4.084,0,0,1,86.9.429q16.837.037,33.675.017a3.884,3.884,0,0,1,1.082.117,4.43,4.43,0,0,1,3.04,3.653c.028.978.06,1.958.061,2.937.01,6.067,0,12.135.008,18.2a4.279,4.279,0,0,1-1.882,3.8,5.042,5.042,0,0,1-2.9.911c-2.218-.011-4.437.019-6.655-.019-.536-.009-.625.169-.62.64.023,1.967.013,3.934.014,5.9q0,18.3,0,36.6c0,.428-.046.857-.065,1.285-.015.339.108.533.492.5.265-.024.533,0,.8-.005a1.674,1.674,0,0,1,1.824,1.486,2.084,2.084,0,0,1,.055.4c.007,2.583.131,5.17-.07,7.747a7.236,7.236,0,0,1-5.829,6.635,6.325,6.325,0,0,1-1.345.071q-39.4,0-78.8.036a7.575,7.575,0,0,1-7.063-4.68,8.05,8.05,0,0,1-.5-2.778c-.029-2.267-.014-4.534-.012-6.8a2.457,2.457,0,0,1,.289-1.252,1.622,1.622,0,0,1,1.426-.864,6.151,6.151,0,0,1,.75.007c.458.038.633-.112.632-.615q-.02-21.427-.01-42.856c0-.473.012-.946.019-1.42l3.476-.006q0,22.129,0,44.259a1.384,1.384,0,0,1,0,.2c-.044.3.1.363.373.357.6-.013,1.2,0,1.8,0q38.852-.007,77.7,0c.485,0,.6-.112.6-.6q-.021-21.528-.011-43.056c0-1.21,0-1.2-1.239-1.187-.34,0-.472.1-.471.457,0,.731.114,1.452.113,2.185q-.018,18.152-.009,36.3c0,.65.016,1.3-.016,1.95a3.053,3.053,0,0,1-.466,1.641,1.985,1.985,0,0,1-1.855.685q-36.451-.011-72.9-.006A1.825,1.825,0,0,1,30.5,71.73a6.05,6.05,0,0,1-.109-1.291q0-20.178,0-40.355h3.6q0,19.5,0,39c0,.712-.155.707.682.707q16.008,0,32.015.01c.4,0,.537-.078.537-.511q-.018-21.573,0-43.146c0-.415-.135-.481-.506-.48q-5.352.019-10.7.005c-.194,0-.4.065-.575-.089l.082-3.441c1.15-.019,2.3-.061,3.449-.053,7.416.053,14.833-.122,22.248.088,1.347.038,1.33.013,1.327-1.232,0-.391-.139-.466-.491-.465q-5.426.013-10.852,0-7.851-.007-15.7-.019l.014-3.41m15.3,30.671v20.9c0,1.174,0,1.174,1.153,1.174q15.733-.005,31.466,0c.53,0,.619-.154.619-.64q-.02-18.924-.01-37.847c0-1.236,0-1.24-1.234-1.233a1.863,1.863,0,0,0-1.2.212c-1.32.96-2.657,1.9-3.981,2.852-2.026,1.462-4.053,2.922-6.137,4.3a1.562,1.562,0,0,1-2.254-.3,2.092,2.092,0,0,1-.491-1.478c0-1.617,0-3.233-.006-4.85,0-.749.155-.779-.76-.73a5.9,5.9,0,0,1-2.946-.563A4.492,4.492,0,0,1,82.6,25.976c-.074-.423-.3-.3-.5-.3-3.552-.008-7.1,0-10.656-.018-.483,0-.634.087-.633.611q.031,10.724.014,21.449M69.04,84.509V84.5h-3.4q-5.352,0-10.706.007a1.887,1.887,0,0,1-2.126-2.122c0-1.117-.025-2.234.011-3.35.015-.463-.123-.568-.573-.567q-13.009.02-26.018.01c-.084,0-.167.006-.25,0-.209-.018-.293.057-.292.283.005,1.883-.048,3.768.012,5.649a3.588,3.588,0,0,0,2.817,3.385A9.756,9.756,0,0,0,31,87.9q30.822,0,61.643,0,8.13,0,16.261-.012a3.385,3.385,0,0,0,2.249-.954,4.117,4.117,0,0,0,1.272-3.3c0-1.6-.045-3.194-.053-4.791,0-.326-.139-.378-.421-.377q-13.159.008-26.318,0c-.342,0-.41.114-.406.426.016,1.233,0,2.467.009,3.7a1.875,1.875,0,0,1-.178.82A1.982,1.982,0,0,1,83,84.514c-4.652-.011-9.305-.005-13.958-.005M103.548,3.86v.007q-8.254,0-16.508,0c-.594,0-.838.217-.907.807a6.877,6.877,0,0,0-.024.8q0,5,0,10,0,4.9.006,9.8c0,.92.291,1.195,1.194,1.195h2.9a2.4,2.4,0,0,1,1.2.29,1.811,1.811,0,0,1,.83,1.745c.021,1.183,0,2.367,0,3.549,0,.159-.07.368.119.449.148.063.275-.085.394-.17,2.029-1.458,4.034-2.953,6.091-4.371,2.159-1.488,1.462-1.5,4.577-1.5,5.62.014,11.239,0,16.858,0a.859.859,0,0,0,.985-.957q0-10.3,0-20.6a.944.944,0,0,0-.954-1.041,4,4,0,0,0-.45-.009H103.548M69.016,78.477c-4.052,0-8.1.006-12.155-.01-.423,0-.553.122-.529.534.031.515.015,1.033,0,1.549-.01.338.107.453.463.453q11.855-.015,23.71-.008c.267,0,.534-.016.8,0,.3.02.419-.087.4-.4a12.383,12.383,0,0,1-.018-1.548c.034-.456-.1-.586-.567-.584-4.035.02-8.07.011-12.105.011" transform="translate(-13.284 -0.257)" fill="#0a5e6b"/>
        <path id="Trazado_609677" data-name="Trazado 609677" d="M42.231,16.788l-.014,3.41q.01.84.021,1.68l-.082,3.441a4.447,4.447,0,0,1-3.05,4.171,7.178,7.178,0,0,1-2.646.317c-.345,0-.485.117-.477.46.012.483,0,.965,0,1.448-.012,1.414.071,2.832-.061,4.241a1.674,1.674,0,0,1-2.633,1.237c-1.082-.745-2.142-1.523-3.209-2.29-2.134-1.534-4.262-3.078-6.406-4.6a1.865,1.865,0,0,0-1.07-.493c-.632,0-1.265.01-1.9.016H15.5l-3.476.007c-2.367-.008-4.734.011-7.1-.03A4.778,4.778,0,0,1,.314,26.968a4.509,4.509,0,0,1-.3-1.983C0,18.386.016,11.788,0,5.19A5.83,5.83,0,0,1,.467,2.579,4.993,4.993,0,0,1,2.318.619a10.615,10.615,0,0,1,1.737-.6c.176-.08.491.1.76.1q16.229-.007,32.458,0a4.879,4.879,0,0,1,1.776.134A5.275,5.275,0,0,1,41.106,1.67a5.417,5.417,0,0,1,1.088,3.672c.051,3.5.016,7,.017,10.5,0,.316.014.632.021.949M21.1,3.605v.006H12.7q-3.977,0-7.955,0c-.971,0-1.252.283-1.252,1.231q0,10.05,0,20.1c0,1.038.228,1.268,1.261,1.268q8.831,0,17.661,0a3.889,3.889,0,0,1,2.593.828c.6.492,1.25.921,1.88,1.374q2.578,1.852,5.161,3.7c.093.066.156.208.338.121s.153-.236.153-.377c0-.55-.025-1.1-.012-1.65a15.714,15.714,0,0,1,.079-2.444,1.658,1.658,0,0,1,1.347-1.43,10.369,10.369,0,0,1,1.384-.126c.816.026,1.634.006,2.451.008a.765.765,0,0,0,.828-.577A2.826,2.826,0,0,0,38.7,24.9q0-10-.019-20c0-1.144-.429-1.3-1.317-1.3q-8.13.008-16.26,0" transform="translate(0.001 0)" fill="#0a5e6b"/>
        <path id="Trazado_609678" data-name="Trazado 609678" d="M74.143,123.13q-5.253,0-10.505,0a1.918,1.918,0,0,1-2.076-1.421,3.49,3.49,0,0,1-.029-1.437c.041-.392.18-.773.248-1.164a12.174,12.174,0,0,1,4.1-7.178,9.792,9.792,0,0,1,2.3-1.573c.487-.23.526-.384.181-.783a7.978,7.978,0,0,1-1.685-3.3,8.8,8.8,0,0,1-.085-1.782,6.228,6.228,0,0,1,.512-2.707A7.734,7.734,0,0,1,73.984,97.1a7.615,7.615,0,0,1,7.4,5.4,6.629,6.629,0,0,1,.158,3.1,8.744,8.744,0,0,1-.328,1.738,7.248,7.248,0,0,1-1.29,2.238c-.288.33-.267.54.137.767a12.036,12.036,0,0,1,6.07,7.4,13.016,13.016,0,0,1,.617,3.31,1.968,1.968,0,0,1-2.094,2.075c-2.935-.006-5.87,0-8.8,0h-1.7m-.007-3.581v-.016h7.856q.375,0,.75.012c.213.006.322-.061.24-.294-.05-.141-.088-.286-.139-.426a9.225,9.225,0,0,0-6.225-6.121,8.479,8.479,0,0,0-5.989.322,9.174,9.174,0,0,0-5.319,6c-.15.484-.119.521.419.52h8.406M70,104.71a4.194,4.194,0,0,0,4.073,4.03c2.564-.031,4.109-1.808,4.063-4.715-.028-1.782-2.057-3.413-4.228-3.4A4.133,4.133,0,0,0,70,104.71" transform="translate(-36.789 -58.113)" fill="#0a5e6b"/>
        <path id="Trazado_609679" data-name="Trazado 609679" d="M165.776,123.114q-5.178,0-10.356,0a1.933,1.933,0,0,1-2.188-2.192,11.407,11.407,0,0,1,.191-1.517,13.872,13.872,0,0,1,1.682-4.5,12.588,12.588,0,0,1,4.569-4.444c.115-.067.238-.121.355-.185.313-.171.381-.367.128-.67a7.111,7.111,0,0,1-1.3-2.119,7.786,7.786,0,0,1-.457-3.979,7.35,7.35,0,0,1,3.4-5.209,7.463,7.463,0,0,1,10.626,2.636,7.717,7.717,0,0,1,.875,4.606,7.339,7.339,0,0,1-1.684,4.016c-.305.4-.179.579.175.762a12.492,12.492,0,0,1,6.417,9.119c.059.463.176.919.245,1.381a1.929,1.929,0,0,1-1.472,2.215,7.251,7.251,0,0,1-.995.077H165.776m.084-3.595c2.816,0,5.633-.009,8.449.009.448,0,.527-.157.4-.527q-.137-.4-.285-.8a8.794,8.794,0,0,0-3.664-4.537,9.126,9.126,0,0,0-4.039-1.289,8.4,8.4,0,0,0-4.7.714,9.042,9.042,0,0,0-4.976,5.865c-.147.544-.148.563.415.563h8.4m4.094-14.873c.229-2.338-2.2-4.017-3.989-4.058a4.242,4.242,0,0,0-4.247,4.1,4.3,4.3,0,0,0,4.117,4.047,3.931,3.931,0,0,0,4.119-4.088" transform="translate(-91.701 -58.096)" fill="#0a5e6b"/>
        <path id="Trazado_609680" data-name="Trazado 609680" d="M205.106,36.226c-3.818,0-7.635.006-11.453,0a1.77,1.77,0,0,1-1.984-1.78,1.8,1.8,0,0,1,1.537-1.714,13.808,13.808,0,0,1,1.733-.112q10.3.008,20.6.012a4.355,4.355,0,0,1,1.982.32,1.537,1.537,0,0,1,.952,1.731,1.716,1.716,0,0,1-1.279,1.439,3.4,3.4,0,0,1-.941.1q-5.577,0-11.153,0Z" transform="translate(-114.709 -19.52)" fill="#0a5e6b"/>
        <path id="Trazado_609681" data-name="Trazado 609681" d="M204.918,20.04H193.467a2.183,2.183,0,0,1-1.817-1.794,1.91,1.91,0,0,1,1.413-1.7,6.074,6.074,0,0,1,1.242-.1q10.727,0,21.454-.009a4.843,4.843,0,0,1,1.665.2,1.573,1.573,0,0,1,1.048,1.491,1.66,1.66,0,0,1-.907,1.609,2.4,2.4,0,0,1-1.295.3q-5.676-.007-11.352,0Z" transform="translate(-114.697 -9.835)" fill="#0a5e6b"/>
        <path id="Trazado_609682" data-name="Trazado 609682" d="M205.04,49.287c3.835,0,7.671.011,11.506-.006,1.254-.006,1.745.489,1.916,1.7a1.692,1.692,0,0,1-1.546,1.72q-11.63,0-23.261-.008a1.921,1.921,0,0,1-2.024-1.575,1.621,1.621,0,0,1,1.352-1.81c.531-.038,1.067-.014,1.6-.014H205.04Z" transform="translate(-114.669 -29.493)" fill="#0a5e6b"/>
        <path id="Trazado_609683" data-name="Trazado 609683" d="M32.446,20.058c-3.85,0-7.7.024-11.551-.015a1.758,1.758,0,0,1-1.728-2.24,1.645,1.645,0,0,1,1.375-1.23,9.959,9.959,0,0,1,1.434-.107q10.351-.01,20.7-.005c.563,0,1.12.089,1.683.11a1.605,1.605,0,0,1,1.5,1.535,1.849,1.849,0,0,1-1.424,1.87,4.169,4.169,0,0,1-.893.07q-5.551.007-11.1,0v.01" transform="translate(-11.433 -9.851)" fill="#0a5e6b"/>
        <path id="Trazado_609684" data-name="Trazado 609684" d="M32.015,36.231q-5.549,0-11.1,0a1.978,1.978,0,0,1-1.765-1.687,1.855,1.855,0,0,1,1.7-1.814c7.346-.18,14.693-.036,22.039-.075a11.213,11.213,0,0,1,1.535.1,1.717,1.717,0,0,1,1.466,1.8,1.694,1.694,0,0,1-1.679,1.593c-1.531.119-3.064.083-4.6.086q-3.8.007-7.6,0Z" transform="translate(-11.461 -19.533)" fill="#0a5e6b"/>
        <path id="Trazado_609685" data-name="Trazado 609685" d="M32.524,49.148q5.5,0,11,0a6.554,6.554,0,0,1,.9.048,1.658,1.658,0,0,1,1.431,1.756,1.635,1.635,0,0,1-1.513,1.575c-.7.067-1.4.089-2.1.088q-10.076-.009-20.151-.008a6.52,6.52,0,0,1-1.682-.092,1.772,1.772,0,0,1-1.163-2.474,1.48,1.48,0,0,1,1.231-.825c.432-.03.864-.068,1.3-.068q5.375-.008,10.75,0" transform="translate(-11.423 -29.413)" fill="#0a5e6b"/>
      </g>
    </g>
  </g>
</svg>
