<svg xmlns="http://www.w3.org/2000/svg" xmlns:xlink="http://www.w3.org/1999/xlink" width="400" height="1792" viewBox="0 0 400 1792">
  <defs>
    <clipPath id="clip-path">
      <path id="Trazado_838934" data-name="Trazado 838934" d="M0,0H170.089V69.729H0Z" fill="none"/>
    </clipPath>
    <clipPath id="clip-path-2">
      <rect id="Rectángulo_377724" data-name="Rectángulo 377724" width="72.495" height="32.437" fill="none"/>
    </clipPath>
    <clipPath id="clip-path-3">
      <rect id="Rectángulo_377715" data-name="Rectángulo 377715" width="71.586" height="71.583" fill="none"/>
    </clipPath>
    <clipPath id="clip-path-4">
      <rect id="Rectángulo_377726" data-name="Rectángulo 377726" width="107.214" height="32.437" fill="none"/>
    </clipPath>
  </defs>
  <g id="Grupo_1072350" data-name="Grupo 1072350" transform="translate(8717 11647.929)">
    <rect id="Rectángulo_377652" data-name="Rectángulo 377652" width="400" height="1792" transform="translate(-8717 -11647.929)" fill="#fff"/>
    <g id="Grupo_1072348" data-name="Grupo 1072348" transform="translate(-8691.107 -11616.784)">
      <path id="Trazado_838358" data-name="Trazado 838358" d="M318.9,53.472a139.957,139.957,0,0,1-279.9,0H0a178.946,178.946,0,0,0,357.885,0Z" transform="translate(0 86.503)" fill="#cdf5e2"/>
      <path id="Trazado_838359" data-name="Trazado 838359" d="M126.264,164.241a35.792,35.792,0,1,1-35.79-35.793h0a35.8,35.8,0,0,1,35.79,35.793" transform="translate(88.462 207.798)" fill="#cdf5e2"/>
      <path id="Trazado_838930" data-name="Trazado 838930" d="M0,0H71.583V71.583H0Z" transform="translate(143.143 336.246)" fill="none"/>
      <path id="Trazado_838360" data-name="Trazado 838360" d="M107.163,156.87A23.858,23.858,0,1,1,83.3,133a23.859,23.859,0,0,1,23.858,23.866" transform="translate(96.171 215.169)" fill="#1fd27a"/>
      <path id="Trazado_838931" data-name="Trazado 838931" d="M0,0H13.72V116.638H0Z" transform="translate(172.075 226.784)" fill="#cdf5e2"/>
      <path id="Trazado_838361" data-name="Trazado 838361" d="M294.659,139.969A139.968,139.968,0,1,1,154.694,0,139.966,139.966,0,0,1,294.659,139.969" transform="translate(23.821 -0.001)" fill="#fff"/>
      <path id="Trazado_838362" data-name="Trazado 838362" d="M282.068,135.041A132.044,132.044,0,1,1,150.025,3,132.043,132.043,0,0,1,282.068,135.041" transform="translate(29.126 4.846)" fill="#1fd27a"/>
      <path id="Trazado_838368" data-name="Trazado 838368" d="M34.066,153.173h268.5c14.987,0,27.136,7.949,27.136,17.754V291.462c0,9.805-12.149,17.754-27.136,17.754H34.066c-14.987,0-27.136-7.949-27.136-17.754V170.927c0-9.805,12.149-17.754,27.136-17.754" transform="translate(11.212 247.799)" fill="#cdf5e2"/>
      <g id="Enmascarar_grupo_97" data-name="Enmascarar grupo 97" transform="translate(108.536 453.479)" clip-path="url(#clip-path)">
        <path id="Trazado_838932" data-name="Trazado 838932" d="M6.865-5.752H3.525V0H1.641V-14.219H6.348a5.571,5.571,0,0,1,3.7,1.094,3.935,3.935,0,0,1,1.294,3.184,3.828,3.828,0,0,1-.718,2.314,4.285,4.285,0,0,1-2,1.475l3.34,6.035V0H9.951ZM3.525-7.285H6.406a3.249,3.249,0,0,0,2.222-.724,2.448,2.448,0,0,0,.825-1.937,2.578,2.578,0,0,0-.786-2.025A3.329,3.329,0,0,0,6.4-12.686H3.525ZM18.066.2a4.617,4.617,0,0,1-3.5-1.411A5.237,5.237,0,0,1,13.223-4.99v-.332a6.341,6.341,0,0,1,.6-2.808,4.685,4.685,0,0,1,1.68-1.934,4.223,4.223,0,0,1,2.339-.7,3.957,3.957,0,0,1,3.2,1.357,5.877,5.877,0,0,1,1.143,3.887v.752H15.029a3.756,3.756,0,0,0,.913,2.524,2.87,2.87,0,0,0,2.222.962,3.147,3.147,0,0,0,1.621-.391,4.073,4.073,0,0,0,1.162-1.035l1.1.859A4.437,4.437,0,0,1,18.066.2Zm-.225-9.473a2.41,2.41,0,0,0-1.836.8,3.868,3.868,0,0,0-.918,2.231h5.293v-.137a3.441,3.441,0,0,0-.742-2.134A2.269,2.269,0,0,0,17.842-9.277ZM30.43-2.8a1.33,1.33,0,0,0-.552-1.138,5.311,5.311,0,0,0-1.924-.7,9.1,9.1,0,0,1-2.178-.7,3.1,3.1,0,0,1-1.191-.977A2.336,2.336,0,0,1,24.2-7.666a2.741,2.741,0,0,1,1.1-2.2,4.291,4.291,0,0,1,2.808-.9,4.415,4.415,0,0,1,2.915.928,2.947,2.947,0,0,1,1.118,2.373H30.322a1.631,1.631,0,0,0-.63-1.279,2.36,2.36,0,0,0-1.587-.537,2.47,2.47,0,0,0-1.543.43,1.353,1.353,0,0,0-.557,1.123,1.1,1.1,0,0,0,.518.986,6.368,6.368,0,0,0,1.87.635,9.744,9.744,0,0,1,2.192.723A3.2,3.2,0,0,1,31.831-4.37a2.485,2.485,0,0,1,.405,1.44A2.7,2.7,0,0,1,31.1-.659,4.752,4.752,0,0,1,28.164.2a5.321,5.321,0,0,1-2.246-.449A3.653,3.653,0,0,1,24.39-1.509a3.025,3.025,0,0,1-.552-1.743h1.807a1.87,1.87,0,0,0,.728,1.44,2.822,2.822,0,0,0,1.792.532,2.913,2.913,0,0,0,1.646-.415A1.275,1.275,0,0,0,30.43-2.8Zm3.682-2.578a6.241,6.241,0,0,1,.61-2.793,4.553,4.553,0,0,1,1.7-1.914,4.626,4.626,0,0,1,2.485-.674A4.456,4.456,0,0,1,42.4-9.268,5.748,5.748,0,0,1,43.73-5.293v.127A6.3,6.3,0,0,1,43.14-2.4,4.486,4.486,0,0,1,41.45-.488,4.679,4.679,0,0,1,38.926.2,4.445,4.445,0,0,1,35.444-1.3a5.719,5.719,0,0,1-1.333-3.955Zm1.816.215a4.52,4.52,0,0,0,.815,2.822,2.61,2.61,0,0,0,2.183,1.064,2.594,2.594,0,0,0,2.188-1.079,4.943,4.943,0,0,0,.811-3.022A4.513,4.513,0,0,0,41.1-8.2a2.623,2.623,0,0,0-2.192-1.079,2.594,2.594,0,0,0-2.158,1.064A4.906,4.906,0,0,0,35.928-5.166ZM47.959,0H46.152V-15h1.807Zm9.414-1.045A3.837,3.837,0,0,1,54.277.2,3.285,3.285,0,0,1,51.7-.786a4.248,4.248,0,0,1-.894-2.905v-6.875h1.807V-3.74q0,2.4,1.953,2.4a2.7,2.7,0,0,0,2.754-1.543v-7.686h1.807V0H57.412Zm8.74-.234A2.6,2.6,0,0,0,67.8-1.865a2.061,2.061,0,0,0,.8-1.465h1.709A3.276,3.276,0,0,1,69.688-1.6,4.116,4.116,0,0,1,68.149-.293,4.438,4.438,0,0,1,66.113.2a4.353,4.353,0,0,1-3.433-1.44,5.737,5.737,0,0,1-1.274-3.94v-.3a6.361,6.361,0,0,1,.566-2.744A4.314,4.314,0,0,1,63.6-10.1a4.619,4.619,0,0,1,2.5-.664A4.238,4.238,0,0,1,69.058-9.7a3.8,3.8,0,0,1,1.255,2.764H68.6a2.49,2.49,0,0,0-.776-1.685A2.415,2.415,0,0,0,66.1-9.277a2.529,2.529,0,0,0-2.134.991,4.655,4.655,0,0,0-.757,2.866v.342a4.562,4.562,0,0,0,.752,2.813A2.541,2.541,0,0,0,66.113-1.279ZM74.307,0H72.5V-10.566h1.807ZM72.354-13.369a1.078,1.078,0,0,1,.269-.742,1.008,1.008,0,0,1,.8-.3,1.024,1.024,0,0,1,.8.3,1.067,1.067,0,0,1,.273.742,1.032,1.032,0,0,1-.273.732,1.043,1.043,0,0,1-.8.293,1.026,1.026,0,0,1-.8-.293A1.043,1.043,0,0,1,72.354-13.369Zm4.365,7.988a6.241,6.241,0,0,1,.61-2.793,4.553,4.553,0,0,1,1.7-1.914,4.626,4.626,0,0,1,2.485-.674A4.456,4.456,0,0,1,85-9.268a5.748,5.748,0,0,1,1.333,3.975v.127A6.3,6.3,0,0,1,85.747-2.4,4.486,4.486,0,0,1,84.058-.488,4.679,4.679,0,0,1,81.533.2,4.445,4.445,0,0,1,78.052-1.3a5.719,5.719,0,0,1-1.333-3.955Zm1.816.215a4.52,4.52,0,0,0,.815,2.822,2.61,2.61,0,0,0,2.183,1.064,2.594,2.594,0,0,0,2.188-1.079,4.943,4.943,0,0,0,.811-3.022A4.513,4.513,0,0,0,83.706-8.2a2.623,2.623,0,0,0-2.192-1.079,2.594,2.594,0,0,0-2.158,1.064A4.906,4.906,0,0,0,78.535-5.166ZM82.334-15h2.188L81.9-12.129l-1.455,0Zm7.979,4.434.059,1.328a3.85,3.85,0,0,1,3.164-1.523q3.35,0,3.379,3.779V0H95.107V-6.992a2.432,2.432,0,0,0-.522-1.689,2.094,2.094,0,0,0-1.6-.547,2.607,2.607,0,0,0-1.543.469,3.183,3.183,0,0,0-1.035,1.23V0H88.6V-10.566Zm13.8,5.186a6.241,6.241,0,0,1,.61-2.793,4.553,4.553,0,0,1,1.7-1.914,4.626,4.626,0,0,1,2.485-.674A4.456,4.456,0,0,1,112.4-9.268a5.748,5.748,0,0,1,1.333,3.975v.127A6.3,6.3,0,0,1,113.14-2.4,4.486,4.486,0,0,1,111.45-.488,4.679,4.679,0,0,1,108.926.2,4.445,4.445,0,0,1,105.444-1.3a5.719,5.719,0,0,1-1.333-3.955Zm1.816.215a4.52,4.52,0,0,0,.815,2.822,2.61,2.61,0,0,0,2.183,1.064,2.594,2.594,0,0,0,2.188-1.079,4.943,4.943,0,0,0,.811-3.022A4.513,4.513,0,0,0,111.1-8.2a2.623,2.623,0,0,0-2.192-1.079,2.594,2.594,0,0,0-2.158,1.064A4.906,4.906,0,0,0,105.928-5.166Z" transform="translate(5.461 18.57)" fill="#12263f"/>
        <path id="Trazado_838933" data-name="Trazado 838933" d="M10.293-5.166a6.327,6.327,0,0,1-1.1,3.887A3.537,3.537,0,0,1,6.2.2,3.875,3.875,0,0,1,3.174-1.025V4.063H1.367V-10.566h1.65l.088,1.172a3.722,3.722,0,0,1,3.066-1.367A3.6,3.6,0,0,1,9.185-9.326a6.4,6.4,0,0,1,1.108,3.994ZM8.486-5.371a4.669,4.669,0,0,0-.762-2.822,2.454,2.454,0,0,0-2.09-1.035A2.656,2.656,0,0,0,3.174-7.773v5.049a2.661,2.661,0,0,0,2.48,1.445A2.442,2.442,0,0,0,7.72-2.31,5.1,5.1,0,0,0,8.486-5.371ZM17.7-8.945a5.414,5.414,0,0,0-.889-.068A2.381,2.381,0,0,0,14.395-7.5V0H12.588V-10.566h1.758l.029,1.221a2.813,2.813,0,0,1,2.52-1.416,1.846,1.846,0,0,1,.8.137ZM23.555.2a4.617,4.617,0,0,1-3.5-1.411A5.237,5.237,0,0,1,18.711-4.99v-.332a6.341,6.341,0,0,1,.6-2.808,4.685,4.685,0,0,1,1.68-1.934,4.223,4.223,0,0,1,2.339-.7,3.957,3.957,0,0,1,3.2,1.357,5.877,5.877,0,0,1,1.143,3.887v.752H20.518a3.756,3.756,0,0,0,.913,2.524,2.87,2.87,0,0,0,2.222.962,3.147,3.147,0,0,0,1.621-.391,4.073,4.073,0,0,0,1.162-1.035l1.1.859A4.437,4.437,0,0,1,23.555.2ZM23.33-9.277a2.41,2.41,0,0,0-1.836.8,3.868,3.868,0,0,0-.918,2.231h5.293v-.137a3.441,3.441,0,0,0-.742-2.134A2.269,2.269,0,0,0,23.33-9.277Zm8.135-1.289.049,1.172a3.9,3.9,0,0,1,3.135-1.367,3.021,3.021,0,0,1,3.018,1.7,4,4,0,0,1,1.372-1.23,4.052,4.052,0,0,1,2-.469q3.477,0,3.535,3.682V0H42.764V-6.973a2.426,2.426,0,0,0-.518-1.694,2.279,2.279,0,0,0-1.738-.562,2.4,2.4,0,0,0-1.67.6,2.436,2.436,0,0,0-.771,1.616V0H36.25V-6.924a2.016,2.016,0,0,0-2.256-2.3,2.417,2.417,0,0,0-2.432,1.514V0H29.756V-10.566ZM49.258,0H47.451V-10.566h1.807ZM47.3-13.369a1.078,1.078,0,0,1,.269-.742,1.008,1.008,0,0,1,.8-.3,1.024,1.024,0,0,1,.8.3,1.067,1.067,0,0,1,.273.742,1.032,1.032,0,0,1-.273.732,1.043,1.043,0,0,1-.8.293,1.026,1.026,0,0,1-.8-.293A1.043,1.043,0,0,1,47.3-13.369ZM58.3-2.8a1.33,1.33,0,0,0-.552-1.138,5.311,5.311,0,0,0-1.924-.7,9.1,9.1,0,0,1-2.178-.7,3.1,3.1,0,0,1-1.191-.977,2.336,2.336,0,0,1-.386-1.348,2.741,2.741,0,0,1,1.1-2.2,4.291,4.291,0,0,1,2.808-.9,4.415,4.415,0,0,1,2.915.928A2.947,2.947,0,0,1,60.01-7.461H58.193a1.631,1.631,0,0,0-.63-1.279,2.36,2.36,0,0,0-1.587-.537,2.47,2.47,0,0,0-1.543.43,1.353,1.353,0,0,0-.557,1.123,1.1,1.1,0,0,0,.518.986,6.368,6.368,0,0,0,1.87.635,9.744,9.744,0,0,1,2.192.723A3.2,3.2,0,0,1,59.7-4.37a2.485,2.485,0,0,1,.405,1.44A2.7,2.7,0,0,1,58.975-.659,4.752,4.752,0,0,1,56.035.2a5.321,5.321,0,0,1-2.246-.449,3.653,3.653,0,0,1-1.528-1.255,3.025,3.025,0,0,1-.552-1.743h1.807a1.87,1.87,0,0,0,.728,1.44,2.822,2.822,0,0,0,1.792.532,2.913,2.913,0,0,0,1.646-.415A1.275,1.275,0,0,0,58.3-2.8ZM68.984,0a3.8,3.8,0,0,1-.254-1.113A4.031,4.031,0,0,1,65.723.2a3.73,3.73,0,0,1-2.563-.884,2.859,2.859,0,0,1-1-2.241,2.987,2.987,0,0,1,1.255-2.563,5.916,5.916,0,0,1,3.53-.913H68.7v-.83a2.029,2.029,0,0,0-.566-1.509,2.276,2.276,0,0,0-1.67-.562,2.634,2.634,0,0,0-1.621.488,1.439,1.439,0,0,0-.654,1.182H62.373a2.493,2.493,0,0,1,.562-1.528,3.832,3.832,0,0,1,1.523-1.167,5.125,5.125,0,0,1,2.114-.43,4.177,4.177,0,0,1,2.861.913,3.294,3.294,0,0,1,1.074,2.515v4.863a5.946,5.946,0,0,0,.371,2.314V0Zm-3-1.377A3.175,3.175,0,0,0,67.6-1.816a2.658,2.658,0,0,0,1.1-1.143V-5.127H67.285q-3.32,0-3.32,1.943a1.645,1.645,0,0,0,.566,1.328A2.177,2.177,0,0,0,65.986-1.377ZM80.254,0H78.447V-10.566h1.807ZM78.3-13.369a1.078,1.078,0,0,1,.269-.742,1.008,1.008,0,0,1,.8-.3,1.024,1.024,0,0,1,.8.3,1.067,1.067,0,0,1,.273.742,1.032,1.032,0,0,1-.273.732,1.043,1.043,0,0,1-.8.293,1.026,1.026,0,0,1-.8-.293A1.043,1.043,0,0,1,78.3-13.369Zm6.553,2.8.059,1.328a3.85,3.85,0,0,1,3.164-1.523q3.35,0,3.379,3.779V0H89.648V-6.992a2.432,2.432,0,0,0-.522-1.689,2.094,2.094,0,0,0-1.6-.547,2.607,2.607,0,0,0-1.543.469,3.183,3.183,0,0,0-1.035,1.23V0H83.145V-10.566ZM96.143,0H94.336V-10.566h1.807ZM94.189-13.369a1.078,1.078,0,0,1,.269-.742,1.008,1.008,0,0,1,.8-.3,1.024,1.024,0,0,1,.8.3,1.067,1.067,0,0,1,.273.742,1.032,1.032,0,0,1-.273.732,1.043,1.043,0,0,1-.8.293,1.026,1.026,0,0,1-.8-.293A1.043,1.043,0,0,1,94.189-13.369Zm9.082,12.09a2.6,2.6,0,0,0,1.689-.586,2.061,2.061,0,0,0,.8-1.465h1.709a3.276,3.276,0,0,1-.625,1.729,4.116,4.116,0,0,1-1.538,1.309A4.438,4.438,0,0,1,103.271.2a4.353,4.353,0,0,1-3.433-1.44,5.737,5.737,0,0,1-1.274-3.94v-.3a6.361,6.361,0,0,1,.566-2.744,4.314,4.314,0,0,1,1.626-1.865,4.619,4.619,0,0,1,2.5-.664A4.238,4.238,0,0,1,106.216-9.7a3.8,3.8,0,0,1,1.255,2.764h-1.709a2.49,2.49,0,0,0-.776-1.685,2.415,2.415,0,0,0-1.724-.659,2.529,2.529,0,0,0-2.134.991,4.655,4.655,0,0,0-.757,2.866v.342a4.562,4.562,0,0,0,.752,2.813A2.541,2.541,0,0,0,103.271-1.279ZM111.465,0h-1.807V-10.566h1.807Zm-1.953-13.369a1.078,1.078,0,0,1,.269-.742,1.008,1.008,0,0,1,.8-.3,1.024,1.024,0,0,1,.8.3,1.067,1.067,0,0,1,.273.742,1.032,1.032,0,0,1-.273.732,1.043,1.043,0,0,1-.8.293,1.026,1.026,0,0,1-.8-.293A1.043,1.043,0,0,1,109.512-13.369ZM120.879,0a3.8,3.8,0,0,1-.254-1.113A4.031,4.031,0,0,1,117.617.2a3.73,3.73,0,0,1-2.563-.884,2.859,2.859,0,0,1-1-2.241,2.987,2.987,0,0,1,1.255-2.563,5.916,5.916,0,0,1,3.53-.913H120.6v-.83a2.029,2.029,0,0,0-.566-1.509,2.276,2.276,0,0,0-1.67-.562,2.634,2.634,0,0,0-1.621.488,1.439,1.439,0,0,0-.654,1.182h-1.816a2.493,2.493,0,0,1,.562-1.528,3.832,3.832,0,0,1,1.523-1.167,5.125,5.125,0,0,1,2.114-.43,4.177,4.177,0,0,1,2.861.913A3.294,3.294,0,0,1,122.4-7.334v4.863a5.946,5.946,0,0,0,.371,2.314V0Zm-3-1.377a3.175,3.175,0,0,0,1.611-.439,2.658,2.658,0,0,0,1.1-1.143V-5.127H119.18q-3.32,0-3.32,1.943a1.645,1.645,0,0,0,.566,1.328A2.177,2.177,0,0,0,117.881-1.377ZM127.2,0h-1.807V-15H127.2Z" transform="translate(-0.001 57.834)" fill="#12263f"/>
      </g>
      <g id="Grupo_1072265" data-name="Grupo 1072265" transform="translate(143.108 215.469)" clip-path="url(#clip-path-2)">
        <path id="Trazado_838929" data-name="Trazado 838929" d="M13.769-13.623H8.76V0H5.391V-13.623H.449v-2.729H13.769ZM19.08.225a5.965,5.965,0,0,1-4.352-1.64,5.828,5.828,0,0,1-1.679-4.369V-6.1a7.341,7.341,0,0,1,.708-3.274,5.192,5.192,0,0,1,2-2.224,5.627,5.627,0,0,1,2.959-.781A5.043,5.043,0,0,1,22.646-10.8a6.389,6.389,0,0,1,1.432,4.458V-5.02H16.34a3.015,3.015,0,0,0,.949,1.909,2.869,2.869,0,0,0,2,.719,3.5,3.5,0,0,0,2.931-1.359l1.595,1.786A4.872,4.872,0,0,1,21.843-.354,6.485,6.485,0,0,1,19.08.225Zm-.371-9.984a2.028,2.028,0,0,0-1.567.654,3.388,3.388,0,0,0-.769,1.873h4.515v-.26A2.416,2.416,0,0,0,20.3-9.167,2.092,2.092,0,0,0,18.709-9.759Zm10.253-2.392.1,1.359a4.27,4.27,0,0,1,3.493-1.583,3.241,3.241,0,0,1,3.223,1.853,4.172,4.172,0,0,1,3.65-1.853,3.624,3.624,0,0,1,2.942,1.151,5.291,5.291,0,0,1,.966,3.465V0H40.081V-7.749a2.314,2.314,0,0,0-.4-1.51,1.792,1.792,0,0,0-1.426-.477,2.026,2.026,0,0,0-2.021,1.393L36.24,0H32.994V-7.738a2.286,2.286,0,0,0-.416-1.527,1.809,1.809,0,0,0-1.415-.472,2.1,2.1,0,0,0-2,1.146V0H25.919V-12.151ZM52.872,0a3.6,3.6,0,0,1-.326-1.089A3.927,3.927,0,0,1,49.481.225,4.314,4.314,0,0,1,46.521-.809a3.323,3.323,0,0,1-1.174-2.605A3.434,3.434,0,0,1,46.78-6.379a7.065,7.065,0,0,1,4.138-1.044h1.494v-.7a2,2,0,0,0-.432-1.348,1.7,1.7,0,0,0-1.365-.505,1.934,1.934,0,0,0-1.286.393A1.335,1.335,0,0,0,48.863-8.5H45.617a3.26,3.26,0,0,1,.651-1.954,4.306,4.306,0,0,1,1.842-1.409,6.712,6.712,0,0,1,2.673-.511,5.3,5.3,0,0,1,3.566,1.129,3.948,3.948,0,0,1,1.32,3.173v5.267a5.809,5.809,0,0,0,.483,2.617V0ZM50.188-2.257a2.8,2.8,0,0,0,1.325-.32,2.1,2.1,0,0,0,.9-.859V-5.525H51.2q-2.437,0-2.594,1.685l-.011.191a1.3,1.3,0,0,0,.427,1A1.658,1.658,0,0,0,50.188-2.257Z" transform="translate(0 23.069)" fill="#fff"/>
      </g>
      <path id="Trazado_838376" data-name="Trazado 838376" d="M122.881,142.776c-.12-1.636-.257-3.17-.343-4.707a13.849,13.849,0,0,1,1.906-7.937c1.429-2.445,2.83-4.906,4.241-7.361.178-.312.353-.623.613-1.086h-2.552c-2.649,0-5.3.018-7.95-.013a5.753,5.753,0,0,1-1.955-.293,2.125,2.125,0,0,1-1.364-2.5,2.254,2.254,0,0,1,2.008-1.715,5.212,5.212,0,0,1,.754-.071c4.332.016,8.667.042,13,.042a1.1,1.1,0,0,0,.825-.312c.95-1.576,1.846-3.183,2.751-4.785.018-.031,0-.089-.013-.241h-.775q-15,0-30.008-.021a2.368,2.368,0,0,1-1.372-.469,1.922,1.922,0,0,1-.89-2.207,2.4,2.4,0,0,1,2.264-1.725c.78-.034,1.565-.01,2.351-.01q15.243,0,30.492.01a1.044,1.044,0,0,0,1.081-.62c.738-1.38,1.55-2.72,2.327-4.079.079-.133.133-.28.259-.547h-.806c-4.285,0-8.573.005-12.861-.01a4.778,4.778,0,0,1-1.359-.2,2.172,2.172,0,0,1-1.55-2.335,2.1,2.1,0,0,1,2.013-1.924A9.732,9.732,0,0,1,127,97.614q7.743.008,15.487.029a.948.948,0,0,0,.937-.537q4.535-7.83,9.1-15.639c1.435-2.469,2.856-4.945,4.306-7.4a4.688,4.688,0,0,0,.67-2.487q-.059-17.807-.071-35.615a12.4,12.4,0,0,1,.042-1.793,2.12,2.12,0,0,1,2.272-1.945,2.219,2.219,0,0,1,2.141,2.044,11.518,11.518,0,0,1,.052,1.312q-.024,14.627-.052,29.254a4.441,4.441,0,0,0,.063.482c1.068-.872,2.016-.586,3.052.031,3.1,1.851,6.257,3.623,9.387,5.429a5,5,0,0,1,.754.484c.877.751,1.508,1.592.688,2.979-2.374,4.026-4.681,8.092-7.013,12.141-2.118,3.668-4.228,7.34-6.364,11a4.315,4.315,0,0,0-.584,2.353c.063,4.332.065,8.667.068,13,.008,8.715.018,17.429-.021,26.141a11.249,11.249,0,0,1-.479,3.466,7.123,7.123,0,0,1-7,4.864c-.136,0-.275,0-.414,0H53.35a8.3,8.3,0,0,1-4.445-1.047,7.336,7.336,0,0,1-3.647-6.38c-.123-4.607-.044-9.22-.026-13.83a2.59,2.59,0,0,1,1.594-2.534,2.122,2.122,0,0,1,2.974,1.8c.034.435.024.874.021,1.312q-.016,6.573-.039,13.141a2.833,2.833,0,0,0,3.123,3.123l69.073-.01h.9M153.915,87.96c-.128.1-.175.123-.2.16q-2.823,4.908-5.639,9.819-9.793,16.991-19.61,33.968a10.842,10.842,0,0,0-1.5,6.811c.107.974.223,1.948.346,3.026.995-.435,1.893-.825,2.791-1.215a10.466,10.466,0,0,0,5.026-4.552c1.811-3.181,3.66-6.34,5.49-9.51,1.047-1.814,2.06-3.649,3.149-5.437a2.085,2.085,0,0,1,2.953-.893,2.175,2.175,0,0,1,.814,3.1c-.157.309-.335.6-.508.9-2.277,3.948-4.592,7.877-6.827,11.848a22.129,22.129,0,0,1-5.021,6.61c-.016.013.01.079.024.149.173.01.351.026.531.026q9.4.008,18.8.008a2.659,2.659,0,0,0,.874-.139c1.505-.534,2.052-1.448,2.052-3.28q0-15.283.013-30.563v-2.369a4.357,4.357,0,0,0-.814,1.047c-1.147,1.971-2.277,3.95-3.435,5.914a5.553,5.553,0,0,1-.908,1.2,2.18,2.18,0,0,1-3.188-2.89q5.167-8.976,10.353-17.945c.364-.631.72-1.267,1.115-1.961-2.267-1.3-4.476-2.568-6.691-3.84m13.715-8.424c.141-.194.288-.364.4-.555.882-1.531,1.743-3.076,2.649-4.594.257-.432.181-.62-.238-.848-1.309-.715-2.6-1.466-3.9-2.207-.77-.44-1.537-.885-2.33-1.343-1.11,1.921-2.181,3.783-3.28,5.688l6.694,3.859m-2.162,3.846c-2.233-1.3-4.44-2.586-6.72-3.914-.825,1.435-1.6,2.785-2.374,4.136-.241.424-.06.675.322.89,1.162.652,2.317,1.319,3.471,1.987.887.513,1.77,1.037,2.654,1.555.877-1.545,1.725-3.034,2.647-4.654" transform="translate(73.11 52.128)" fill="#fff"/>
      <path id="Trazado_838377" data-name="Trazado 838377" d="M49.8,81.875V131.6c0,2.442,0,4.887-.021,7.33a2.186,2.186,0,0,1-2.168,2.482,2.51,2.51,0,0,1-2.406-2.524c0-.139,0-.277,0-.416q0-56.744.013-113.491a7.369,7.369,0,0,1,5.948-7.6,12.676,12.676,0,0,1,2.27-.2q50.336-.012,100.672-.005c3.969,0,6.827,2.186,7.6,5.819a10.365,10.365,0,0,1,.2,2.128q.016,11.411,0,22.822a2.27,2.27,0,0,1-.694,1.874,2.111,2.111,0,0,1-2.222.563,2.085,2.085,0,0,1-1.505-1.955c-.05-1.911-.052-3.825-.05-5.738,0-5.623.024-11.249.026-16.874a16.483,16.483,0,0,0-.1-1.723,2.7,2.7,0,0,0-2.73-2.487c-.186,0-.369,0-.555,0H53.061c-2.28,0-3.34,1.123-3.335,3.421q.043,20.47.063,40.942.008,7.952,0,15.906Z" transform="translate(73.129 27.784)" fill="#fff"/>
      <path id="Trazado_838378" data-name="Trazado 838378" d="M49.819,72.815c0-3.458.055-6.914-.016-10.369a6.881,6.881,0,0,1,7.236-7.107c4.885.024,9.77-.008,14.652.005,2.372.008,4.754-.079,7.11.128a6.654,6.654,0,0,1,6.013,6.715c.05,7,.016,14.008.016,21.013a6.872,6.872,0,0,1-7.05,7.1c-6.128.018-12.254.005-18.382.005-.969,0-1.935.008-2.9,0a6.679,6.679,0,0,1-6.654-6.429c-.065-1.84-.05-3.686-.058-5.529s0-3.686,0-5.529Zm4.576-.037h-.058c0,3.594.021,7.191-.01,10.785-.01,1.4.55,2.141,1.953,2.2,1.285.058,2.579.01,3.866.01q8.851,0,17.7-.008c1.592,0,2.4-.783,2.406-2.293q.016-10.543.008-21.086c0-1.882-.683-2.521-2.552-2.521q-10.056,0-20.115,0c-.414,0-.83-.008-1.243.013a1.946,1.946,0,0,0-1.95,2.039V72.778" transform="translate(80.531 89.514)" fill="#fff"/>
      <path id="Trazado_838379" data-name="Trazado 838379" d="M49.809,42.069c0-3.573-.071-7.147.021-10.715a6.644,6.644,0,0,1,6.995-6.717c7-.008,14.008.01,21.01-.008a6.888,6.888,0,0,1,6.982,7.031q.055,10.508,0,21.016A6.757,6.757,0,0,1,78.6,59.5c-1.442.118-2.9.089-4.348.092q-8.639.008-17.277-.008a6.845,6.845,0,0,1-6.319-3.5,7.159,7.159,0,0,1-.88-3.717q.008-5.148,0-10.3Zm4.576-.154h.005c0,3.757-.018,7.516.026,11.272a2.285,2.285,0,0,0,.552,1.259,2.134,2.134,0,0,0,1.827.623q10.508,0,21.018,0c1.754,0,2.4-.652,2.45-2.414.005-.23.008-.463.008-.694q-.008-7.779-.016-15.56c0-1.775.029-3.55,0-5.325a1.866,1.866,0,0,0-1.8-1.911,11.715,11.715,0,0,0-1.173-.05q-9.44.024-18.877.05c-.8,0-1.615-.034-2.416.031a1.68,1.68,0,0,0-1.6,1.788V41.914" transform="translate(80.53 39.842)" fill="#fff"/>
      <path id="Trazado_838380" data-name="Trazado 838380" d="M67.342,40.019c3.479,0,6.963.094,10.437-.024,4.539-.152,7.065,3.832,7.05,7.089-.039,6.937-.013,13.874-.013,20.811a6.748,6.748,0,0,1-6.722,6.966q-10.92.09-21.843,0a6.455,6.455,0,0,1-6.419-6.4q-.094-10.991.008-21.984a6.435,6.435,0,0,1,6.513-6.435c3.662-.063,7.327-.013,10.989-.013ZM54.384,57.357h-.068q0,5.6,0,11.2A1.91,1.91,0,0,0,55.7,70.317a4.721,4.721,0,0,0,1.361.136c6.843.008,13.686,0,20.526.013,1.908,0,2.7-.741,2.7-2.644q-.024-8.054-.042-16.107c0-1.7.06-3.408.013-5.113a2.024,2.024,0,0,0-2.312-2.152H59.633c-1.084,0-2.168-.013-3.249,0a1.971,1.971,0,0,0-2,2.05q0,5.427,0,10.853" transform="translate(80.541 64.695)" fill="#fff"/>
      <path id="Trazado_838381" data-name="Trazado 838381" d="M86.942,30.216c5.647,0,11.29-.01,16.937.013a4.545,4.545,0,0,1,1.861.343,2.156,2.156,0,0,1,1.113,2.264,2.764,2.764,0,0,1-2.338,1.969c-.16.016-.325.01-.484.01q-17.215,0-34.426-.018a3.859,3.859,0,0,1-1.688-.484,2.273,2.273,0,0,1-1.126-2.207,2.651,2.651,0,0,1,2.042-1.843,10.307,10.307,0,0,1,1.173-.039q8.47,0,16.937,0Z" transform="translate(108.002 48.877)" fill="#fff"/>
      <path id="Trazado_838382" data-name="Trazado 838382" d="M86.945,45.558q8.222,0,16.448.005a11.248,11.248,0,0,1,1.513.1A2.309,2.309,0,0,1,106.9,47.8a2.246,2.246,0,0,1-1.95,2.162,9.223,9.223,0,0,1-1.445.118q-16.724,0-33.447-.018a6.5,6.5,0,0,1-1.636-.207,2.262,2.262,0,0,1-1.66-2.044,2.365,2.365,0,0,1,1.88-2.107,9.679,9.679,0,0,1,1.652-.136q8.325-.012,16.654-.005Z" transform="translate(108.002 73.7)" fill="#fff"/>
      <path id="Trazado_838383" data-name="Trazado 838383" d="M88.369,41.864h9.953c.207,0,.414,0,.62.008a2.054,2.054,0,0,1,2.285,2.262,2.427,2.427,0,0,1-2.4,2.27c-1.267.016-2.534,0-3.8,0q-8.6,0-17.207,0a2.392,2.392,0,0,1-2.469-2.856A2.229,2.229,0,0,1,77.8,41.862q5.285,0,10.573,0Z" transform="translate(121.797 67.718)" fill="#fff"/>
      <path id="Trazado_838384" data-name="Trazado 838384" d="M88.249,30.953c-3.479,0-6.955.005-10.434,0-1.762-.005-2.866-1.293-2.44-2.812a2.472,2.472,0,0,1,2.45-1.66q6.738,0,13.476,0c2.51,0,5.021-.008,7.531.005a2.309,2.309,0,0,1,2.34,2.921,1.961,1.961,0,0,1-2.005,1.555c-1.866.016-3.733,0-5.6,0H88.249Z" transform="translate(121.792 42.827)" fill="#fff"/>
      <path id="Trazado_838385" data-name="Trazado 838385" d="M80.145,33.937c1.775,0,3.547-.018,5.322.008a2.717,2.717,0,0,1,2.118.649,2.163,2.163,0,0,1,.6,2.157,2.1,2.1,0,0,1-1.817,1.576,10.331,10.331,0,0,1-1.584.118c-3.178.013-6.356.024-9.534.005a6.634,6.634,0,0,1-1.7-.236,1.98,1.98,0,0,1-1.518-2.3A2.034,2.034,0,0,1,73.8,34.063a8.04,8.04,0,0,1,1.3-.113c1.681-.013,3.364-.005,5.044-.005Z" transform="translate(116.534 54.89)" fill="#fff"/>
      <path id="Trazado_838386" data-name="Trazado 838386" d="M74.919,41.864c1.8,0,3.592-.01,5.385,0a2.277,2.277,0,0,1,2.5,2.188A2.476,2.476,0,0,1,80.228,46.4c-3.613.01-7.228.031-10.84-.024a3.264,3.264,0,0,1-1.7-.626,1.855,1.855,0,0,1-.866-2.034A2.231,2.231,0,0,1,68.71,41.93c.866-.092,1.746-.055,2.618-.06,1.2-.008,2.4,0,3.592,0Z" transform="translate(108.001 67.718)" fill="#fff"/>
      <path id="Trazado_838387" data-name="Trazado 838387" d="M74.675,61.7c-1.7,0-3.408.018-5.11-.005a2.533,2.533,0,0,1-2.589-1.343,2.075,2.075,0,0,1,1.068-2.8A6.255,6.255,0,0,1,70,57.213q4.869-.051,9.738-.008a5.818,5.818,0,0,1,1.688.291,2.042,2.042,0,0,1,1.338,1.987,1.989,1.989,0,0,1-1.353,1.953,6.376,6.376,0,0,1-1.694.254c-1.681.031-3.361.01-5.042.01Z" transform="translate(108.038 92.513)" fill="#fff"/>
      <path id="Trazado_838388" data-name="Trazado 838388" d="M80.212,53.756c-1.958,0-3.916.018-5.874-.005a2.149,2.149,0,0,1-2.3-2.351,2.23,2.23,0,0,1,2.194-2.065c.987-.047,1.979-.031,2.971-.034,2.626-.008,5.251-.018,7.88-.008a6.04,6.04,0,0,1,1.568.17,2.12,2.12,0,0,1,1.592,2.414,2.191,2.191,0,0,1-2.222,1.877c-1.935.013-3.872.005-5.806,0" transform="translate(116.538 79.736)" fill="#fff"/>
      <path id="Trazado_838389" data-name="Trazado 838389" d="M74.838,30.95c-1.84,0-3.681,0-5.524,0a2.523,2.523,0,0,1-2.555-2.17,2.488,2.488,0,0,1,2.568-2.293c3.06-.016,6.12-.005,9.181-.005.668,0,1.335-.018,2,.008a2.386,2.386,0,0,1,2.188,1.7,2.053,2.053,0,0,1-.911,2.39,2.561,2.561,0,0,1-1.291.353c-1.885.039-3.772.016-5.66.018" transform="translate(108.004 42.824)" fill="#fff"/>
      <path id="Trazado_838390" data-name="Trazado 838390" d="M70.568,69.234c-.526-.024-1.058-.021-1.581-.076a2.224,2.224,0,0,1-.021-4.448,23.913,23.913,0,0,1,3.3,0,2.467,2.467,0,0,1,2.092,2.22,2.534,2.534,0,0,1-2.2,2.222c-.524.047-1.055.008-1.584.008v.076" transform="translate(108.002 104.589)" fill="#fff"/>
      <path id="Trazado_838391" data-name="Trazado 838391" d="M70.469,33.921c.628.044,1.2.081,1.775.123a1.981,1.981,0,0,1,1.707,1.107,2.025,2.025,0,0,1-1.181,3.073,8.392,8.392,0,0,1-4.5-.031,2.218,2.218,0,0,1-1.505-2.1,2.33,2.33,0,0,1,1.83-2c.634-.1,1.28-.12,1.874-.17" transform="translate(108.001 54.874)" fill="#fff"/>
      <path id="Trazado_838392" data-name="Trazado 838392" d="M70.437,53.751a7.315,7.315,0,0,1-1.377-.018,3.23,3.23,0,0,1-1.369-.529,1.917,1.917,0,0,1-.856-2.1,2.273,2.273,0,0,1,2.076-1.757,23.048,23.048,0,0,1,3.238-.008,2.263,2.263,0,0,1,2.065,1.662,1.81,1.81,0,0,1-.61,2.044,3.7,3.7,0,0,1-1.654.681,7.11,7.11,0,0,1-1.513.021" transform="translate(108.004 79.737)" fill="#fff"/>
      <path id="Trazado_838393" data-name="Trazado 838393" d="M69.6,61.807a3.23,3.23,0,0,1-1.065,2.06q-3.4,3.432-6.827,6.851a2.734,2.734,0,0,1-2.267,1.118,2.607,2.607,0,0,1-1.332-.628q-1.967-1.846-3.822-3.8a2.177,2.177,0,0,1,.725-3.722,1.322,1.322,0,0,1,1.495.05c.788.628,1.547,1.293,2.28,1.987.827.783.812.8,1.586.021,1.688-1.7,3.366-3.408,5.063-5.1,1.22-1.217,2.544-1.259,3.531-.081a6.143,6.143,0,0,1,.634,1.249" transform="translate(86.594 96.579)" fill="#fff"/>
      <path id="Trazado_838394" data-name="Trazado 838394" d="M59.453,35.928c.4-.359.586-.518.764-.694q2.768-2.757,5.534-5.516A2.016,2.016,0,0,1,68.2,29.19a2.085,2.085,0,0,1,1.277,2.3,2.036,2.036,0,0,1-.5,1.1c-2.552,2.626-5.118,5.243-7.722,7.817a2.016,2.016,0,0,1-3.037.186c-1.44-1.288-2.817-2.654-4.12-4.079a2.1,2.1,0,0,1,.168-3.047,2.206,2.206,0,0,1,2.882-.141c.633.568,1.22,1.191,1.8,1.814a5.15,5.15,0,0,1,.508.8" transform="translate(86.58 46.876)" fill="#fff"/>
      <path id="Trazado_838395" data-name="Trazado 838395" d="M69.649,46.584a5.831,5.831,0,0,1-.741,1.408q-3.883,3.974-7.843,7.874A2.01,2.01,0,0,1,58.2,55.9q-2.1-2-4.115-4.086a2.11,2.11,0,0,1,.065-2.935,2.178,2.178,0,0,1,3-.107c.7.636,1.374,1.3,2.031,1.971.322.33.51.291.827-.031q2.776-2.839,5.6-5.626a2.215,2.215,0,0,1,3.306-.016,6.6,6.6,0,0,1,.733,1.51" transform="translate(86.586 71.732)" fill="#fff"/>
      <path id="Trazado_838406" data-name="Trazado 838406" d="M41.916,183.179a7,7,0,1,0-7,7,7,7,0,0,0,7-7" transform="translate(65.051 285.012)" fill="#39a900"/>
    </g>
    <g id="Grupo_1072347" data-name="Grupo 1072347" transform="translate(-8694.827 -11042.055)">
      <path id="Trazado_838363" data-name="Trazado 838363" d="M455.178,53.472a139.957,139.957,0,0,1-279.9,0H136.282a178.946,178.946,0,0,0,357.885,0Z" transform="translate(-136.282 86.503)" fill="#dbe5f3"/>
      <path id="Trazado_838364" data-name="Trazado 838364" d="M262.546,164.241a35.792,35.792,0,1,1-35.79-35.793,35.792,35.792,0,0,1,35.79,35.793" transform="translate(-47.82 207.798)" fill="#dbe5f3"/>
      <path id="Trazado_838936" data-name="Trazado 838936" d="M0,0H71.586V71.583H0Z" transform="translate(143.143 336.246)" fill="none"/>
      <path id="Trazado_838365" data-name="Trazado 838365" d="M243.316,156.87A23.858,23.858,0,1,1,219.457,133a23.859,23.859,0,0,1,23.858,23.866Z" transform="translate(-40.321 215.169)" fill="#0a5e6b"/>
      <path id="Trazado_838937" data-name="Trazado 838937" d="M0,0H13.72V119.761H0Z" transform="translate(172.074 226.784)" fill="#dbe5f3"/>
      <path id="Trazado_838366" data-name="Trazado 838366" d="M430.941,139.969A139.966,139.966,0,1,1,290.976,0,139.965,139.965,0,0,1,430.941,139.969" transform="translate(-112.459 -0.001)" fill="#fff"/>
      <path id="Trazado_838367" data-name="Trazado 838367" d="M417.932,135.041A132.044,132.044,0,1,1,285.889,3,132.043,132.043,0,0,1,417.932,135.041Z" transform="translate(-108.017 4.846)" fill="#0a5e6b"/>
      <path id="Trazado_838370" data-name="Trazado 838370" d="M166.256,153.2H464.071c16.277,0,29.471,7.894,29.471,17.635V291.484c0,9.741-13.194,17.635-29.471,17.635H166.256c-16.277,0-29.471-7.895-29.471-17.635V170.831c0-9.741,13.194-17.635,29.471-17.635" transform="translate(-135.958 247.836)" fill="#dbe5f3"/>
      <path id="Trazado_838935" data-name="Trazado 838935" d="M-63.818-5.761V0h-3.369V-16.352h6.379a7.38,7.38,0,0,1,3.24.674,4.965,4.965,0,0,1,2.151,1.915,5.339,5.339,0,0,1,.752,2.824,4.7,4.7,0,0,1-1.645,3.79,6.853,6.853,0,0,1-4.554,1.387Zm0-2.729h3.01a2.959,2.959,0,0,0,2.038-.629,2.287,2.287,0,0,0,.7-1.8,2.7,2.7,0,0,0-.708-1.943,2.643,2.643,0,0,0-1.954-.764h-3.088ZM-45.877,0A3.6,3.6,0,0,1-46.2-1.089,3.927,3.927,0,0,1-49.269.225,4.314,4.314,0,0,1-52.228-.809,3.323,3.323,0,0,1-53.4-3.414,3.434,3.434,0,0,1-51.97-6.379a7.065,7.065,0,0,1,4.138-1.044h1.494v-.7a2,2,0,0,0-.432-1.348,1.7,1.7,0,0,0-1.365-.505,1.934,1.934,0,0,0-1.286.393A1.335,1.335,0,0,0-49.887-8.5h-3.246a3.26,3.26,0,0,1,.651-1.954,4.306,4.306,0,0,1,1.842-1.409,6.712,6.712,0,0,1,2.673-.511A5.3,5.3,0,0,1-44.4-11.247a3.948,3.948,0,0,1,1.32,3.173v5.267A5.809,5.809,0,0,0-42.6-.191V0Zm-2.684-2.257a2.8,2.8,0,0,0,1.325-.32,2.1,2.1,0,0,0,.9-.859V-5.525h-1.213q-2.437,0-2.594,1.685l-.011.191a1.3,1.3,0,0,0,.427,1A1.658,1.658,0,0,0-48.562-2.257Zm14.687-6.851a8.818,8.818,0,0,0-1.168-.09,2.377,2.377,0,0,0-2.415,1.247V0H-40.7V-12.151h3.066l.09,1.449a3.007,3.007,0,0,1,2.707-1.673,3.4,3.4,0,0,1,1.011.146Zm6.445-6.031v2.987h2.078v2.381H-27.43v6.064a1.448,1.448,0,0,0,.258.966,1.3,1.3,0,0,0,.988.292,5.176,5.176,0,0,0,.955-.079V-.067a6.682,6.682,0,0,1-1.965.292q-3.414,0-3.481-3.448V-9.771H-32.45v-2.381h1.774v-2.987ZM-20.21,0h-3.257V-12.151h3.257Zm-3.448-15.3a1.6,1.6,0,0,1,.489-1.2,1.835,1.835,0,0,1,1.331-.472,1.839,1.839,0,0,1,1.325.472,1.589,1.589,0,0,1,.494,1.2,1.593,1.593,0,0,1-.5,1.213,1.844,1.844,0,0,1-1.32.472,1.844,1.844,0,0,1-1.32-.472A1.593,1.593,0,0,1-23.658-15.3ZM-12.6-2.392a2.129,2.129,0,0,0,1.46-.494A1.731,1.731,0,0,0-10.555-4.2h3.043a4.163,4.163,0,0,1-.674,2.263A4.446,4.446,0,0,1-10-.343a5.676,5.676,0,0,1-2.544.567,5.275,5.275,0,0,1-4.11-1.656,6.555,6.555,0,0,1-1.5-4.576v-.213A6.48,6.48,0,0,1-16.664-10.7a5.214,5.214,0,0,1,4.1-1.673,5.111,5.111,0,0,1,3.656,1.3,4.593,4.593,0,0,1,1.4,3.453h-3.043a2.23,2.23,0,0,0-.584-1.541,1.947,1.947,0,0,0-1.482-.593,1.955,1.955,0,0,0-1.713.827,4.791,4.791,0,0,0-.578,2.683v.337a4.852,4.852,0,0,0,.573,2.7A1.979,1.979,0,0,0-12.6-2.392ZM-2.325,0H-5.582V-12.151h3.257ZM-5.773-15.3a1.6,1.6,0,0,1,.489-1.2,1.835,1.835,0,0,1,1.331-.472,1.839,1.839,0,0,1,1.325.472,1.589,1.589,0,0,1,.494,1.2,1.593,1.593,0,0,1-.5,1.213,1.844,1.844,0,0,1-1.32.472,1.844,1.844,0,0,1-1.32-.472A1.593,1.593,0,0,1-5.773-15.3ZM11.171-5.963A7.288,7.288,0,0,1,9.9-1.466,4.087,4.087,0,0,1,6.454.225a3.786,3.786,0,0,1-2.976-1.28V4.672H.233V-12.151h3.01l.112,1.19a3.815,3.815,0,0,1,3.077-1.415,4.115,4.115,0,0,1,3.493,1.662,7.485,7.485,0,0,1,1.247,4.582ZM7.926-6.2a4.782,4.782,0,0,0-.6-2.617,1.957,1.957,0,0,0-1.746-.921,2.125,2.125,0,0,0-2.1,1.168v4.975A2.161,2.161,0,0,0,5.6-2.392Q7.926-2.392,7.926-6.2ZM20.131,0a3.6,3.6,0,0,1-.326-1.089A3.927,3.927,0,0,1,16.739.225,4.314,4.314,0,0,1,13.78-.809a3.323,3.323,0,0,1-1.174-2.605,3.434,3.434,0,0,1,1.432-2.965,7.065,7.065,0,0,1,4.138-1.044H19.67v-.7a2,2,0,0,0-.432-1.348,1.7,1.7,0,0,0-1.365-.505,1.934,1.934,0,0,0-1.286.393A1.335,1.335,0,0,0,16.122-8.5H12.876a3.26,3.26,0,0,1,.651-1.954,4.306,4.306,0,0,1,1.842-1.409,6.712,6.712,0,0,1,2.673-.511,5.3,5.3,0,0,1,3.566,1.129,3.948,3.948,0,0,1,1.32,3.173v5.267A5.809,5.809,0,0,0,23.41-.191V0ZM17.447-2.257a2.8,2.8,0,0,0,1.325-.32,2.1,2.1,0,0,0,.9-.859V-5.525H18.458q-2.437,0-2.594,1.685l-.011.191a1.3,1.3,0,0,0,.427,1A1.658,1.658,0,0,0,17.447-2.257Zm10.846-9.894.1,1.4a4.242,4.242,0,0,1,3.493-1.628,3.526,3.526,0,0,1,2.875,1.134,5.292,5.292,0,0,1,.966,3.392V0H32.482V-7.771a2.106,2.106,0,0,0-.449-1.5,2.011,2.011,0,0,0-1.494-.466,2.233,2.233,0,0,0-2.055,1.168V0H25.238V-12.151Zm13.665-2.987v2.987h2.078v2.381H41.958v6.064a1.448,1.448,0,0,0,.258.966,1.3,1.3,0,0,0,.988.292,5.176,5.176,0,0,0,.955-.079V-.067a6.682,6.682,0,0,1-1.965.292q-3.414,0-3.481-3.448V-9.771H36.938v-2.381h1.774v-2.987ZM51.344.225a5.965,5.965,0,0,1-4.352-1.64,5.828,5.828,0,0,1-1.679-4.369V-6.1a7.341,7.341,0,0,1,.708-3.274,5.192,5.192,0,0,1,2-2.224,5.627,5.627,0,0,1,2.959-.781A5.043,5.043,0,0,1,54.91-10.8a6.389,6.389,0,0,1,1.432,4.458V-5.02H48.6a3.015,3.015,0,0,0,.949,1.909,2.869,2.869,0,0,0,2,.719,3.5,3.5,0,0,0,2.931-1.359l1.595,1.786A4.872,4.872,0,0,1,54.107-.354,6.485,6.485,0,0,1,51.344.225Zm-.371-9.984a2.028,2.028,0,0,0-1.567.654,3.388,3.388,0,0,0-.769,1.873h4.515v-.26a2.416,2.416,0,0,0-.584-1.675A2.092,2.092,0,0,0,50.973-9.759Zm13.676,6.4a1.046,1.046,0,0,0-.59-.938,6.7,6.7,0,0,0-1.892-.612q-4.335-.91-4.335-3.684a3.339,3.339,0,0,1,1.342-2.7,5.414,5.414,0,0,1,3.51-1.084,5.827,5.827,0,0,1,3.7,1.089,3.433,3.433,0,0,1,1.387,2.83H64.526a1.57,1.57,0,0,0-.449-1.151,1.9,1.9,0,0,0-1.4-.455,1.943,1.943,0,0,0-1.269.371,1.17,1.17,0,0,0-.449.943,1,1,0,0,0,.511.87,5.257,5.257,0,0,0,1.724.573,14.08,14.08,0,0,1,2.044.545,3.358,3.358,0,0,1,2.572,3.268A3.17,3.17,0,0,1,66.379-.8,6.153,6.153,0,0,1,62.7.225,6.426,6.426,0,0,1,59.983-.32a4.551,4.551,0,0,1-1.859-1.494,3.471,3.471,0,0,1-.674-2.05h3.077a1.694,1.694,0,0,0,.64,1.325,2.539,2.539,0,0,0,1.595.46,2.35,2.35,0,0,0,1.409-.354A1.1,1.1,0,0,0,64.649-3.358Z" transform="translate(177.827 231.457)" fill="#fff"/>
      <path id="Trazado_838938" data-name="Trazado 838938" d="M0,0H171.083V32.437H0Z" transform="translate(93.959 207.622)" fill="none"/>
      <path id="Trazado_838939" data-name="Trazado 838939" d="M9.5-3.721H3.545L2.207,0H.273L5.7-14.219H7.344L12.783,0H10.859ZM4.111-5.254H8.945L6.523-11.9ZM15.02,0V-9.17H13.35v-1.4h1.67v-.9a3.671,3.671,0,0,1,1.011-2.754,3.919,3.919,0,0,1,2.856-.986,8.6,8.6,0,0,1,2.764.6l-.3,1.523a6.259,6.259,0,0,0-2.324-.488,2.274,2.274,0,0,0-1.675.522,2.154,2.154,0,0,0-.513,1.567v.918h2.158v1.4H16.836V0Zm7.529,0H20.732V-10.566h1.816ZM30.6-8.945a5.414,5.414,0,0,0-.889-.068A2.381,2.381,0,0,0,27.295-7.5V0H25.488V-10.566h1.758l.029,1.221a2.813,2.813,0,0,1,2.52-1.416,1.846,1.846,0,0,1,.8.137Zm3.359-1.621L34-9.395a3.9,3.9,0,0,1,3.135-1.367,3.021,3.021,0,0,1,3.018,1.7,4,4,0,0,1,1.372-1.23,4.052,4.052,0,0,1,2-.469q3.477,0,3.535,3.682V0H45.254V-6.973a2.426,2.426,0,0,0-.518-1.694A2.279,2.279,0,0,0,43-9.229a2.4,2.4,0,0,0-1.67.6,2.436,2.436,0,0,0-.771,1.616V0H38.74V-6.924a2.016,2.016,0,0,0-2.256-2.3,2.417,2.417,0,0,0-2.432,1.514V0H32.246V-10.566ZM56.309,0a3.8,3.8,0,0,1-.254-1.113A4.031,4.031,0,0,1,53.047.2a3.73,3.73,0,0,1-2.563-.884,2.859,2.859,0,0,1-1-2.241,2.987,2.987,0,0,1,1.255-2.563,5.916,5.916,0,0,1,3.53-.913h1.758v-.83a2.029,2.029,0,0,0-.566-1.509,2.276,2.276,0,0,0-1.67-.562,2.634,2.634,0,0,0-1.621.488,1.439,1.439,0,0,0-.654,1.182H49.7a2.493,2.493,0,0,1,.562-1.528,3.832,3.832,0,0,1,1.523-1.167,5.125,5.125,0,0,1,2.114-.43,4.177,4.177,0,0,1,2.861.913,3.294,3.294,0,0,1,1.074,2.515v4.863A5.946,5.946,0,0,0,58.2-.156V0Zm-3-1.377a3.175,3.175,0,0,0,1.611-.439,2.658,2.658,0,0,0,1.1-1.143V-5.127H54.609q-3.32,0-3.32,1.943a1.645,1.645,0,0,0,.566,1.328A2.177,2.177,0,0,0,53.311-1.377Zm9.8-11.748v2.559h1.973v1.4H63.115v6.561a1.467,1.467,0,0,0,.264.953,1.11,1.11,0,0,0,.9.318,4.374,4.374,0,0,0,.859-.117V0A5.268,5.268,0,0,1,63.75.2a2.25,2.25,0,0,1-1.826-.732,3.147,3.147,0,0,1-.615-2.08V-9.17H59.385v-1.4h1.924v-2.559ZM69.16,0H67.354V-10.566H69.16ZM67.207-13.369a1.078,1.078,0,0,1,.269-.742,1.008,1.008,0,0,1,.8-.3,1.024,1.024,0,0,1,.8.3,1.067,1.067,0,0,1,.273.742,1.032,1.032,0,0,1-.273.732,1.043,1.043,0,0,1-.8.293,1.026,1.026,0,0,1-.8-.293A1.043,1.043,0,0,1,67.207-13.369Zm8.33,10.918,2.617-8.115H80L76.211,0H74.834L71.006-10.566h1.846Zm5.576-2.93a6.241,6.241,0,0,1,.61-2.793,4.553,4.553,0,0,1,1.7-1.914,4.626,4.626,0,0,1,2.485-.674A4.456,4.456,0,0,1,89.4-9.268a5.748,5.748,0,0,1,1.333,3.975v.127A6.3,6.3,0,0,1,90.142-2.4,4.486,4.486,0,0,1,88.452-.488,4.679,4.679,0,0,1,85.928.2,4.445,4.445,0,0,1,82.446-1.3a5.719,5.719,0,0,1-1.333-3.955Zm1.816.215a4.52,4.52,0,0,0,.815,2.822,2.61,2.61,0,0,0,2.183,1.064,2.594,2.594,0,0,0,2.188-1.079,4.943,4.943,0,0,0,.811-3.022A4.513,4.513,0,0,0,88.1-8.2a2.623,2.623,0,0,0-2.192-1.079A2.594,2.594,0,0,0,83.75-8.213,4.906,4.906,0,0,0,82.93-5.166Z" transform="translate(130.827 441.05)" fill="#12263f"/>
      <path id="Trazado_838940" data-name="Trazado 838940" d="M12.578,0H10.693L3.535-10.957V0H1.65V-14.219H3.535L10.713-3.213V-14.219h1.865ZM20.01.2a4.617,4.617,0,0,1-3.5-1.411A5.237,5.237,0,0,1,15.166-4.99v-.332a6.341,6.341,0,0,1,.6-2.808,4.685,4.685,0,0,1,1.68-1.934,4.223,4.223,0,0,1,2.339-.7,3.957,3.957,0,0,1,3.2,1.357,5.877,5.877,0,0,1,1.143,3.887v.752H16.973a3.756,3.756,0,0,0,.913,2.524,2.87,2.87,0,0,0,2.222.962,3.147,3.147,0,0,0,1.621-.391,4.073,4.073,0,0,0,1.162-1.035l1.1.859A4.437,4.437,0,0,1,20.01.2Zm-.225-9.473a2.41,2.41,0,0,0-1.836.8,3.868,3.868,0,0,0-.918,2.231h5.293v-.137a3.441,3.441,0,0,0-.742-2.134A2.269,2.269,0,0,0,19.785-9.277Zm6.006,3.906A6.21,6.21,0,0,1,26.934-9.3a3.654,3.654,0,0,1,3.027-1.46,3.635,3.635,0,0,1,3.018,1.367l.088-1.172h1.65V-.254A4.3,4.3,0,0,1,33.5,2.979,4.487,4.487,0,0,1,30.234,4.16,5.435,5.435,0,0,1,28,3.672a3.85,3.85,0,0,1-1.67-1.338l.938-1.084a3.533,3.533,0,0,0,2.842,1.436,2.768,2.768,0,0,0,2.056-.742A2.837,2.837,0,0,0,32.9-.146v-.908A3.713,3.713,0,0,1,29.941.2a3.609,3.609,0,0,1-3-1.494A6.529,6.529,0,0,1,25.791-5.371Zm1.816.205a4.738,4.738,0,0,0,.732,2.808,2.38,2.38,0,0,0,2.051,1.021A2.646,2.646,0,0,0,32.9-2.891V-7.715a2.677,2.677,0,0,0-2.49-1.514A2.4,2.4,0,0,0,28.35-8.2,5.16,5.16,0,0,0,27.607-5.166ZM43.965,0a3.8,3.8,0,0,1-.254-1.113A4.031,4.031,0,0,1,40.7.2,3.73,3.73,0,0,1,38.14-.688a2.859,2.859,0,0,1-1-2.241,2.987,2.987,0,0,1,1.255-2.563,5.916,5.916,0,0,1,3.53-.913h1.758v-.83a2.029,2.029,0,0,0-.566-1.509,2.276,2.276,0,0,0-1.67-.562,2.634,2.634,0,0,0-1.621.488,1.439,1.439,0,0,0-.654,1.182H37.354a2.493,2.493,0,0,1,.562-1.528,3.832,3.832,0,0,1,1.523-1.167,5.125,5.125,0,0,1,2.114-.43,4.177,4.177,0,0,1,2.861.913,3.294,3.294,0,0,1,1.074,2.515v4.863a5.946,5.946,0,0,0,.371,2.314V0Zm-3-1.377a3.175,3.175,0,0,0,1.611-.439,2.658,2.658,0,0,0,1.1-1.143V-5.127H42.266q-3.32,0-3.32,1.943a1.645,1.645,0,0,0,.566,1.328A2.177,2.177,0,0,0,40.967-1.377Zm9.8-11.748v2.559h1.973v1.4H50.771v6.561a1.467,1.467,0,0,0,.264.953,1.11,1.11,0,0,0,.9.318,4.374,4.374,0,0,0,.859-.117V0A5.268,5.268,0,0,1,51.406.2,2.25,2.25,0,0,1,49.58-.537a3.147,3.147,0,0,1-.615-2.08V-9.17H47.041v-1.4h1.924v-2.559ZM56.816,0H55.01V-10.566h1.807ZM54.863-13.369a1.078,1.078,0,0,1,.269-.742,1.008,1.008,0,0,1,.8-.3,1.024,1.024,0,0,1,.8.3,1.067,1.067,0,0,1,.273.742,1.032,1.032,0,0,1-.273.732,1.043,1.043,0,0,1-.8.293,1.026,1.026,0,0,1-.8-.293A1.043,1.043,0,0,1,54.863-13.369Zm8.33,10.918,2.617-8.115h1.846L63.867,0H62.49L58.662-10.566h1.846Zm5.576-2.93a6.241,6.241,0,0,1,.61-2.793,4.553,4.553,0,0,1,1.7-1.914,4.626,4.626,0,0,1,2.485-.674,4.456,4.456,0,0,1,3.491,1.494,5.748,5.748,0,0,1,1.333,3.975v.127A6.3,6.3,0,0,1,77.8-2.4,4.486,4.486,0,0,1,76.108-.488,4.679,4.679,0,0,1,73.584.2,4.445,4.445,0,0,1,70.1-1.3,5.719,5.719,0,0,1,68.77-5.254Zm1.816.215A4.52,4.52,0,0,0,71.4-2.344a2.61,2.61,0,0,0,2.183,1.064,2.594,2.594,0,0,0,2.188-1.079,4.943,4.943,0,0,0,.811-3.022A4.513,4.513,0,0,0,75.757-8.2a2.623,2.623,0,0,0-2.192-1.079,2.594,2.594,0,0,0-2.158,1.064A4.906,4.906,0,0,0,70.586-5.166Z" transform="translate(137.827 485.56)" fill="#12263f"/>
      <path id="Trazado_838941" data-name="Trazado 838941" d="M3.662,0H1.787V-14.219H3.662ZM8.506-10.566l.049,1.172a3.9,3.9,0,0,1,3.135-1.367,3.021,3.021,0,0,1,3.018,1.7,4,4,0,0,1,1.372-1.23,4.052,4.052,0,0,1,2-.469q3.477,0,3.535,3.682V0H19.8V-6.973a2.426,2.426,0,0,0-.518-1.694,2.279,2.279,0,0,0-1.738-.562,2.4,2.4,0,0,0-1.67.6,2.436,2.436,0,0,0-.771,1.616V0H13.291V-6.924a2.016,2.016,0,0,0-2.256-2.3A2.417,2.417,0,0,0,8.6-7.715V0H6.8V-10.566Zm24.756,5.4a6.327,6.327,0,0,1-1.1,3.887A3.537,3.537,0,0,1,29.17.2a3.875,3.875,0,0,1-3.027-1.221V4.063H24.336V-10.566h1.65l.088,1.172a3.722,3.722,0,0,1,3.066-1.367,3.6,3.6,0,0,1,3.013,1.436,6.4,6.4,0,0,1,1.108,3.994Zm-1.807-.205a4.669,4.669,0,0,0-.762-2.822A2.454,2.454,0,0,0,28.6-9.229a2.656,2.656,0,0,0-2.461,1.455v5.049a2.661,2.661,0,0,0,2.48,1.445,2.442,2.442,0,0,0,2.065-1.03A5.1,5.1,0,0,0,31.455-5.371ZM42.08,0a3.8,3.8,0,0,1-.254-1.113A4.031,4.031,0,0,1,38.818.2a3.73,3.73,0,0,1-2.563-.884,2.859,2.859,0,0,1-1-2.241,2.987,2.987,0,0,1,1.255-2.563,5.916,5.916,0,0,1,3.53-.913H41.8v-.83a2.029,2.029,0,0,0-.566-1.509,2.276,2.276,0,0,0-1.67-.562,2.634,2.634,0,0,0-1.621.488,1.439,1.439,0,0,0-.654,1.182H35.469a2.493,2.493,0,0,1,.562-1.528,3.832,3.832,0,0,1,1.523-1.167,5.125,5.125,0,0,1,2.114-.43,4.177,4.177,0,0,1,2.861.913A3.294,3.294,0,0,1,43.6-7.334v4.863a5.946,5.946,0,0,0,.371,2.314V0Zm-3-1.377a3.175,3.175,0,0,0,1.611-.439,2.658,2.658,0,0,0,1.1-1.143V-5.127H40.381q-3.32,0-3.32,1.943a1.645,1.645,0,0,0,.566,1.328A2.177,2.177,0,0,0,39.082-1.377ZM51.543-8.945a5.414,5.414,0,0,0-.889-.068A2.381,2.381,0,0,0,48.242-7.5V0H46.436V-10.566h1.758l.029,1.221a2.813,2.813,0,0,1,2.52-1.416,1.846,1.846,0,0,1,.8.137Zm5.713,7.666a2.6,2.6,0,0,0,1.689-.586,2.061,2.061,0,0,0,.8-1.465h1.709A3.276,3.276,0,0,1,60.83-1.6,4.116,4.116,0,0,1,59.292-.293,4.438,4.438,0,0,1,57.256.2a4.353,4.353,0,0,1-3.433-1.44,5.737,5.737,0,0,1-1.274-3.94v-.3a6.361,6.361,0,0,1,.566-2.744A4.314,4.314,0,0,1,54.741-10.1a4.619,4.619,0,0,1,2.5-.664A4.238,4.238,0,0,1,60.2-9.7a3.8,3.8,0,0,1,1.255,2.764H59.746a2.49,2.49,0,0,0-.776-1.685,2.415,2.415,0,0,0-1.724-.659,2.529,2.529,0,0,0-2.134.991,4.655,4.655,0,0,0-.757,2.866v.342a4.562,4.562,0,0,0,.752,2.813A2.541,2.541,0,0,0,57.256-1.279ZM65.449,0H63.643V-10.566h1.807ZM63.5-13.369a1.078,1.078,0,0,1,.269-.742,1.008,1.008,0,0,1,.8-.3,1.024,1.024,0,0,1,.8.3,1.067,1.067,0,0,1,.273.742,1.032,1.032,0,0,1-.273.732,1.043,1.043,0,0,1-.8.293,1.026,1.026,0,0,1-.8-.293A1.043,1.043,0,0,1,63.5-13.369ZM74.863,0a3.8,3.8,0,0,1-.254-1.113A4.031,4.031,0,0,1,71.6.2a3.73,3.73,0,0,1-2.563-.884,2.859,2.859,0,0,1-1-2.241,2.987,2.987,0,0,1,1.255-2.563,5.916,5.916,0,0,1,3.53-.913H74.58v-.83a2.029,2.029,0,0,0-.566-1.509,2.276,2.276,0,0,0-1.67-.562,2.634,2.634,0,0,0-1.621.488,1.439,1.439,0,0,0-.654,1.182H68.252a2.493,2.493,0,0,1,.562-1.528,3.832,3.832,0,0,1,1.523-1.167,5.125,5.125,0,0,1,2.114-.43,4.177,4.177,0,0,1,2.861.913,3.294,3.294,0,0,1,1.074,2.515v4.863a5.946,5.946,0,0,0,.371,2.314V0Zm-3-1.377a3.175,3.175,0,0,0,1.611-.439,2.658,2.658,0,0,0,1.1-1.143V-5.127H73.164q-3.32,0-3.32,1.943a1.645,1.645,0,0,0,.566,1.328A2.177,2.177,0,0,0,71.865-1.377ZM81.182,0H79.375V-15h1.807Z" transform="translate(137.828 530.069)" fill="#12263f"/>
      <path id="Trazado_838371" data-name="Trazado 838371" d="M255.625,17.771c15.466,0,30.934-.123,46.4.034,14.806.152,25.526,7.1,32.175,20.275a33.088,33.088,0,0,1,3.317,14.979c.058,16.877.107,33.754-.008,50.628a35.039,35.039,0,0,1-24.94,33.531,26.541,26.541,0,0,1-8.429,1.348c-2.4-.052-2.565.191-2.937,2.534-.607,3.806-1.181,7.618-1.767,11.429-.55,3.581-1.068,7.168-1.647,10.743-.668,4.12-4.631,7.118-9.576,5.51a7.192,7.192,0,0,1-3.832-3.513q-3.668-6.255-7.359-12.495c-2.456-4.162-4.987-8.283-7.335-12.505-.84-1.508-1.956-1.743-3.466-1.741q-24.663.047-49.327.021c-4.191,0-8.382.034-12.573-.071a24.307,24.307,0,0,1-8.222-1.927c-11.518-4.5-18.953-12.72-21.987-24.714A37.28,37.28,0,0,1,173.041,103c-.1-16.4-.058-32.809-.039-49.212a35.894,35.894,0,0,1,2.9-14.728,34.815,34.815,0,0,1,21.222-19.523,35.837,35.837,0,0,1,11.832-1.762q23.336-.02,46.67-.008M255.059,24v-.013q-23.642,0-47.282.005a27.132,27.132,0,0,0-15.51,4.7c-8.775,5.961-12.958,14.361-12.95,24.921q.016,24.868.01,49.738a28.548,28.548,0,0,0,20.8,28.06,32.552,32.552,0,0,0,9.633,1.092q28.908-.02,57.819-.029a6.4,6.4,0,0,1,4.332,1.222,13.478,13.478,0,0,1,2.848,3.191c4.076,6.764,8.05,13.592,12.06,20.393,1.034,1.751,2.052,3.513,3.141,5.228a1.28,1.28,0,0,0,1.052.534,1.345,1.345,0,0,0,.723-.95c.382-2.23.681-4.476,1.023-6.715.822-5.327,1.688-10.647,2.471-15.979a7.629,7.629,0,0,1,7.7-6.942,35.116,35.116,0,0,0,6.563-.827,28.608,28.608,0,0,0,21.767-28.28c-.058-16.607.008-33.217-.018-49.824a32,32,0,0,0-1.008-8.393A28.6,28.6,0,0,0,302.431,24q-23.686-.02-47.371-.005" transform="translate(-76.916 28.673)" fill="#fff"/>
      <path id="Trazado_838372" data-name="Trazado 838372" d="M213.282,68.883H187.292c-3.12,0-4.683-1.455-4.51-4.555A26.387,26.387,0,0,1,193.96,43.59,25.661,25.661,0,0,1,211.167,38.5,26.735,26.735,0,0,1,231.3,49.189a1.419,1.419,0,0,0,1.788.647c3-1.06,6.115-.827,9.2-.749a14.919,14.919,0,0,1,3.353.736,1.669,1.669,0,0,0,2.016-.688c5.5-7,12.772-10.777,21.649-10.636,10.468.168,18.413,5.068,23.586,14.209a25.017,25.017,0,0,1,3.215,11.822c.071,2.793-1.492,4.351-4.275,4.353q-12.53,0-25.057,0h-1.2c.17,1.068.34,2.037.479,3.01.147,1.018.317,2.039.387,3.065a4.045,4.045,0,0,1-4.243,4.544q-22.755,0-45.51,0a4,4,0,0,1-4.22-4.377c.11-1.67.44-3.327.67-4.989.052-.374.089-.751.149-1.254m5.757,4.243h8.306q15.8,0,31.591.016c.848,0,1.068-.2.916-1.047a19.264,19.264,0,0,0-3.086-7.639c-5.241-7.573-12.887-10.416-21.772-8.691-7.369,1.432-12.364,6.026-15.05,13.055a9.458,9.458,0,0,0-.906,4.306m6.874-20.673c-4.335-6.044-13.641-9.785-23.251-6.55a19.481,19.481,0,0,0-10.814,8.924,18.063,18.063,0,0,0-2.592,7.678h1.107q12.522.012,25.044.037a1.041,1.041,0,0,0,1.034-.61,22.724,22.724,0,0,1,5.073-6.081c1.435-1.17,2.929-2.267,4.4-3.4m63.565,10.005c.848-5.526-6.414-14.482-13.615-16.694-9.576-2.945-18.623.686-22.971,6.8a27.236,27.236,0,0,1,9.673,9.495,1.387,1.387,0,0,0,1.031.445q12.609.035,25.214.016a6.7,6.7,0,0,0,.668-.065" transform="translate(-61.077 62.179)" fill="#fff"/>
      <path id="Trazado_838373" data-name="Trazado 838373" d="M188.379,39.857A12.284,12.284,0,1,1,200.811,52.22a12.5,12.5,0,0,1-12.432-12.364m18.293.113a5.83,5.83,0,0,0-5.683-6.058c-3.707.026-6.369,2.461-6.4,5.958A6.047,6.047,0,0,0,200.709,46a5.9,5.9,0,0,0,5.963-6.034" transform="translate(-52.001 44.648)" fill="#fff"/>
      <path id="Trazado_838374" data-name="Trazado 838374" d="M223.353,27.606A12.291,12.291,0,1,1,211.065,39.8a12.325,12.325,0,0,1,12.288-12.191M217.4,39.828c-.348,3.83,3.16,6.233,5.974,6.173a6.079,6.079,0,0,0,6.073-6.188,5.914,5.914,0,0,0-5.738-5.88c-3.864-.018-6.309,2.27-6.309,5.9" transform="translate(-15.3 44.656)" fill="#fff"/>
      <path id="Trazado_838375" data-name="Trazado 838375" d="M212.044,31.655a12.238,12.238,0,1,1-12.322,12.126,12.2,12.2,0,0,1,12.322-12.126m.026,6.217a6.032,6.032,0,0,0-6.118,5.749,6.146,6.146,0,0,0,6.233,6.332,6.249,6.249,0,0,0,5.919-6.222c-.018-2.623-2.767-6.215-6.034-5.859" transform="translate(-33.653 51.208)" fill="#fff"/>
      <path id="Trazado_838407" data-name="Trazado 838407" d="M185.8,170.743a7,7,0,1,0-7,7,7,7,0,0,0,7-7" transform="translate(-63.832 264.893)" fill="#39a900"/>
      <path id="Trazado_838408" data-name="Trazado 838408" d="M185.8,188.854a7,7,0,1,0-7,7,7,7,0,0,0,7-7" transform="translate(-63.832 294.193)" fill="#39a900"/>
      <path id="Trazado_838409" data-name="Trazado 838409" d="M185.8,205.41a7,7,0,1,0-7,7,7,7,0,0,0,7-7" transform="translate(-63.832 320.976)" fill="#39a900"/>
    </g>
    <g id="Grupo_1072349" data-name="Grupo 1072349" transform="translate(-8694.827 -10467.385)">
      <path id="Trazado_838353" data-name="Trazado 838353" d="M591.771,53.472a139.957,139.957,0,0,1-279.9,0H272.875a178.948,178.948,0,0,0,357.885,0Z" transform="translate(-272.875 86.503)" fill="#cdf5e2"/>
      <g id="Grupo_1072252" data-name="Grupo 1072252" transform="translate(143.143 336.246)" clip-path="url(#clip-path-3)">
        <path id="Trazado_838354" data-name="Trazado 838354" d="M399.139,164.241a35.792,35.792,0,1,1-35.79-35.793,35.792,35.792,0,0,1,35.79,35.793" transform="translate(-327.556 -128.448)" fill="#cdf5e2"/>
      </g>
      <path id="Trazado_838355" data-name="Trazado 838355" d="M379.831,156.87a23.864,23.864,0,1,1,0-.005Z" transform="translate(-177.039 215.169)" fill="#1fd27a"/>
      <path id="Trazado_838942" data-name="Trazado 838942" d="M0,0H13.72V116.638H0Z" transform="translate(172.075 226.784)" fill="#cdf5e2"/>
      <path id="Trazado_838356" data-name="Trazado 838356" d="M567.534,139.969A139.968,139.968,0,1,1,427.569,0,139.966,139.966,0,0,1,567.534,139.969" transform="translate(-249.054 -0.001)" fill="#fff"/>
      <path id="Trazado_838357" data-name="Trazado 838357" d="M554.793,135.041A132.042,132.042,0,1,1,422.749,3,132.042,132.042,0,0,1,554.793,135.041Z" transform="translate(-243.881 4.846)" fill="#1fd27a"/>
      <path id="Trazado_838369" data-name="Trazado 838369" d="M306.555,153.173h268.5c14.987,0,27.136,7.86,27.136,17.553V289.91c0,9.7-12.149,17.555-27.136,17.555h-268.5c-14.987,0-27.136-7.86-27.136-17.555V170.726c0-9.693,12.149-17.553,27.136-17.553" transform="translate(-262.288 247.799)" fill="#cdf5e2"/>
      <g id="Grupo_1072272" data-name="Grupo 1072272" transform="translate(124.827 215.476)">
        <g id="Grupo_1072271" data-name="Grupo 1072271" clip-path="url(#clip-path-4)">
          <path id="Trazado_838945" data-name="Trazado 838945" d="M9.824-5.811H4.2V0H1.27V-14.219h9.258v2.373H4.2v3.672H9.824Zm1.272.43a6.267,6.267,0,0,1,.605-2.8,4.432,4.432,0,0,1,1.743-1.9,5.086,5.086,0,0,1,2.642-.674,4.812,4.812,0,0,1,3.491,1.309A5.252,5.252,0,0,1,21.087-5.9l.02.723a5.523,5.523,0,0,1-1.357,3.9A4.718,4.718,0,0,1,16.106.2,4.742,4.742,0,0,1,12.459-1.27,5.62,5.62,0,0,1,11.1-5.254Zm2.822.2a3.95,3.95,0,0,0,.566,2.3,1.868,1.868,0,0,0,1.621.8,1.873,1.873,0,0,0,1.6-.787,4.322,4.322,0,0,0,.576-2.518,3.91,3.91,0,0,0-.576-2.289,1.873,1.873,0,0,0-1.621-.812,1.842,1.842,0,0,0-1.6.807A4.395,4.395,0,0,0,13.919-5.181ZM28.682-7.92A7.667,7.667,0,0,0,27.666-8a2.067,2.067,0,0,0-2.1,1.084V0H22.745V-10.566h2.666l.078,1.26a2.615,2.615,0,0,1,2.354-1.455,2.957,2.957,0,0,1,.879.127Zm3.924-2.646.088,1.182a3.713,3.713,0,0,1,3.037-1.377,2.818,2.818,0,0,1,2.8,1.611,3.628,3.628,0,0,1,3.174-1.611,3.152,3.152,0,0,1,2.559,1,4.6,4.6,0,0,1,.84,3.013V0H42.274V-6.738a2.012,2.012,0,0,0-.352-1.313,1.558,1.558,0,0,0-1.24-.415,1.761,1.761,0,0,0-1.758,1.211L38.934,0H36.112V-6.729a1.988,1.988,0,0,0-.361-1.328,1.573,1.573,0,0,0-1.23-.41,1.829,1.829,0,0,0-1.738,1V0H29.959V-10.566ZM53.317,0a3.134,3.134,0,0,1-.283-.947A3.415,3.415,0,0,1,50.368.2a3.752,3.752,0,0,1-2.573-.9,2.89,2.89,0,0,1-1.021-2.266,2.986,2.986,0,0,1,1.245-2.578,6.144,6.144,0,0,1,3.6-.908h1.3v-.605a1.741,1.741,0,0,0-.376-1.172,1.479,1.479,0,0,0-1.187-.439,1.682,1.682,0,0,0-1.118.342,1.161,1.161,0,0,0-.405.938H47.008a2.835,2.835,0,0,1,.566-1.7,3.744,3.744,0,0,1,1.6-1.226,5.837,5.837,0,0,1,2.324-.444,4.611,4.611,0,0,1,3.1.981,3.433,3.433,0,0,1,1.147,2.759v4.58a5.052,5.052,0,0,0,.42,2.275V0ZM50.983-1.963a2.431,2.431,0,0,0,1.152-.278,1.828,1.828,0,0,0,.781-.747V-4.8H51.862q-2.119,0-2.256,1.465l-.01.166a1.13,1.13,0,0,0,.371.869A1.441,1.441,0,0,0,50.983-1.963ZM61.2-13.164v2.6H63V-8.5H61.2v5.273a1.259,1.259,0,0,0,.225.84,1.128,1.128,0,0,0,.859.254,4.5,4.5,0,0,0,.83-.068V-.059A5.81,5.81,0,0,1,61.4.2q-2.969,0-3.027-3V-8.5H56.83v-2.07h1.543v-2.6Zm2.266,7.783a6.267,6.267,0,0,1,.605-2.8,4.432,4.432,0,0,1,1.743-1.9,5.086,5.086,0,0,1,2.642-.674,4.812,4.812,0,0,1,3.491,1.309A5.252,5.252,0,0,1,73.452-5.9l.02.723a5.523,5.523,0,0,1-1.357,3.9A4.718,4.718,0,0,1,68.472.2,4.742,4.742,0,0,1,64.824-1.27a5.62,5.62,0,0,1-1.362-3.984Zm2.822.2a3.95,3.95,0,0,0,.566,2.3,1.868,1.868,0,0,0,1.621.8,1.873,1.873,0,0,0,1.6-.787,4.322,4.322,0,0,0,.576-2.518,3.91,3.91,0,0,0-.576-2.289,1.873,1.873,0,0,0-1.621-.812,1.842,1.842,0,0,0-1.6.807A4.395,4.395,0,0,0,66.284-5.181Z" transform="translate(14.004 22.685)" fill="#fff"/>
        </g>
      </g>
      <path id="Trazado_838943" data-name="Trazado 838943" d="M11.475-12.686H6.9V0H5.039V-12.686H.479v-1.533h11ZM15.264,0H13.457V-10.566h1.807ZM13.311-13.369a1.078,1.078,0,0,1,.269-.742,1.008,1.008,0,0,1,.8-.3,1.024,1.024,0,0,1,.8.3,1.067,1.067,0,0,1,.273.742,1.032,1.032,0,0,1-.273.732,1.043,1.043,0,0,1-.8.293,1.026,1.026,0,0,1-.8-.293A1.043,1.043,0,0,1,13.311-13.369ZM22.539.2a4.617,4.617,0,0,1-3.5-1.411A5.237,5.237,0,0,1,17.7-4.99v-.332a6.341,6.341,0,0,1,.6-2.808,4.685,4.685,0,0,1,1.68-1.934,4.223,4.223,0,0,1,2.339-.7,3.957,3.957,0,0,1,3.2,1.357A5.877,5.877,0,0,1,26.66-5.518v.752H19.5a3.756,3.756,0,0,0,.913,2.524,2.87,2.87,0,0,0,2.222.962,3.147,3.147,0,0,0,1.621-.391A4.073,4.073,0,0,0,25.42-2.705l1.1.859A4.437,4.437,0,0,1,22.539.2Zm-.225-9.473a2.41,2.41,0,0,0-1.836.8,3.868,3.868,0,0,0-.918,2.231h5.293v-.137a3.441,3.441,0,0,0-.742-2.134A2.269,2.269,0,0,0,22.314-9.277Zm8.135-1.289L30.5-9.395a3.9,3.9,0,0,1,3.135-1.367,3.021,3.021,0,0,1,3.018,1.7,4,4,0,0,1,1.372-1.23,4.052,4.052,0,0,1,2-.469q3.477,0,3.535,3.682V0H41.748V-6.973a2.426,2.426,0,0,0-.518-1.694,2.279,2.279,0,0,0-1.738-.562,2.4,2.4,0,0,0-1.67.6,2.436,2.436,0,0,0-.771,1.616V0H35.234V-6.924a2.016,2.016,0,0,0-2.256-2.3,2.417,2.417,0,0,0-2.432,1.514V0H28.74V-10.566Zm24.756,5.4a6.327,6.327,0,0,1-1.1,3.887A3.537,3.537,0,0,1,51.113.2a3.875,3.875,0,0,1-3.027-1.221V4.063H46.279V-10.566h1.65l.088,1.172a3.722,3.722,0,0,1,3.066-1.367A3.6,3.6,0,0,1,54.1-9.326a6.4,6.4,0,0,1,1.108,3.994ZM53.4-5.371a4.669,4.669,0,0,0-.762-2.822,2.454,2.454,0,0,0-2.09-1.035,2.656,2.656,0,0,0-2.461,1.455v5.049a2.661,2.661,0,0,0,2.48,1.445,2.442,2.442,0,0,0,2.065-1.03A5.1,5.1,0,0,0,53.4-5.371Zm3.623-.01a6.241,6.241,0,0,1,.61-2.793,4.553,4.553,0,0,1,1.7-1.914,4.626,4.626,0,0,1,2.485-.674,4.456,4.456,0,0,1,3.491,1.494,5.748,5.748,0,0,1,1.333,3.975v.127A6.3,6.3,0,0,1,66.05-2.4,4.486,4.486,0,0,1,64.36-.488,4.679,4.679,0,0,1,61.836.2,4.445,4.445,0,0,1,58.354-1.3a5.719,5.719,0,0,1-1.333-3.955Zm1.816.215a4.52,4.52,0,0,0,.815,2.822,2.61,2.61,0,0,0,2.183,1.064,2.594,2.594,0,0,0,2.188-1.079,4.943,4.943,0,0,0,.811-3.022A4.513,4.513,0,0,0,64.009-8.2a2.623,2.623,0,0,0-2.192-1.079,2.594,2.594,0,0,0-2.158,1.064A4.906,4.906,0,0,0,58.838-5.166Z" transform="translate(131.204 470.688)" fill="#12263f"/>
      <path id="Trazado_838944" data-name="Trazado 838944" d="M12.588-6.65A8.8,8.8,0,0,1,11.885-3,5.326,5.326,0,0,1,9.893-.625,5.481,5.481,0,0,1,6.885.2,5.434,5.434,0,0,1,3.906-.63,5.453,5.453,0,0,1,1.89-2.983a8.439,8.439,0,0,1-.737-3.54V-7.549a8.691,8.691,0,0,1,.713-3.623,5.434,5.434,0,0,1,2.017-2.407,5.411,5.411,0,0,1,2.983-.835,5.512,5.512,0,0,1,3.013.825A5.316,5.316,0,0,1,11.885-11.2a8.838,8.838,0,0,1,.7,3.647Zm-1.865-.918A6.375,6.375,0,0,0,9.707-11.45,3.35,3.35,0,0,0,6.865-12.8a3.314,3.314,0,0,0-2.8,1.353A6.245,6.245,0,0,0,3.018-7.7V-6.65A6.384,6.384,0,0,0,4.048-2.8,3.328,3.328,0,0,0,6.885-1.4,3.314,3.314,0,0,0,9.7-2.72a6.348,6.348,0,0,0,1.025-3.794Zm9.5-1.377a5.414,5.414,0,0,0-.889-.068A2.381,2.381,0,0,0,16.924-7.5V0H15.117V-10.566h1.758L16.9-9.346a2.813,2.813,0,0,1,2.52-1.416,1.846,1.846,0,0,1,.8.137ZM21.26-5.371a6.19,6.19,0,0,1,1.152-3.911,3.644,3.644,0,0,1,3.018-1.479,3.665,3.665,0,0,1,2.939,1.27V-15h1.807V0h-1.66l-.088-1.133A3.679,3.679,0,0,1,25.41.2a3.609,3.609,0,0,1-2.993-1.5A6.26,6.26,0,0,1,21.26-5.234Zm1.807.205a4.687,4.687,0,0,0,.742,2.813,2.4,2.4,0,0,0,2.051,1.016,2.636,2.636,0,0,0,2.51-1.543V-7.734a2.656,2.656,0,0,0-2.49-1.494A2.411,2.411,0,0,0,23.809-8.2,5.16,5.16,0,0,0,23.066-5.166ZM37.363.2a4.617,4.617,0,0,1-3.5-1.411A5.237,5.237,0,0,1,32.52-4.99v-.332a6.341,6.341,0,0,1,.6-2.808,4.685,4.685,0,0,1,1.68-1.934,4.223,4.223,0,0,1,2.339-.7,3.957,3.957,0,0,1,3.2,1.357,5.877,5.877,0,0,1,1.143,3.887v.752H34.326a3.756,3.756,0,0,0,.913,2.524,2.87,2.87,0,0,0,2.222.962,3.147,3.147,0,0,0,1.621-.391,4.073,4.073,0,0,0,1.162-1.035l1.1.859A4.437,4.437,0,0,1,37.363.2Zm-.225-9.473a2.41,2.41,0,0,0-1.836.8,3.868,3.868,0,0,0-.918,2.231h5.293v-.137a3.441,3.441,0,0,0-.742-2.134A2.269,2.269,0,0,0,37.139-9.277Zm8.145-1.289.059,1.328a3.851,3.851,0,0,1,3.164-1.523q3.35,0,3.379,3.779V0H50.078V-6.992a2.432,2.432,0,0,0-.522-1.689,2.094,2.094,0,0,0-1.6-.547,2.607,2.607,0,0,0-1.543.469,3.183,3.183,0,0,0-1.035,1.23V0H43.574V-10.566Z" transform="translate(136.934 515.18)" fill="#12263f"/>
      <path id="Trazado_838396" data-name="Trazado 838396" d="M400.295,135.13c-5.613,8.529-13.345,13.6-23.455,14.772a29.828,29.828,0,0,1-22.9-6.8,30.926,30.926,0,0,1-4.293-44.288,30.083,30.083,0,0,1,25.17-11.147c10.131.377,18.131,5.05,24.406,13.005V99.638c-.013-5.427-.044-10.853-.031-16.28a6.816,6.816,0,0,1,3.369-6.167,7,7,0,0,1,3.712-1.06c3.33,0,6.657-.058,9.987-.018.654.008.717-.228.717-.73q-.008-6.412,0-12.825,0-15.974.005-31.947c0-.537-.005-1.076.031-1.613a2.407,2.407,0,0,1,2.194-2.283,2.264,2.264,0,0,1,2.615,1.73A5.754,5.754,0,0,1,422,29.958Q422,52.732,421.978,75.5c0,.594.257.586.691.586,9.424,0,18.845.026,28.269.021a7.706,7.706,0,0,1,5.314,1.814,7.236,7.236,0,0,1,2.39,5.458c.018.487.008.974.008,1.458q0,22.928,0,45.85c0,2.885-1.005,5.283-3.66,6.694a6.667,6.667,0,0,1-2.759.838c-3.042.1-6.092.065-9.136.031a2.6,2.6,0,0,1-2.325-1.83,2.33,2.33,0,0,1,.942-2.565,3.593,3.593,0,0,1,1.725-.5c2.686-.05,5.374-.021,8.065-.021a2.109,2.109,0,0,0,2.228-2.254q0-5.223,0-10.445,0-18.279-.005-36.557a4.3,4.3,0,0,0-.139-1.285,2.09,2.09,0,0,0-1.982-1.639c-.537-.026-1.076-.039-1.612-.039q-21.742,0-43.479,0c-1.636,0-2.408.7-2.435,2.353-.029,1.84.058,3.683.06,5.526,0,5.89-.039,11.777-.008,17.665a6.992,6.992,0,0,1-1.825,4.885c-2.979,3.411-5.872,6.9-8.8,10.359a4.9,4.9,0,0,0-.283.44c.414,0,.707,0,1,0,1.715-.01,3.432-.079,5.147-.021a4.64,4.64,0,0,1,4.6,4.288c.133,1.4.06,2.811.123,4.217a3.714,3.714,0,0,0,.293,1.4,1.9,1.9,0,0,0,1.89,1.139c8.322-.034,16.644-.024,24.966-.026a2.688,2.688,0,0,1,2.777,2.387,2.634,2.634,0,0,1-2.647,2.558c-2.866.052-5.736.039-8.6-.013-.712-.013-.838.2-.832.856.026,4.581.175,9.17-.032,13.743a12.146,12.146,0,0,1-11.317,11.681c-.793.045-1.584.123-2.374.123q-35.874.012-71.748,0a12.529,12.529,0,0,1-11.06-5.631,11.157,11.157,0,0,1-1.971-6.353q0-21,0-42.008a2.268,2.268,0,0,1,2.306-2.427,2.451,2.451,0,0,1,2.6,2.275,8.287,8.287,0,0,1,.013.846c0,13.618.032,27.238-.016,40.856a7.353,7.353,0,0,0,7.594,7.523q36.184.008,72.363-.018a13.944,13.944,0,0,0,3.772-.471,7.073,7.073,0,0,0,4.932-6.7c0-4.531-.029-9.06-.024-13.592,0-.552-.162-.665-.707-.66q-4.955.031-9.908-.024a7.178,7.178,0,0,1-6.071-3.162m-1.817-7.78c-2.233,0-4.327.05-6.416-.013a4.34,4.34,0,0,1-4.05-2.7,4.136,4.136,0,0,1,.665-4.526c.466-.581.942-1.149,1.421-1.717,2.537-3.016,5.084-6.024,7.6-9.052a.926.926,0,0,0,.194-.783,42.119,42.119,0,0,0-2.775-4.851,25.481,25.481,0,0,0-18.885-10.963,24.737,24.737,0,0,0-11.275,1.217c-10.317,3.948-16.3,11.364-17.581,22.408a24.847,24.847,0,0,0,3.537,15.953c.935,1.565,2.107,2.987,3.173,4.474.081-.039.165-.076.246-.115.076-.259.16-.521.23-.783a9.728,9.728,0,0,1,6.241-6.963,49.615,49.615,0,0,1,4.932-1.414c.505-.133.743-.346.71-.893-.042-.636.034-1.283-.026-1.916a1.373,1.373,0,0,0-.414-.814,14.983,14.983,0,0,1-4.073-5.406,14.72,14.72,0,0,1-1.037-5.154,20.9,20.9,0,0,1,.456-7.241,12.271,12.271,0,0,1,9.764-8.958,12.038,12.038,0,0,1,12.112,4.257,10.841,10.841,0,0,1,2.937,7.463c-.044,2.149-.018,4.3-.05,6.45a4.5,4.5,0,0,1-.207,1.2,12.624,12.624,0,0,1-3.788,6.377,3.745,3.745,0,0,0-1.469,3.77.368.368,0,0,1,0,.076c-.065.453.183.644.581.746,1.016.259,2.021.558,3.039.8,4.2.984,7.094,3.38,8.327,7.6.073.251.194.487.343.859a25.218,25.218,0,0,0,5.534-9.387M373.64,145.135a25.812,25.812,0,0,0,12.94-3.34c1-.531,1.573-1.144,1.351-2.33a7,7,0,0,1,0-1.149,4.973,4.973,0,0,0-3.568-4.9,21.165,21.165,0,0,1-2.031-.665,1.137,1.137,0,0,0-1.469.335,9.5,9.5,0,0,1-8.976,3.2,9.382,9.382,0,0,1-5.565-3.154,1.154,1.154,0,0,0-1.537-.364,7.222,7.222,0,0,1-1.584.56,4.444,4.444,0,0,0-3.647,3.223,23.475,23.475,0,0,0-.469,3.317,1.5,1.5,0,0,0,.916,1.6,26.083,26.083,0,0,0,13.636,3.673m7.571-33.725h-.073a24.216,24.216,0,0,0-.029-3.6,7.574,7.574,0,0,0-6.484-5.979c-4.055-.283-7.325,1.72-8.437,5.181a3.948,3.948,0,0,0-.278,1.11,42.507,42.507,0,0,0,.052,6.66c.568,3.793,3.157,5.989,6.668,7.181a2.719,2.719,0,0,0,1.353.126c3.351-.7,7.385-3.937,7.23-8.377-.026-.767,0-1.537,0-2.3m-9.819,15.51a4.694,4.694,0,0,1-.712,3.246c-.063.079.147.505.327.631a5.526,5.526,0,0,0,5.141.05c.377-.236.346-.458.2-.825a9.2,9.2,0,0,1-.5-1.668,12.876,12.876,0,0,1-.157-1.435Z" transform="translate(-191.076 43.183)" fill="#fff"/>
      <path id="Trazado_838397" data-name="Trazado 838397" d="M350.728,26.821h11.018a6.875,6.875,0,0,1,6.955,6.649c.092,2.788.06,5.579.065,8.369.008,4.063,0,8.123,0,12.233,8.6-12.272,19.992-17.992,35.008-14.429a29.756,29.756,0,0,1,18.84,13.911,30.882,30.882,0,0,1-7.039,40.555c-7.542,6.039-16.191,8.4-25.835,6.314-9.542-2.063-16.573-7.5-21.429-15.942-.12.113-.212.162-.254.241a6.945,6.945,0,0,1-6.584,3.969c-3.531.013-7.063,0-10.707,0v.893q0,14.819.005,29.644a2.761,2.761,0,0,1-1.023,2.442,2.439,2.439,0,0,1-3.893-1.767,7.5,7.5,0,0,1-.01-.767v-30.4c-.359-.016-.654-.042-.953-.042q-13.826,0-27.654,0a7.164,7.164,0,0,1-7.652-7.77q0-20.776.005-41.549c0-2.173-.05-4.359.16-6.516a6.858,6.858,0,0,1,6.827-6.039q2.957,0,5.914,0a2.45,2.45,0,0,1,2.424,2.372,2.33,2.33,0,0,1-2.047,2.544c-1.526.107-3.066.037-4.6.045-.563,0-1.128-.029-1.689.008a1.976,1.976,0,0,0-2.073,2.22v46.7c0,.306-.005.615,0,.921a1.8,1.8,0,0,0,1.853,1.984c1.047.05,2.1.005,3.147.005q20.666,0,41.33,0a9.986,9.986,0,0,0,1.681-.126,1.354,1.354,0,0,0,1.149-1.414c.01-1.254,0-2.508,0-3.762,0-3.372,2-5.393,5.374-5.421,1.864-.016,3.728,0,5.746,0-.474-.584-.856-1.076-1.256-1.55-2.6-3.068-5.167-6.157-7.8-9.191a7.929,7.929,0,0,1-2.094-5.573c.084-7.628.031-15.256.031-22.887a1.623,1.623,0,0,0-1.623-1.819,15.372,15.372,0,0,0-1.838-.089q-12.636.012-25.272.034c-1.809.005-2.675-.5-3.1-1.8a2.512,2.512,0,0,1,2.285-3.191c3.586-.01,7.17,0,10.756,0h.9c.058-.751.1-1.482.176-2.207a12.131,12.131,0,0,1,9.864-10.387,22.56,22.56,0,0,1,3.513-.3q35.913-.027,71.827-.013c4.311,0,7.966,1.432,10.66,4.927a11.471,11.471,0,0,1,2.479,6.811c.107,3.99.079,7.984.086,11.976A2.734,2.734,0,0,1,443.25,40.1a2.425,2.425,0,0,1-3.825-1.906c-.073-1.992-.037-3.992-.037-5.987,0-1.971-.018-3.945.039-5.914a7.335,7.335,0,0,0-7.306-7.44c-3.736-.1-7.476-.021-11.217-.021q-31.3,0-62.607,0a7.351,7.351,0,0,0-7.442,6.034,15.418,15.418,0,0,0-.128,1.948m64.649,61.073a2.624,2.624,0,0,1,.236-.492,26.437,26.437,0,0,0,2.623-31.662,26.156,26.156,0,0,0-28.021-11.56,25.277,25.277,0,0,0-14.021,8.272,26.1,26.1,0,0,0-4.916,8.162.949.949,0,0,0,.2.78c1.657,1.984,3.346,3.942,5.01,5.916,1.008,1.194,2.073,2.346,2.971,3.615a4.306,4.306,0,0,1-2.929,6.743c-1.4.136-2.806.113-4.212.152-.445.013-.893,0-1.346,0,.2,2.285,3.6,8.118,5.759,9.945.094-.312.2-.6.27-.887a9.589,9.589,0,0,1,5.885-6.809,21.955,21.955,0,0,1,3.44-1.029c2.524-.592,2.516-.565,2.537-3.042a1.647,1.647,0,0,0-.552-1.243,23.26,23.26,0,0,1-3.1-3.67c-2.529-4.173-2.463-8.827-1.542-13.332,1.081-5.288,4.639-8.615,9.953-9.639,5.154-.992,9.437.8,12.6,4.995a10.653,10.653,0,0,1,2.359,6.746c-.047,2.149-.024,4.3-.044,6.448a3.33,3.33,0,0,1-.134.83,12.914,12.914,0,0,1-3.806,6.7,3.95,3.95,0,0,0-1.579,3.709c.058.49.165.733.634.866,1.547.44,3.1.88,4.628,1.374a9.569,9.569,0,0,1,6.152,5.584c.306.728.558,1.476.948,2.521M403.7,83.541a9.213,9.213,0,0,1-5.071,3.495,9.694,9.694,0,0,1-10.136-3.1.882.882,0,0,0-.707-.251,26.425,26.425,0,0,0-2.725.759,4.521,4.521,0,0,0-3.243,3.463,21.3,21.3,0,0,0-.3,3.419,1.11,1.11,0,0,0,.474.825c8.625,5.058,17.432,5.4,26.392.927,2-1,1.987-1.026,1.95-3.217,0-.128,0-.257-.005-.385a4.974,4.974,0,0,0-3.989-5.2c-.853-.254-1.715-.474-2.641-.73m-.086-21.107h-.047a19.412,19.412,0,0,0-.034-3.448c-.579-3.175-2.581-5.044-5.665-5.974a7.744,7.744,0,0,0-9.429,5.649,16.329,16.329,0,0,0-.175,3.126,23.007,23.007,0,0,0,.1,4.058c.628,3.678,3.092,5.846,6.434,7.047a4.272,4.272,0,0,0,2.741-.128,11.749,11.749,0,0,0,3.131-1.887,7.511,7.511,0,0,0,2.948-6.215c-.013-.743,0-1.484,0-2.228m-9.838,15.487a4.693,4.693,0,0,1-.688,3.27c-.065.092.139.542.3.607a9.5,9.5,0,0,0,2.183.668,5.056,5.056,0,0,0,3.225-.8c-.3-1.364-.568-2.563-.83-3.743Z" transform="translate(-213.485 22.513)" fill="#fff"/>
      <path id="Trazado_838398" data-name="Trazado 838398" d="M374.031,56.231q-6.946,0-13.9,0a2.554,2.554,0,0,1-2.751-2.411,2.441,2.441,0,0,1,2.5-2.565c.56-.042,1.126-.042,1.688-.042q12.9-.012,25.8-.021a3.1,3.1,0,0,1,2.539.825c.586.66,1.157,1.385.712,2.332a2.671,2.671,0,0,1-2.461,1.882q-4.952,0-9.9,0h-4.223" transform="translate(-136.156 82.815)" fill="#fff"/>
      <path id="Trazado_838399" data-name="Trazado 838399" d="M374.089,56.5q6.334,0,12.67,0c.487,0,.974.026,1.458.06a2.982,2.982,0,0,1,2.589,2.348,2.967,2.967,0,0,1-2.3,2.552,10.722,10.722,0,0,1-1.832.144q-12.593.012-25.188,0a13.853,13.853,0,0,1-1.835-.126,2.589,2.589,0,0,1-2.272-2.5,2.471,2.471,0,0,1,2.424-2.411c3.021-.068,6.042-.058,9.06-.073,1.741-.008,3.482,0,5.222,0Z" transform="translate(-136.161 91.389)" fill="#fff"/>
      <path id="Trazado_838400" data-name="Trazado 838400" d="M331.184,29.711q6.452,0,12.906.005a9.02,9.02,0,0,1,1.526.115A2.25,2.25,0,0,1,347.7,32a2.212,2.212,0,0,1-1.937,2.524,5.858,5.858,0,0,1-1.366.162q-13.06,0-26.118-.021a8.075,8.075,0,0,1-1.974-.23,2.49,2.49,0,0,1-1.791-2.246,2.616,2.616,0,0,1,2.005-2.332,9,9,0,0,1,1.678-.144q6.491-.016,12.982-.005" transform="translate(-205.506 48.06)" fill="#fff"/>
      <path id="Trazado_838401" data-name="Trazado 838401" d="M331.094,24.459c4.505,0,9.01-.016,13.518.016a4.217,4.217,0,0,1,1.906.387,2.363,2.363,0,0,1,1.084,2.717,2.772,2.772,0,0,1-2.4,1.864c-.126.005-.254,0-.382,0q-13.673,0-27.343.008a2.881,2.881,0,0,1-2.668-1.49,2.409,2.409,0,0,1,1.772-3.432c1.018-.086,2.047-.068,3.071-.071q5.721-.012,11.442,0Z" transform="translate(-205.463 39.56)" fill="#fff"/>
      <path id="Trazado_838402" data-name="Trazado 838402" d="M347.784,22.772q-3.836,0-7.673,0a2.931,2.931,0,0,1-2.285-.869c-1.322-1.406-.764-2.775.529-3.686a3.045,3.045,0,0,1,1.657-.458c5.243-.037,10.487-.034,15.728-.021a2.569,2.569,0,0,1,2.652,3.419,2.257,2.257,0,0,1-1.8,1.5,13.866,13.866,0,0,1-2.139.134c-2.223.016-4.448.005-6.673.005Z" transform="translate(-169.024 28.681)" fill="#fff"/>
      <path id="Trazado_838403" data-name="Trazado 838403" d="M372.258,61.8q3.224,0,6.445,0a2.836,2.836,0,0,1,2.785,2.267c.212,1.079-1.042,2.513-2.369,2.654a19.426,19.426,0,0,1-1.992.071q-5.026.016-10.052.013c-.56,0-1.126-.024-1.683-.081a2.408,2.408,0,0,1-2.275-2.657,2.445,2.445,0,0,1,2.466-2.259c2.225-.029,4.45-.008,6.675-.008Z" transform="translate(-126.888 99.974)" fill="#fff"/>
      <path id="Trazado_838404" data-name="Trazado 838404" d="M323.755,39.933q-3.342,0-6.681,0a2.432,2.432,0,0,1-2.068-1.126A2.247,2.247,0,0,1,316,35.31a4.244,4.244,0,0,1,1.56-.314c4.147-.024,8.3-.016,12.442,0a2.816,2.816,0,0,1,2.317.992,2.38,2.38,0,0,1-1.657,3.927c-2.3.024-4.6.008-6.908.008Z" transform="translate(-205.478 56.59)" fill="#fff"/>
      <path id="Trazado_838405" data-name="Trazado 838405" d="M352.147,20.285a2.53,2.53,0,0,1-2.487,2.421,2.767,2.767,0,0,1-2.51-2.369,2.85,2.85,0,0,1,2.495-2.594,2.733,2.733,0,0,1,2.5,2.542" transform="translate(-152.714 28.701)" fill="#fff"/>
      <path id="Trazado_838410" data-name="Trazado 838410" d="M327.581,182.3a7,7,0,1,0-7,7,7,7,0,0,0,7-7" transform="translate(-207.024 283.586)" fill="#39a900"/>
      <path id="Trazado_838411" data-name="Trazado 838411" d="M327.581,198.3a7,7,0,1,0-7,7,7,7,0,0,0,7-7" transform="translate(-207.024 309.471)" fill="#39a900"/>
    </g>
  </g>
</svg>
